solid OpenSCAD_Model
  facet normal -1 0 0
    outer loop
      vertex -85 46 -4
      vertex -85 46 -24
      vertex -85 34 -4
    endloop
  endfacet
  facet normal -1 0 0
    outer loop
      vertex -85 37.1076 -15.0787
      vertex -85 46 -24
      vertex -85 34 -24
    endloop
  endfacet
  facet normal -1 0 0
    outer loop
      vertex -85 38.7502 -12.8179
      vertex -85 34 -4
      vertex -85 39.0206 -13.0416
    endloop
  endfacet
  facet normal -1 0 0
    outer loop
      vertex -85 34 -4
      vertex -85 36.611 -13.8245
      vertex -85 34 -24
    endloop
  endfacet
  facet normal -1 0 0
    outer loop
      vertex -85 36.611 -13.8245
      vertex -85 36.611 -14.1755
      vertex -85 34 -24
    endloop
  endfacet
  facet normal -1 0 0
    outer loop
      vertex -85 38.0879 -15.3972
      vertex -85 46 -24
      vertex -85 37.7377 -15.3752
    endloop
  endfacet
  facet normal -1 0 0
    outer loop
      vertex -85 36.611 -14.1755
      vertex -85 36.6983 -14.5154
      vertex -85 34 -24
    endloop
  endfacet
  facet normal -1 0 0
    outer loop
      vertex -85 37.7377 -15.3752
      vertex -85 46 -24
      vertex -85 37.4039 -15.2668
    endloop
  endfacet
  facet normal -1 0 0
    outer loop
      vertex -85 36.6983 -14.5154
      vertex -85 36.8674 -14.8229
      vertex -85 34 -24
    endloop
  endfacet
  facet normal -1 0 0
    outer loop
      vertex -85 36.8674 -14.8229
      vertex -85 37.1076 -15.0787
      vertex -85 34 -24
    endloop
  endfacet
  facet normal -1 0 0
    outer loop
      vertex -85 38.4326 -15.3315
      vertex -85 46 -24
      vertex -85 38.0879 -15.3972
    endloop
  endfacet
  facet normal -1 0 0
    outer loop
      vertex -85 38.7502 -15.1821
      vertex -85 46 -24
      vertex -85 38.4326 -15.3315
    endloop
  endfacet
  facet normal -1 0 0
    outer loop
      vertex -85 39.0206 -14.9584
      vertex -85 46 -24
      vertex -85 38.7502 -15.1821
    endloop
  endfacet
  facet normal -1 0 0
    outer loop
      vertex -85 39.2268 -14.6745
      vertex -85 46 -24
      vertex -85 39.0206 -14.9584
    endloop
  endfacet
  facet normal -1 0 0
    outer loop
      vertex -85 39.356 -14.3482
      vertex -85 46 -24
      vertex -85 39.2268 -14.6745
    endloop
  endfacet
  facet normal -1 0 0
    outer loop
      vertex -85 39.4 -14
      vertex -85 46 -24
      vertex -85 39.356 -14.3482
    endloop
  endfacet
  facet normal -1 0 0
    outer loop
      vertex -85 39.356 -13.6518
      vertex -85 46 -24
      vertex -85 39.4 -14
    endloop
  endfacet
  facet normal -1 0 0
    outer loop
      vertex -85 39.2268 -13.3255
      vertex -85 46 -24
      vertex -85 39.356 -13.6518
    endloop
  endfacet
  facet normal -1 0 0
    outer loop
      vertex -85 34 -4
      vertex -85 46 -24
      vertex -85 39.2268 -13.3255
    endloop
  endfacet
  facet normal -1 0 0
    outer loop
      vertex -85 34 -4
      vertex -85 39.2268 -13.3255
      vertex -85 39.0206 -13.0416
    endloop
  endfacet
  facet normal -1 0 0
    outer loop
      vertex -85 38.4326 -12.6685
      vertex -85 34 -4
      vertex -85 38.7502 -12.8179
    endloop
  endfacet
  facet normal -1 0 0
    outer loop
      vertex -85 38.0879 -12.6028
      vertex -85 34 -4
      vertex -85 38.4326 -12.6685
    endloop
  endfacet
  facet normal -1 0 0
    outer loop
      vertex -85 37.7377 -12.6248
      vertex -85 34 -4
      vertex -85 38.0879 -12.6028
    endloop
  endfacet
  facet normal -1 0 0
    outer loop
      vertex -85 37.4039 -12.7332
      vertex -85 34 -4
      vertex -85 37.7377 -12.6248
    endloop
  endfacet
  facet normal -1 0 0
    outer loop
      vertex -85 37.1076 -12.9213
      vertex -85 34 -4
      vertex -85 37.4039 -12.7332
    endloop
  endfacet
  facet normal -1 0 0
    outer loop
      vertex -85 34 -4
      vertex -85 37.1076 -12.9213
      vertex -85 36.8674 -13.1771
    endloop
  endfacet
  facet normal -1 0 0
    outer loop
      vertex -85 34 -4
      vertex -85 36.8674 -13.1771
      vertex -85 36.6983 -13.4846
    endloop
  endfacet
  facet normal -1 0 0
    outer loop
      vertex -85 34 -4
      vertex -85 36.6983 -13.4846
      vertex -85 36.611 -13.8245
    endloop
  endfacet
  facet normal -1 0 0
    outer loop
      vertex -85 37.4039 -15.2668
      vertex -85 46 -24
      vertex -85 37.1076 -15.0787
    endloop
  endfacet
  facet normal 0 1 2.22045e-16
    outer loop
      vertex -35 46 -4
      vertex -35 46 -24
      vertex -50.2977 46 -4
    endloop
  endfacet
  facet normal 0 1 2.22045e-16
    outer loop
      vertex -35 46 -4
      vertex -50.2977 46 -4
      vertex -85 46 -4
    endloop
  endfacet
  facet normal 0 1 2.22045e-16
    outer loop
      vertex -69.6632 46 -24
      vertex -85 46 -4
      vertex -69.6632 46 -4
    endloop
  endfacet
  facet normal 0 1 2.22045e-16
    outer loop
      vertex -50.2977 46 -4
      vertex -52.6324 46 -4
      vertex -85 46 -4
    endloop
  endfacet
  facet normal 0 1 2.22045e-16
    outer loop
      vertex -52.6324 46 -4
      vertex -67.387 46 -4
      vertex -85 46 -4
    endloop
  endfacet
  facet normal 0 1 2.22045e-16
    outer loop
      vertex -67.387 46 -4
      vertex -69.6632 46 -4
      vertex -85 46 -4
    endloop
  endfacet
  facet normal 0 1 2.22045e-16
    outer loop
      vertex -85 46 -4
      vertex -69.6632 46 -24
      vertex -85 46 -24
    endloop
  endfacet
  facet normal 0 1 2.22045e-16
    outer loop
      vertex -50.2977 46 -4
      vertex -35 46 -24
      vertex -50.2977 46 -24
    endloop
  endfacet
  facet normal 0 -2.22045e-16 1
    outer loop
      vertex -39.05 41.5 -4
      vertex -35 46 -4
      vertex -80.95 41.5 -4
    endloop
  endfacet
  facet normal 0 -2.22045e-16 1
    outer loop
      vertex -85 34 -4
      vertex -80.95 34 -4
      vertex -80.95 41.5 -4
    endloop
  endfacet
  facet normal 0 -2.22045e-16 1
    outer loop
      vertex -85 46 -4
      vertex -85 34 -4
      vertex -80.95 41.5 -4
    endloop
  endfacet
  facet normal 0 -2.22045e-16 1
    outer loop
      vertex -39.05 34 -4
      vertex -35 34 -4
      vertex -39.05 41.5 -4
    endloop
  endfacet
  facet normal 0 -2.22045e-16 1
    outer loop
      vertex -35 34 -4
      vertex -35 46 -4
      vertex -39.05 41.5 -4
    endloop
  endfacet
  facet normal 0 -2.22045e-16 1
    outer loop
      vertex -35 46 -4
      vertex -85 46 -4
      vertex -80.95 41.5 -4
    endloop
  endfacet
  facet normal 0 -1 -2.22045e-16
    outer loop
      vertex -85 34 -4
      vertex -85 34 -24
      vertex -80.95 34 -24
    endloop
  endfacet
  facet normal 0 -1 -2.22045e-16
    outer loop
      vertex -80.95 34 -4
      vertex -85 34 -4
      vertex -80.95 34 -24
    endloop
  endfacet
  facet normal 0 2.22045e-16 -1
    outer loop
      vertex -80.95 34 -24
      vertex -85 34 -24
      vertex -80.95 41.5 -24
    endloop
  endfacet
  facet normal 0 2.22045e-16 -1
    outer loop
      vertex -52.4984 44.1794 -24
      vertex -50.2977 46 -24
      vertex -35 46 -24
    endloop
  endfacet
  facet normal 0 2.22045e-16 -1
    outer loop
      vertex -52.4984 44.1794 -24
      vertex -35 46 -24
      vertex -55.6738 42.6852 -24
    endloop
  endfacet
  facet normal 0 2.22045e-16 -1
    outer loop
      vertex -39.05 34 -24
      vertex -35 46 -24
      vertex -35 34 -24
    endloop
  endfacet
  facet normal 0 2.22045e-16 -1
    outer loop
      vertex -39.05 41.5 -24
      vertex -35 46 -24
      vertex -39.05 34 -24
    endloop
  endfacet
  facet normal 0 2.22045e-16 -1
    outer loop
      vertex -85 46 -24
      vertex -69.6632 46 -24
      vertex -80.95 41.5 -24
    endloop
  endfacet
  facet normal 0 2.22045e-16 -1
    outer loop
      vertex -85 46 -24
      vertex -80.95 41.5 -24
      vertex -85 34 -24
    endloop
  endfacet
  facet normal 0 2.22045e-16 -1
    outer loop
      vertex -80.95 41.5 -24
      vertex -69.6632 46 -24
      vertex -68.9239 45.2128 -24
    endloop
  endfacet
  facet normal 0 2.22045e-16 -1
    outer loop
      vertex -80.95 41.5 -24
      vertex -68.9239 45.2128 -24
      vertex -65.9609 43.3324 -24
    endloop
  endfacet
  facet normal 0 2.22045e-16 -1
    outer loop
      vertex -80.95 41.5 -24
      vertex -65.9609 43.3324 -24
      vertex -62.6233 42.248 -24
    endloop
  endfacet
  facet normal 0 2.22045e-16 -1
    outer loop
      vertex -80.95 41.5 -24
      vertex -62.6233 42.248 -24
      vertex -59.1209 42.0276 -24
    endloop
  endfacet
  facet normal 0 2.22045e-16 -1
    outer loop
      vertex -59.1209 42.0276 -24
      vertex -55.6738 42.6852 -24
      vertex -35 46 -24
    endloop
  endfacet
  facet normal 0 2.22045e-16 -1
    outer loop
      vertex -59.1209 42.0276 -24
      vertex -35 46 -24
      vertex -39.05 41.5 -24
    endloop
  endfacet
  facet normal 0 2.22045e-16 -1
    outer loop
      vertex -80.95 41.5 -24
      vertex -59.1209 42.0276 -24
      vertex -39.05 41.5 -24
    endloop
  endfacet
  facet normal 2.22045e-16 1 2.22045e-16
    outer loop
      vertex -80.95 36.611 -13.8245
      vertex -80.95 36.611 -14.1755
      vertex -85 36.611 -13.8245
    endloop
  endfacet
  facet normal 2.22045e-16 1 2.22045e-16
    outer loop
      vertex -85 36.611 -13.8245
      vertex -80.95 36.611 -14.1755
      vertex -85 36.611 -14.1755
    endloop
  endfacet
  facet normal 2.15069e-16 0.968583 -0.248692
    outer loop
      vertex -85 36.6983 -13.4846
      vertex -80.95 36.6983 -13.4846
      vertex -85 36.611 -13.8245
    endloop
  endfacet
  facet normal 2.15069e-16 0.968583 -0.248692
    outer loop
      vertex -85 36.611 -13.8245
      vertex -80.95 36.6983 -13.4846
      vertex -80.95 36.611 -13.8245
    endloop
  endfacet
  facet normal 1.94579e-16 0.876307 -0.481753
    outer loop
      vertex -85 36.8674 -13.1771
      vertex -80.95 36.8674 -13.1771
      vertex -85 36.6983 -13.4846
    endloop
  endfacet
  facet normal 1.94579e-16 0.876307 -0.481753
    outer loop
      vertex -85 36.6983 -13.4846
      vertex -80.95 36.8674 -13.1771
      vertex -80.95 36.6983 -13.4846
    endloop
  endfacet
  facet normal 1.61864e-16 0.72897 -0.684546
    outer loop
      vertex -85 37.1076 -12.9213
      vertex -80.95 37.1076 -12.9213
      vertex -85 36.8674 -13.1771
    endloop
  endfacet
  facet normal 1.61864e-16 0.72897 -0.684546
    outer loop
      vertex -85 36.8674 -13.1771
      vertex -80.95 37.1076 -12.9213
      vertex -80.95 36.8674 -13.1771
    endloop
  endfacet
  facet normal 1.18977e-16 0.535826 -0.844329
    outer loop
      vertex -85 37.4039 -12.7332
      vertex -80.95 37.4039 -12.7332
      vertex -85 37.1076 -12.9213
    endloop
  endfacet
  facet normal 1.18977e-16 0.535826 -0.844329
    outer loop
      vertex -85 37.1076 -12.9213
      vertex -80.95 37.4039 -12.7332
      vertex -80.95 37.1076 -12.9213
    endloop
  endfacet
  facet normal 6.86154e-17 0.309016 -0.951057
    outer loop
      vertex -85 37.7377 -12.6248
      vertex -80.95 37.7377 -12.6248
      vertex -85 37.4039 -12.7332
    endloop
  endfacet
  facet normal 6.86154e-17 0.309016 -0.951057
    outer loop
      vertex -85 37.4039 -12.7332
      vertex -80.95 37.7377 -12.6248
      vertex -80.95 37.4039 -12.7332
    endloop
  endfacet
  facet normal 1.39421e-17 0.0627897 -0.998027
    outer loop
      vertex -85 38.0879 -12.6028
      vertex -80.95 38.0879 -12.6028
      vertex -85 37.7377 -12.6248
    endloop
  endfacet
  facet normal 1.39421e-17 0.0627897 -0.998027
    outer loop
      vertex -85 37.7377 -12.6248
      vertex -80.95 38.0879 -12.6028
      vertex -80.95 37.7377 -12.6248
    endloop
  endfacet
  facet normal -4.16068e-17 -0.187381 -0.982287
    outer loop
      vertex -85 38.4326 -12.6685
      vertex -80.95 38.4326 -12.6685
      vertex -85 38.0879 -12.6028
    endloop
  endfacet
  facet normal -4.16068e-17 -0.187381 -0.982287
    outer loop
      vertex -85 38.0879 -12.6028
      vertex -80.95 38.4326 -12.6685
      vertex -80.95 38.0879 -12.6028
    endloop
  endfacet
  facet normal -9.45419e-17 -0.425779 -0.904827
    outer loop
      vertex -85 38.7502 -12.8179
      vertex -80.95 38.7502 -12.8179
      vertex -85 38.4326 -12.6685
    endloop
  endfacet
  facet normal -9.45419e-17 -0.425779 -0.904827
    outer loop
      vertex -85 38.4326 -12.6685
      vertex -80.95 38.7502 -12.8179
      vertex -80.95 38.4326 -12.6685
    endloop
  endfacet
  facet normal -1.41537e-16 -0.637425 -0.770513
    outer loop
      vertex -85 39.0206 -13.0416
      vertex -80.95 39.0206 -13.0416
      vertex -85 38.7502 -12.8179
    endloop
  endfacet
  facet normal -1.41537e-16 -0.637425 -0.770513
    outer loop
      vertex -85 38.7502 -12.8179
      vertex -80.95 39.0206 -13.0416
      vertex -80.95 38.7502 -12.8179
    endloop
  endfacet
  facet normal -1.79638e-16 -0.809018 -0.587784
    outer loop
      vertex -85 39.0206 -13.0416
      vertex -85 39.2268 -13.3255
      vertex -80.95 39.2268 -13.3255
    endloop
  endfacet
  facet normal -1.79638e-16 -0.809018 -0.587784
    outer loop
      vertex -80.95 39.0206 -13.0416
      vertex -85 39.0206 -13.0416
      vertex -80.95 39.2268 -13.3255
    endloop
  endfacet
  facet normal -2.06452e-16 -0.929776 -0.368125
    outer loop
      vertex -85 39.2268 -13.3255
      vertex -85 39.356 -13.6518
      vertex -80.95 39.356 -13.6518
    endloop
  endfacet
  facet normal -2.06452e-16 -0.929776 -0.368125
    outer loop
      vertex -80.95 39.2268 -13.3255
      vertex -85 39.2268 -13.3255
      vertex -80.95 39.356 -13.6518
    endloop
  endfacet
  facet normal -2.20294e-16 -0.992115 -0.125334
    outer loop
      vertex -85 39.356 -13.6518
      vertex -85 39.4 -14
      vertex -80.95 39.4 -14
    endloop
  endfacet
  facet normal -2.20294e-16 -0.992115 -0.125334
    outer loop
      vertex -80.95 39.356 -13.6518
      vertex -85 39.356 -13.6518
      vertex -80.95 39.4 -14
    endloop
  endfacet
  facet normal -2.20294e-16 -0.992115 0.125334
    outer loop
      vertex -85 39.356 -14.3482
      vertex -80.95 39.356 -14.3482
      vertex -80.95 39.4 -14
    endloop
  endfacet
  facet normal -2.20294e-16 -0.992115 0.125334
    outer loop
      vertex -85 39.4 -14
      vertex -85 39.356 -14.3482
      vertex -80.95 39.4 -14
    endloop
  endfacet
  facet normal -2.06452e-16 -0.929776 0.368125
    outer loop
      vertex -85 39.2268 -14.6745
      vertex -80.95 39.2268 -14.6745
      vertex -80.95 39.356 -14.3482
    endloop
  endfacet
  facet normal -2.06452e-16 -0.929776 0.368125
    outer loop
      vertex -85 39.356 -14.3482
      vertex -85 39.2268 -14.6745
      vertex -80.95 39.356 -14.3482
    endloop
  endfacet
  facet normal -1.79638e-16 -0.809018 0.587784
    outer loop
      vertex -85 39.0206 -14.9584
      vertex -80.95 39.0206 -14.9584
      vertex -80.95 39.2268 -14.6745
    endloop
  endfacet
  facet normal -1.79638e-16 -0.809018 0.587784
    outer loop
      vertex -85 39.2268 -14.6745
      vertex -85 39.0206 -14.9584
      vertex -80.95 39.2268 -14.6745
    endloop
  endfacet
  facet normal -1.41537e-16 -0.637425 0.770513
    outer loop
      vertex -85 38.7502 -15.1821
      vertex -80.95 38.7502 -15.1821
      vertex -80.95 39.0206 -14.9584
    endloop
  endfacet
  facet normal -1.41537e-16 -0.637425 0.770513
    outer loop
      vertex -85 39.0206 -14.9584
      vertex -85 38.7502 -15.1821
      vertex -80.95 39.0206 -14.9584
    endloop
  endfacet
  facet normal -9.45419e-17 -0.425779 0.904827
    outer loop
      vertex -85 38.4326 -15.3315
      vertex -80.95 38.4326 -15.3315
      vertex -80.95 38.7502 -15.1821
    endloop
  endfacet
  facet normal -9.45419e-17 -0.425779 0.904827
    outer loop
      vertex -85 38.7502 -15.1821
      vertex -85 38.4326 -15.3315
      vertex -80.95 38.7502 -15.1821
    endloop
  endfacet
  facet normal -4.16068e-17 -0.187381 0.982287
    outer loop
      vertex -85 38.0879 -15.3972
      vertex -80.95 38.0879 -15.3972
      vertex -80.95 38.4326 -15.3315
    endloop
  endfacet
  facet normal -4.16068e-17 -0.187381 0.982287
    outer loop
      vertex -85 38.4326 -15.3315
      vertex -85 38.0879 -15.3972
      vertex -80.95 38.4326 -15.3315
    endloop
  endfacet
  facet normal 1.39421e-17 0.0627897 0.998027
    outer loop
      vertex -85 37.7377 -15.3752
      vertex -80.95 37.7377 -15.3752
      vertex -80.95 38.0879 -15.3972
    endloop
  endfacet
  facet normal 1.39421e-17 0.0627897 0.998027
    outer loop
      vertex -85 38.0879 -15.3972
      vertex -85 37.7377 -15.3752
      vertex -80.95 38.0879 -15.3972
    endloop
  endfacet
  facet normal 6.86154e-17 0.309016 0.951057
    outer loop
      vertex -85 37.4039 -15.2668
      vertex -80.95 37.4039 -15.2668
      vertex -80.95 37.7377 -15.3752
    endloop
  endfacet
  facet normal 6.86154e-17 0.309016 0.951057
    outer loop
      vertex -85 37.7377 -15.3752
      vertex -85 37.4039 -15.2668
      vertex -80.95 37.7377 -15.3752
    endloop
  endfacet
  facet normal 1.18977e-16 0.535826 0.844329
    outer loop
      vertex -85 37.1076 -15.0787
      vertex -80.95 37.1076 -15.0787
      vertex -80.95 37.4039 -15.2668
    endloop
  endfacet
  facet normal 1.18977e-16 0.535826 0.844329
    outer loop
      vertex -85 37.4039 -15.2668
      vertex -85 37.1076 -15.0787
      vertex -80.95 37.4039 -15.2668
    endloop
  endfacet
  facet normal 1.61864e-16 0.72897 0.684546
    outer loop
      vertex -80.95 36.8674 -14.8229
      vertex -80.95 37.1076 -15.0787
      vertex -85 36.8674 -14.8229
    endloop
  endfacet
  facet normal 1.61864e-16 0.72897 0.684546
    outer loop
      vertex -85 36.8674 -14.8229
      vertex -80.95 37.1076 -15.0787
      vertex -85 37.1076 -15.0787
    endloop
  endfacet
  facet normal 1.94579e-16 0.876307 0.481753
    outer loop
      vertex -80.95 36.6983 -14.5154
      vertex -80.95 36.8674 -14.8229
      vertex -85 36.6983 -14.5154
    endloop
  endfacet
  facet normal 1.94579e-16 0.876307 0.481753
    outer loop
      vertex -85 36.6983 -14.5154
      vertex -80.95 36.8674 -14.8229
      vertex -85 36.8674 -14.8229
    endloop
  endfacet
  facet normal 2.15069e-16 0.968583 0.248692
    outer loop
      vertex -80.95 36.611 -14.1755
      vertex -80.95 36.6983 -14.5154
      vertex -85 36.611 -14.1755
    endloop
  endfacet
  facet normal 2.15069e-16 0.968583 0.248692
    outer loop
      vertex -85 36.611 -14.1755
      vertex -80.95 36.6983 -14.5154
      vertex -85 36.6983 -14.5154
    endloop
  endfacet
  facet normal -0.728969 -0.684547 -3.04e-16
    outer loop
      vertex -69.6632 46 -4
      vertex -71.3262 47.771 -4
      vertex -69.6632 46 -24
    endloop
  endfacet
  facet normal -0.728969 -0.684547 -3.04e-16
    outer loop
      vertex -71.3262 47.771 -24
      vertex -68.9239 45.2128 -24
      vertex -69.6632 46 -24
    endloop
  endfacet
  facet normal -0.728969 -0.684547 -3.04e-16
    outer loop
      vertex -71.3262 47.771 -24
      vertex -69.6632 46 -24
      vertex -71.3262 47.771 -4
    endloop
  endfacet
  facet normal 0 -4.44089e-16 1
    outer loop
      vertex -73.8896 54.2453 -4
      vertex -73.0169 50.8463 -4
      vertex -71.3262 47.771 -4
    endloop
  endfacet
  facet normal 0 -4.44089e-16 1
    outer loop
      vertex -70.1127 48.6527 -4
      vertex -73.8896 54.2453 -4
      vertex -69.6632 46 -4
    endloop
  endfacet
  facet normal 0 -4.44089e-16 1
    outer loop
      vertex -69.6632 46 -4
      vertex -73.8896 54.2453 -4
      vertex -71.3262 47.771 -4
    endloop
  endfacet
  facet normal 0 -4.44089e-16 1
    outer loop
      vertex -67.387 46 -4
      vertex -67.9678 46.3686 -4
      vertex -69.6632 46 -4
    endloop
  endfacet
  facet normal 0 -4.44089e-16 1
    outer loop
      vertex -67.9678 46.3686 -4
      vertex -70.1127 48.6527 -4
      vertex -69.6632 46 -4
    endloop
  endfacet
  facet normal 0 -4.44089e-16 1
    outer loop
      vertex -72.4014 54.4333 -4
      vertex -73.8896 54.2453 -4
      vertex -71.6222 51.3984 -4
    endloop
  endfacet
  facet normal 0 -4.44089e-16 1
    outer loop
      vertex -72.4014 57.5667 -4
      vertex -73.8896 54.2453 -4
      vertex -72.4014 54.4333 -4
    endloop
  endfacet
  facet normal 0 -4.44089e-16 1
    outer loop
      vertex -71.6222 60.6016 -4
      vertex -73.8896 54.2453 -4
      vertex -72.4014 57.5667 -4
    endloop
  endfacet
  facet normal 0 -4.44089e-16 1
    outer loop
      vertex -71.3262 64.229 -4
      vertex -73.8896 54.2453 -4
      vertex -71.6222 60.6016 -4
    endloop
  endfacet
  facet normal 0 -4.44089e-16 1
    outer loop
      vertex -68.9239 66.7872 -4
      vertex -71.6222 60.6016 -4
      vertex -70.1127 63.3473 -4
    endloop
  endfacet
  facet normal 0 -4.44089e-16 1
    outer loop
      vertex -65.9609 68.6676 -4
      vertex -70.1127 63.3473 -4
      vertex -67.9678 65.6314 -4
    endloop
  endfacet
  facet normal 0 -4.44089e-16 1
    outer loop
      vertex -62.6233 69.752 -4
      vertex -67.9678 65.6314 -4
      vertex -65.3222 67.3103 -4
    endloop
  endfacet
  facet normal 0 -4.44089e-16 1
    outer loop
      vertex -59.1209 69.9724 -4
      vertex -65.3222 67.3103 -4
      vertex -62.3423 68.2786 -4
    endloop
  endfacet
  facet normal 0 -4.44089e-16 1
    outer loop
      vertex -55.6738 69.3148 -4
      vertex -62.3423 68.2786 -4
      vertex -59.2151 68.4753 -4
    endloop
  endfacet
  facet normal 0 -4.44089e-16 1
    outer loop
      vertex -52.4984 67.8206 -4
      vertex -59.2151 68.4753 -4
      vertex -56.1373 67.8882 -4
    endloop
  endfacet
  facet normal 0 -4.44089e-16 1
    outer loop
      vertex -49.7944 65.5837 -4
      vertex -56.1373 67.8882 -4
      vertex -53.3022 66.5541 -4
    endloop
  endfacet
  facet normal 0 -4.44089e-16 1
    outer loop
      vertex -47.7317 62.7446 -4
      vertex -53.3022 66.5541 -4
      vertex -50.8879 64.5568 -4
    endloop
  endfacet
  facet normal 0 -4.44089e-16 1
    outer loop
      vertex -46.4398 59.4817 -4
      vertex -50.8879 64.5568 -4
      vertex -49.0462 62.0219 -4
    endloop
  endfacet
  facet normal 0 -4.44089e-16 1
    outer loop
      vertex -46 56 -4
      vertex -49.0462 62.0219 -4
      vertex -47.8927 59.1086 -4
    endloop
  endfacet
  facet normal 0 -4.44089e-16 1
    outer loop
      vertex -46.4398 52.5183 -4
      vertex -47.8927 59.1086 -4
      vertex -47.5 56 -4
    endloop
  endfacet
  facet normal 0 -4.44089e-16 1
    outer loop
      vertex -47.7317 49.2554 -4
      vertex -47.5 56 -4
      vertex -47.8927 52.8914 -4
    endloop
  endfacet
  facet normal 0 -4.44089e-16 1
    outer loop
      vertex -50.2977 46 -4
      vertex -47.8927 52.8914 -4
      vertex -49.0462 49.9781 -4
    endloop
  endfacet
  facet normal 0 -4.44089e-16 1
    outer loop
      vertex -50.2977 46 -4
      vertex -49.0462 49.9781 -4
      vertex -50.8879 47.4432 -4
    endloop
  endfacet
  facet normal 0 -4.44089e-16 1
    outer loop
      vertex -50.2977 46 -4
      vertex -50.8879 47.4432 -4
      vertex -52.6324 46 -4
    endloop
  endfacet
  facet normal 0 -4.44089e-16 1
    outer loop
      vertex -49.7944 46.4163 -4
      vertex -47.8927 52.8914 -4
      vertex -50.2977 46 -4
    endloop
  endfacet
  facet normal 0 -4.44089e-16 1
    outer loop
      vertex -47.7317 49.2554 -4
      vertex -47.8927 52.8914 -4
      vertex -49.7944 46.4163 -4
    endloop
  endfacet
  facet normal 0 -4.44089e-16 1
    outer loop
      vertex -46.4398 52.5183 -4
      vertex -47.5 56 -4
      vertex -47.7317 49.2554 -4
    endloop
  endfacet
  facet normal 0 -4.44089e-16 1
    outer loop
      vertex -46 56 -4
      vertex -47.8927 59.1086 -4
      vertex -46.4398 52.5183 -4
    endloop
  endfacet
  facet normal 0 -4.44089e-16 1
    outer loop
      vertex -46.4398 59.4817 -4
      vertex -49.0462 62.0219 -4
      vertex -46 56 -4
    endloop
  endfacet
  facet normal 0 -4.44089e-16 1
    outer loop
      vertex -47.7317 62.7446 -4
      vertex -50.8879 64.5568 -4
      vertex -46.4398 59.4817 -4
    endloop
  endfacet
  facet normal 0 -4.44089e-16 1
    outer loop
      vertex -49.7944 65.5837 -4
      vertex -53.3022 66.5541 -4
      vertex -47.7317 62.7446 -4
    endloop
  endfacet
  facet normal 0 -4.44089e-16 1
    outer loop
      vertex -52.4984 67.8206 -4
      vertex -56.1373 67.8882 -4
      vertex -49.7944 65.5837 -4
    endloop
  endfacet
  facet normal 0 -4.44089e-16 1
    outer loop
      vertex -55.6738 69.3148 -4
      vertex -59.2151 68.4753 -4
      vertex -52.4984 67.8206 -4
    endloop
  endfacet
  facet normal 0 -4.44089e-16 1
    outer loop
      vertex -59.1209 69.9724 -4
      vertex -62.3423 68.2786 -4
      vertex -55.6738 69.3148 -4
    endloop
  endfacet
  facet normal 0 -4.44089e-16 1
    outer loop
      vertex -62.6233 69.752 -4
      vertex -65.3222 67.3103 -4
      vertex -59.1209 69.9724 -4
    endloop
  endfacet
  facet normal 0 -4.44089e-16 1
    outer loop
      vertex -65.9609 68.6676 -4
      vertex -67.9678 65.6314 -4
      vertex -62.6233 69.752 -4
    endloop
  endfacet
  facet normal 0 -4.44089e-16 1
    outer loop
      vertex -68.9239 66.7872 -4
      vertex -70.1127 63.3473 -4
      vertex -65.9609 68.6676 -4
    endloop
  endfacet
  facet normal 0 -4.44089e-16 1
    outer loop
      vertex -71.3262 64.229 -4
      vertex -71.6222 60.6016 -4
      vertex -68.9239 66.7872 -4
    endloop
  endfacet
  facet normal 0 -4.44089e-16 1
    outer loop
      vertex -73.0169 61.1537 -4
      vertex -73.8896 54.2453 -4
      vertex -71.3262 64.229 -4
    endloop
  endfacet
  facet normal 0 -4.44089e-16 1
    outer loop
      vertex -73.8896 57.7547 -4
      vertex -73.8896 54.2453 -4
      vertex -73.0169 61.1537 -4
    endloop
  endfacet
  facet normal 0 -4.44089e-16 1
    outer loop
      vertex -70.1127 48.6527 -4
      vertex -71.6222 51.3984 -4
      vertex -73.8896 54.2453 -4
    endloop
  endfacet
  facet normal 0.535827 0.844328 3.74957e-16
    outer loop
      vertex -65.3222 44.6897 -4
      vertex -65.3222 44.6897 -24
      vertex -67.387 46 -4
    endloop
  endfacet
  facet normal 0.535827 0.844328 3.74957e-16
    outer loop
      vertex -67.387 46 -4
      vertex -65.3222 44.6897 -24
      vertex -67.9678 46.3686 -4
    endloop
  endfacet
  facet normal 0.535827 0.844328 3.74957e-16
    outer loop
      vertex -67.9678 46.3686 -4
      vertex -65.3222 44.6897 -24
      vertex -67.9678 46.3686 -24
    endloop
  endfacet
  facet normal 0 4.44089e-16 -1
    outer loop
      vertex -52.6324 46 -4
      vertex -53.3022 45.4459 -4
      vertex -67.387 46 -4
    endloop
  endfacet
  facet normal 0 4.44089e-16 -1
    outer loop
      vertex -67.387 46 -4
      vertex -53.3022 45.4459 -4
      vertex -56.1373 44.1118 -4
    endloop
  endfacet
  facet normal 0 4.44089e-16 -1
    outer loop
      vertex -67.387 46 -4
      vertex -56.1373 44.1118 -4
      vertex -59.2151 43.5247 -4
    endloop
  endfacet
  facet normal 0 4.44089e-16 -1
    outer loop
      vertex -67.387 46 -4
      vertex -59.2151 43.5247 -4
      vertex -62.3423 43.7214 -4
    endloop
  endfacet
  facet normal 0 4.44089e-16 -1
    outer loop
      vertex -67.387 46 -4
      vertex -62.3423 43.7214 -4
      vertex -65.3222 44.6897 -4
    endloop
  endfacet
  facet normal -0.637424 0.770513 3.42177e-16
    outer loop
      vertex -50.8879 47.4432 -4
      vertex -50.8879 47.4432 -24
      vertex -52.6324 46 -4
    endloop
  endfacet
  facet normal -0.637424 0.770513 3.42177e-16
    outer loop
      vertex -52.6324 46 -4
      vertex -50.8879 47.4432 -24
      vertex -53.3022 45.4459 -4
    endloop
  endfacet
  facet normal -0.637424 0.770513 3.42177e-16
    outer loop
      vertex -53.3022 45.4459 -4
      vertex -50.8879 47.4432 -24
      vertex -53.3022 45.4459 -24
    endloop
  endfacet
  facet normal 0.637424 -0.770513 -3.42177e-16
    outer loop
      vertex -50.2977 46 -24
      vertex -52.4984 44.1794 -24
      vertex -49.7944 46.4163 -24
    endloop
  endfacet
  facet normal 0.637424 -0.770513 -3.42177e-16
    outer loop
      vertex -49.7944 46.4163 -4
      vertex -50.2977 46 -24
      vertex -49.7944 46.4163 -24
    endloop
  endfacet
  facet normal 0.637424 -0.770513 -3.42177e-16
    outer loop
      vertex -50.2977 46 -4
      vertex -50.2977 46 -24
      vertex -49.7944 46.4163 -4
    endloop
  endfacet
  facet normal 1 0 0
    outer loop
      vertex -35 37.7377 -15.3752
      vertex -35 34 -24
      vertex -35 46 -24
    endloop
  endfacet
  facet normal 1 0 0
    outer loop
      vertex -35 46 -4
      vertex -35 34 -4
      vertex -35 46 -24
    endloop
  endfacet
  facet normal 1 0 0
    outer loop
      vertex -35 34 -4
      vertex -35 34 -24
      vertex -35 36.611 -13.8245
    endloop
  endfacet
  facet normal 1 0 0
    outer loop
      vertex -35 38.0879 -15.3972
      vertex -35 37.7377 -15.3752
      vertex -35 46 -24
    endloop
  endfacet
  facet normal 1 0 0
    outer loop
      vertex -35 34 -4
      vertex -35 36.611 -13.8245
      vertex -35 36.6983 -13.4846
    endloop
  endfacet
  facet normal 1 0 0
    outer loop
      vertex -35 38.4326 -15.3315
      vertex -35 38.0879 -15.3972
      vertex -35 46 -24
    endloop
  endfacet
  facet normal 1 0 0
    outer loop
      vertex -35 34 -4
      vertex -35 36.6983 -13.4846
      vertex -35 36.8674 -13.1771
    endloop
  endfacet
  facet normal 1 0 0
    outer loop
      vertex -35 38.7502 -15.1821
      vertex -35 38.4326 -15.3315
      vertex -35 46 -24
    endloop
  endfacet
  facet normal 1 0 0
    outer loop
      vertex -35 34 -4
      vertex -35 36.8674 -13.1771
      vertex -35 37.1076 -12.9213
    endloop
  endfacet
  facet normal 1 0 0
    outer loop
      vertex -35 39.0206 -14.9584
      vertex -35 38.7502 -15.1821
      vertex -35 46 -24
    endloop
  endfacet
  facet normal 1 0 0
    outer loop
      vertex -35 34 -4
      vertex -35 37.1076 -12.9213
      vertex -35 37.4039 -12.7332
    endloop
  endfacet
  facet normal 1 0 0
    outer loop
      vertex -35 34 -4
      vertex -35 37.4039 -12.7332
      vertex -35 37.7377 -12.6248
    endloop
  endfacet
  facet normal 1 0 0
    outer loop
      vertex -35 34 -4
      vertex -35 37.7377 -12.6248
      vertex -35 38.0879 -12.6028
    endloop
  endfacet
  facet normal 1 0 0
    outer loop
      vertex -35 39.356 -14.3482
      vertex -35 39.2268 -14.6745
      vertex -35 46 -24
    endloop
  endfacet
  facet normal 1 0 0
    outer loop
      vertex -35 34 -4
      vertex -35 38.0879 -12.6028
      vertex -35 38.4326 -12.6685
    endloop
  endfacet
  facet normal 1 0 0
    outer loop
      vertex -35 39.4 -14
      vertex -35 39.356 -14.3482
      vertex -35 46 -24
    endloop
  endfacet
  facet normal 1 0 0
    outer loop
      vertex -35 34 -4
      vertex -35 38.4326 -12.6685
      vertex -35 38.7502 -12.8179
    endloop
  endfacet
  facet normal 1 0 0
    outer loop
      vertex -35 39.356 -13.6518
      vertex -35 39.4 -14
      vertex -35 46 -24
    endloop
  endfacet
  facet normal 1 0 0
    outer loop
      vertex -35 34 -4
      vertex -35 38.7502 -12.8179
      vertex -35 39.0206 -13.0416
    endloop
  endfacet
  facet normal 1 0 0
    outer loop
      vertex -35 34 -4
      vertex -35 39.2268 -13.3255
      vertex -35 46 -24
    endloop
  endfacet
  facet normal 1 0 0
    outer loop
      vertex -35 34 -4
      vertex -35 39.0206 -13.0416
      vertex -35 39.2268 -13.3255
    endloop
  endfacet
  facet normal 1 0 0
    outer loop
      vertex -35 37.4039 -15.2668
      vertex -35 34 -24
      vertex -35 37.7377 -15.3752
    endloop
  endfacet
  facet normal 1 0 0
    outer loop
      vertex -35 37.1076 -15.0787
      vertex -35 34 -24
      vertex -35 37.4039 -15.2668
    endloop
  endfacet
  facet normal 1 0 0
    outer loop
      vertex -35 36.8674 -14.8229
      vertex -35 34 -24
      vertex -35 37.1076 -15.0787
    endloop
  endfacet
  facet normal 1 0 0
    outer loop
      vertex -35 36.6983 -14.5154
      vertex -35 34 -24
      vertex -35 36.8674 -14.8229
    endloop
  endfacet
  facet normal 1 0 0
    outer loop
      vertex -35 36.611 -14.1755
      vertex -35 34 -24
      vertex -35 36.6983 -14.5154
    endloop
  endfacet
  facet normal 1 0 0
    outer loop
      vertex -35 36.611 -13.8245
      vertex -35 34 -24
      vertex -35 36.611 -14.1755
    endloop
  endfacet
  facet normal 1 0 0
    outer loop
      vertex -35 39.2268 -13.3255
      vertex -35 39.356 -13.6518
      vertex -35 46 -24
    endloop
  endfacet
  facet normal 1 0 0
    outer loop
      vertex -35 39.2268 -14.6745
      vertex -35 39.0206 -14.9584
      vertex -35 46 -24
    endloop
  endfacet
  facet normal 0 -1 -2.22045e-16
    outer loop
      vertex -39.05 34 -4
      vertex -39.05 34 -24
      vertex -35 34 -24
    endloop
  endfacet
  facet normal 0 -1 -2.22045e-16
    outer loop
      vertex -35 34 -4
      vertex -39.05 34 -4
      vertex -35 34 -24
    endloop
  endfacet
  facet normal -1 0 0
    outer loop
      vertex -39.05 36.6983 -14.5154
      vertex -39.05 41.5 -24
      vertex -39.05 34 -24
    endloop
  endfacet
  facet normal -1 0 0
    outer loop
      vertex -39.05 38.4326 -15.3315
      vertex -39.05 41.5 -24
      vertex -39.05 38.0879 -15.3972
    endloop
  endfacet
  facet normal -1 0 0
    outer loop
      vertex -39.05 34 -4
      vertex -39.05 36.611 -13.8245
      vertex -39.05 34 -24
    endloop
  endfacet
  facet normal -1 0 0
    outer loop
      vertex -39.05 37.4039 -15.2668
      vertex -39.05 41.5 -24
      vertex -39.05 37.1076 -15.0787
    endloop
  endfacet
  facet normal -1 0 0
    outer loop
      vertex -39.05 36.611 -13.8245
      vertex -39.05 36.611 -14.1755
      vertex -39.05 34 -24
    endloop
  endfacet
  facet normal -1 0 0
    outer loop
      vertex -39.05 36.8674 -14.8229
      vertex -39.05 41.5 -24
      vertex -39.05 36.6983 -14.5154
    endloop
  endfacet
  facet normal -1 0 0
    outer loop
      vertex -39.05 36.611 -14.1755
      vertex -39.05 36.6983 -14.5154
      vertex -39.05 34 -24
    endloop
  endfacet
  facet normal -1 0 0
    outer loop
      vertex -39.05 37.7377 -15.3752
      vertex -39.05 41.5 -24
      vertex -39.05 37.4039 -15.2668
    endloop
  endfacet
  facet normal -1 0 0
    outer loop
      vertex -39.05 38.0879 -15.3972
      vertex -39.05 41.5 -24
      vertex -39.05 37.7377 -15.3752
    endloop
  endfacet
  facet normal -1 0 0
    outer loop
      vertex -39.05 38.7502 -15.1821
      vertex -39.05 41.5 -24
      vertex -39.05 38.4326 -15.3315
    endloop
  endfacet
  facet normal -1 0 0
    outer loop
      vertex -39.05 39.0206 -14.9584
      vertex -39.05 41.5 -24
      vertex -39.05 38.7502 -15.1821
    endloop
  endfacet
  facet normal -1 0 0
    outer loop
      vertex -39.05 39.2268 -14.6745
      vertex -39.05 41.5 -24
      vertex -39.05 39.0206 -14.9584
    endloop
  endfacet
  facet normal -1 0 0
    outer loop
      vertex -39.05 39.356 -14.3482
      vertex -39.05 41.5 -24
      vertex -39.05 39.2268 -14.6745
    endloop
  endfacet
  facet normal -1 0 0
    outer loop
      vertex -39.05 41.5 -4
      vertex -39.05 41.5 -24
      vertex -39.05 39.356 -14.3482
    endloop
  endfacet
  facet normal -1 0 0
    outer loop
      vertex -39.05 41.5 -4
      vertex -39.05 39.356 -14.3482
      vertex -39.05 39.4 -14
    endloop
  endfacet
  facet normal -1 0 0
    outer loop
      vertex -39.05 39.2268 -13.3255
      vertex -39.05 41.5 -4
      vertex -39.05 39.356 -13.6518
    endloop
  endfacet
  facet normal -1 0 0
    outer loop
      vertex -39.05 39.0206 -13.0416
      vertex -39.05 41.5 -4
      vertex -39.05 39.2268 -13.3255
    endloop
  endfacet
  facet normal -1 0 0
    outer loop
      vertex -39.05 37.4039 -12.7332
      vertex -39.05 34 -4
      vertex -39.05 37.7377 -12.6248
    endloop
  endfacet
  facet normal -1 0 0
    outer loop
      vertex -39.05 41.5 -4
      vertex -39.05 39.0206 -13.0416
      vertex -39.05 34 -4
    endloop
  endfacet
  facet normal -1 0 0
    outer loop
      vertex -39.05 39.0206 -13.0416
      vertex -39.05 38.7502 -12.8179
      vertex -39.05 34 -4
    endloop
  endfacet
  facet normal -1 0 0
    outer loop
      vertex -39.05 38.7502 -12.8179
      vertex -39.05 38.4326 -12.6685
      vertex -39.05 34 -4
    endloop
  endfacet
  facet normal -1 0 0
    outer loop
      vertex -39.05 38.4326 -12.6685
      vertex -39.05 38.0879 -12.6028
      vertex -39.05 34 -4
    endloop
  endfacet
  facet normal -1 0 0
    outer loop
      vertex -39.05 38.0879 -12.6028
      vertex -39.05 37.7377 -12.6248
      vertex -39.05 34 -4
    endloop
  endfacet
  facet normal -1 0 0
    outer loop
      vertex -39.05 39.356 -13.6518
      vertex -39.05 41.5 -4
      vertex -39.05 39.4 -14
    endloop
  endfacet
  facet normal -1 0 0
    outer loop
      vertex -39.05 37.1076 -12.9213
      vertex -39.05 34 -4
      vertex -39.05 37.4039 -12.7332
    endloop
  endfacet
  facet normal -1 0 0
    outer loop
      vertex -39.05 36.8674 -13.1771
      vertex -39.05 34 -4
      vertex -39.05 37.1076 -12.9213
    endloop
  endfacet
  facet normal -1 0 0
    outer loop
      vertex -39.05 36.6983 -13.4846
      vertex -39.05 34 -4
      vertex -39.05 36.8674 -13.1771
    endloop
  endfacet
  facet normal -1 0 0
    outer loop
      vertex -39.05 34 -4
      vertex -39.05 36.6983 -13.4846
      vertex -39.05 36.611 -13.8245
    endloop
  endfacet
  facet normal -1 0 0
    outer loop
      vertex -39.05 37.1076 -15.0787
      vertex -39.05 41.5 -24
      vertex -39.05 36.8674 -14.8229
    endloop
  endfacet
  facet normal 0 -1 -2.22045e-16
    outer loop
      vertex -80.95 41.5 -4
      vertex -80.95 41.5 -24
      vertex -39.05 41.5 -24
    endloop
  endfacet
  facet normal 0 -1 -2.22045e-16
    outer loop
      vertex -39.05 41.5 -4
      vertex -80.95 41.5 -4
      vertex -39.05 41.5 -24
    endloop
  endfacet
  facet normal 1 0 0
    outer loop
      vertex -80.95 37.1076 -15.0787
      vertex -80.95 34 -24
      vertex -80.95 41.5 -24
    endloop
  endfacet
  facet normal 1 0 0
    outer loop
      vertex -80.95 34 -4
      vertex -80.95 34 -24
      vertex -80.95 36.611 -13.8245
    endloop
  endfacet
  facet normal 1 0 0
    outer loop
      vertex -80.95 37.4039 -15.2668
      vertex -80.95 37.1076 -15.0787
      vertex -80.95 41.5 -24
    endloop
  endfacet
  facet normal 1 0 0
    outer loop
      vertex -80.95 34 -4
      vertex -80.95 36.611 -13.8245
      vertex -80.95 36.6983 -13.4846
    endloop
  endfacet
  facet normal 1 0 0
    outer loop
      vertex -80.95 37.7377 -15.3752
      vertex -80.95 37.4039 -15.2668
      vertex -80.95 41.5 -24
    endloop
  endfacet
  facet normal 1 0 0
    outer loop
      vertex -80.95 34 -4
      vertex -80.95 36.6983 -13.4846
      vertex -80.95 36.8674 -13.1771
    endloop
  endfacet
  facet normal 1 0 0
    outer loop
      vertex -80.95 39.4 -14
      vertex -80.95 39.356 -14.3482
      vertex -80.95 41.5 -24
    endloop
  endfacet
  facet normal 1 0 0
    outer loop
      vertex -80.95 34 -4
      vertex -80.95 36.8674 -13.1771
      vertex -80.95 37.1076 -12.9213
    endloop
  endfacet
  facet normal 1 0 0
    outer loop
      vertex -80.95 41.5 -4
      vertex -80.95 34 -4
      vertex -80.95 37.4039 -12.7332
    endloop
  endfacet
  facet normal 1 0 0
    outer loop
      vertex -80.95 41.5 -4
      vertex -80.95 37.4039 -12.7332
      vertex -80.95 37.7377 -12.6248
    endloop
  endfacet
  facet normal 1 0 0
    outer loop
      vertex -80.95 38.7502 -15.1821
      vertex -80.95 38.4326 -15.3315
      vertex -80.95 41.5 -24
    endloop
  endfacet
  facet normal 1 0 0
    outer loop
      vertex -80.95 41.5 -4
      vertex -80.95 37.7377 -12.6248
      vertex -80.95 38.0879 -12.6028
    endloop
  endfacet
  facet normal 1 0 0
    outer loop
      vertex -80.95 39.0206 -14.9584
      vertex -80.95 38.7502 -15.1821
      vertex -80.95 41.5 -24
    endloop
  endfacet
  facet normal 1 0 0
    outer loop
      vertex -80.95 41.5 -4
      vertex -80.95 38.0879 -12.6028
      vertex -80.95 38.4326 -12.6685
    endloop
  endfacet
  facet normal 1 0 0
    outer loop
      vertex -80.95 38.4326 -15.3315
      vertex -80.95 38.0879 -15.3972
      vertex -80.95 41.5 -24
    endloop
  endfacet
  facet normal 1 0 0
    outer loop
      vertex -80.95 41.5 -4
      vertex -80.95 38.4326 -12.6685
      vertex -80.95 38.7502 -12.8179
    endloop
  endfacet
  facet normal 1 0 0
    outer loop
      vertex -80.95 41.5 -4
      vertex -80.95 38.7502 -12.8179
      vertex -80.95 39.0206 -13.0416
    endloop
  endfacet
  facet normal 1 0 0
    outer loop
      vertex -80.95 39.356 -14.3482
      vertex -80.95 39.2268 -14.6745
      vertex -80.95 41.5 -24
    endloop
  endfacet
  facet normal 1 0 0
    outer loop
      vertex -80.95 41.5 -4
      vertex -80.95 39.0206 -13.0416
      vertex -80.95 39.2268 -13.3255
    endloop
  endfacet
  facet normal 1 0 0
    outer loop
      vertex -80.95 41.5 -4
      vertex -80.95 39.356 -13.6518
      vertex -80.95 41.5 -24
    endloop
  endfacet
  facet normal 1 0 0
    outer loop
      vertex -80.95 41.5 -4
      vertex -80.95 39.2268 -13.3255
      vertex -80.95 39.356 -13.6518
    endloop
  endfacet
  facet normal 1 0 0
    outer loop
      vertex -80.95 39.356 -13.6518
      vertex -80.95 39.4 -14
      vertex -80.95 41.5 -24
    endloop
  endfacet
  facet normal 1 0 0
    outer loop
      vertex -80.95 36.8674 -14.8229
      vertex -80.95 34 -24
      vertex -80.95 37.1076 -15.0787
    endloop
  endfacet
  facet normal 1 0 0
    outer loop
      vertex -80.95 36.6983 -14.5154
      vertex -80.95 34 -24
      vertex -80.95 36.8674 -14.8229
    endloop
  endfacet
  facet normal 1 0 0
    outer loop
      vertex -80.95 36.611 -14.1755
      vertex -80.95 34 -24
      vertex -80.95 36.6983 -14.5154
    endloop
  endfacet
  facet normal 1 0 0
    outer loop
      vertex -80.95 36.611 -13.8245
      vertex -80.95 34 -24
      vertex -80.95 36.611 -14.1755
    endloop
  endfacet
  facet normal 1 0 0
    outer loop
      vertex -80.95 38.0879 -15.3972
      vertex -80.95 37.7377 -15.3752
      vertex -80.95 41.5 -24
    endloop
  endfacet
  facet normal 1 0 0
    outer loop
      vertex -80.95 37.1076 -12.9213
      vertex -80.95 37.4039 -12.7332
      vertex -80.95 34 -4
    endloop
  endfacet
  facet normal 1 0 0
    outer loop
      vertex -80.95 39.2268 -14.6745
      vertex -80.95 39.0206 -14.9584
      vertex -80.95 41.5 -24
    endloop
  endfacet
  facet normal -0.876307 -0.481754 -2.13942e-16
    outer loop
      vertex -73.0169 50.8463 -24
      vertex -71.3262 47.771 -24
      vertex -73.0169 50.8463 -4
    endloop
  endfacet
  facet normal -0.876307 -0.481754 -2.13942e-16
    outer loop
      vertex -73.0169 50.8463 -4
      vertex -71.3262 47.771 -24
      vertex -71.3262 47.771 -4
    endloop
  endfacet
  facet normal 0 4.44089e-16 -1
    outer loop
      vertex -73.8896 57.7547 -24
      vertex -73.0169 61.1537 -24
      vertex -73.8896 54.2453 -24
    endloop
  endfacet
  facet normal 0 4.44089e-16 -1
    outer loop
      vertex -73.8896 54.2453 -24
      vertex -73.0169 61.1537 -24
      vertex -71.3262 64.229 -24
    endloop
  endfacet
  facet normal 0 4.44089e-16 -1
    outer loop
      vertex -71.6222 60.6016 -24
      vertex -71.3262 64.229 -24
      vertex -68.9239 66.7872 -24
    endloop
  endfacet
  facet normal 0 4.44089e-16 -1
    outer loop
      vertex -67.9678 65.6314 -24
      vertex -68.9239 66.7872 -24
      vertex -65.9609 68.6676 -24
    endloop
  endfacet
  facet normal 0 4.44089e-16 -1
    outer loop
      vertex -65.3222 67.3103 -24
      vertex -65.9609 68.6676 -24
      vertex -62.6233 69.752 -24
    endloop
  endfacet
  facet normal 0 4.44089e-16 -1
    outer loop
      vertex -62.3423 68.2786 -24
      vertex -62.6233 69.752 -24
      vertex -59.1209 69.9724 -24
    endloop
  endfacet
  facet normal 0 4.44089e-16 -1
    outer loop
      vertex -59.2151 68.4753 -24
      vertex -59.1209 69.9724 -24
      vertex -55.6738 69.3148 -24
    endloop
  endfacet
  facet normal 0 4.44089e-16 -1
    outer loop
      vertex -56.1373 67.8882 -24
      vertex -55.6738 69.3148 -24
      vertex -52.4984 67.8206 -24
    endloop
  endfacet
  facet normal 0 4.44089e-16 -1
    outer loop
      vertex -53.3022 66.5541 -24
      vertex -52.4984 67.8206 -24
      vertex -49.7944 65.5837 -24
    endloop
  endfacet
  facet normal 0 4.44089e-16 -1
    outer loop
      vertex -50.8879 64.5568 -24
      vertex -49.7944 65.5837 -24
      vertex -47.7317 62.7446 -24
    endloop
  endfacet
  facet normal 0 4.44089e-16 -1
    outer loop
      vertex -49.0462 62.0219 -24
      vertex -47.7317 62.7446 -24
      vertex -46.4398 59.4817 -24
    endloop
  endfacet
  facet normal 0 4.44089e-16 -1
    outer loop
      vertex -47.5 56 -24
      vertex -46.4398 59.4817 -24
      vertex -46 56 -24
    endloop
  endfacet
  facet normal 0 4.44089e-16 -1
    outer loop
      vertex -47.8927 52.8914 -24
      vertex -46 56 -24
      vertex -46.4398 52.5183 -24
    endloop
  endfacet
  facet normal 0 4.44089e-16 -1
    outer loop
      vertex -49.0462 49.9781 -24
      vertex -46.4398 52.5183 -24
      vertex -47.7317 49.2554 -24
    endloop
  endfacet
  facet normal 0 4.44089e-16 -1
    outer loop
      vertex -50.8879 47.4432 -24
      vertex -47.7317 49.2554 -24
      vertex -49.7944 46.4163 -24
    endloop
  endfacet
  facet normal 0 4.44089e-16 -1
    outer loop
      vertex -53.3022 45.4459 -24
      vertex -49.7944 46.4163 -24
      vertex -52.4984 44.1794 -24
    endloop
  endfacet
  facet normal 0 4.44089e-16 -1
    outer loop
      vertex -56.1373 44.1118 -24
      vertex -52.4984 44.1794 -24
      vertex -55.6738 42.6852 -24
    endloop
  endfacet
  facet normal 0 4.44089e-16 -1
    outer loop
      vertex -59.2151 43.5247 -24
      vertex -55.6738 42.6852 -24
      vertex -59.1209 42.0276 -24
    endloop
  endfacet
  facet normal 0 4.44089e-16 -1
    outer loop
      vertex -62.3423 43.7214 -24
      vertex -59.1209 42.0276 -24
      vertex -62.6233 42.248 -24
    endloop
  endfacet
  facet normal 0 4.44089e-16 -1
    outer loop
      vertex -67.9678 46.3686 -24
      vertex -62.6233 42.248 -24
      vertex -65.9609 43.3324 -24
    endloop
  endfacet
  facet normal 0 4.44089e-16 -1
    outer loop
      vertex -70.1127 48.6527 -24
      vertex -65.9609 43.3324 -24
      vertex -68.9239 45.2128 -24
    endloop
  endfacet
  facet normal 0 4.44089e-16 -1
    outer loop
      vertex -73.8896 54.2453 -24
      vertex -68.9239 45.2128 -24
      vertex -71.3262 47.771 -24
    endloop
  endfacet
  facet normal 0 4.44089e-16 -1
    outer loop
      vertex -73.8896 54.2453 -24
      vertex -71.3262 47.771 -24
      vertex -73.0169 50.8463 -24
    endloop
  endfacet
  facet normal 0 4.44089e-16 -1
    outer loop
      vertex -71.6222 51.3984 -24
      vertex -73.8896 54.2453 -24
      vertex -72.4014 54.4333 -24
    endloop
  endfacet
  facet normal 0 4.44089e-16 -1
    outer loop
      vertex -70.1127 48.6527 -24
      vertex -73.8896 54.2453 -24
      vertex -71.6222 51.3984 -24
    endloop
  endfacet
  facet normal 0 4.44089e-16 -1
    outer loop
      vertex -67.9678 46.3686 -24
      vertex -65.9609 43.3324 -24
      vertex -70.1127 48.6527 -24
    endloop
  endfacet
  facet normal 0 4.44089e-16 -1
    outer loop
      vertex -73.8896 54.2453 -24
      vertex -70.1127 48.6527 -24
      vertex -68.9239 45.2128 -24
    endloop
  endfacet
  facet normal 0 4.44089e-16 -1
    outer loop
      vertex -65.3222 44.6897 -24
      vertex -62.6233 42.248 -24
      vertex -67.9678 46.3686 -24
    endloop
  endfacet
  facet normal 0 4.44089e-16 -1
    outer loop
      vertex -62.3423 43.7214 -24
      vertex -62.6233 42.248 -24
      vertex -65.3222 44.6897 -24
    endloop
  endfacet
  facet normal 0 4.44089e-16 -1
    outer loop
      vertex -47.8927 59.1086 -24
      vertex -46.4398 59.4817 -24
      vertex -47.5 56 -24
    endloop
  endfacet
  facet normal 0 4.44089e-16 -1
    outer loop
      vertex -49.0462 62.0219 -24
      vertex -46.4398 59.4817 -24
      vertex -47.8927 59.1086 -24
    endloop
  endfacet
  facet normal 0 4.44089e-16 -1
    outer loop
      vertex -47.5 56 -24
      vertex -46 56 -24
      vertex -47.8927 52.8914 -24
    endloop
  endfacet
  facet normal 0 4.44089e-16 -1
    outer loop
      vertex -47.8927 52.8914 -24
      vertex -46.4398 52.5183 -24
      vertex -49.0462 49.9781 -24
    endloop
  endfacet
  facet normal 0 4.44089e-16 -1
    outer loop
      vertex -49.0462 49.9781 -24
      vertex -47.7317 49.2554 -24
      vertex -50.8879 47.4432 -24
    endloop
  endfacet
  facet normal 0 4.44089e-16 -1
    outer loop
      vertex -50.8879 47.4432 -24
      vertex -49.7944 46.4163 -24
      vertex -53.3022 45.4459 -24
    endloop
  endfacet
  facet normal 0 4.44089e-16 -1
    outer loop
      vertex -53.3022 45.4459 -24
      vertex -52.4984 44.1794 -24
      vertex -56.1373 44.1118 -24
    endloop
  endfacet
  facet normal 0 4.44089e-16 -1
    outer loop
      vertex -56.1373 44.1118 -24
      vertex -55.6738 42.6852 -24
      vertex -59.2151 43.5247 -24
    endloop
  endfacet
  facet normal 0 4.44089e-16 -1
    outer loop
      vertex -59.2151 43.5247 -24
      vertex -59.1209 42.0276 -24
      vertex -62.3423 43.7214 -24
    endloop
  endfacet
  facet normal 0 4.44089e-16 -1
    outer loop
      vertex -70.1127 63.3473 -24
      vertex -68.9239 66.7872 -24
      vertex -67.9678 65.6314 -24
    endloop
  endfacet
  facet normal 0 4.44089e-16 -1
    outer loop
      vertex -73.8896 54.2453 -24
      vertex -71.3262 64.229 -24
      vertex -71.6222 60.6016 -24
    endloop
  endfacet
  facet normal 0 4.44089e-16 -1
    outer loop
      vertex -72.4014 57.5667 -24
      vertex -73.8896 54.2453 -24
      vertex -71.6222 60.6016 -24
    endloop
  endfacet
  facet normal 0 4.44089e-16 -1
    outer loop
      vertex -72.4014 54.4333 -24
      vertex -73.8896 54.2453 -24
      vertex -72.4014 57.5667 -24
    endloop
  endfacet
  facet normal 0 4.44089e-16 -1
    outer loop
      vertex -71.6222 60.6016 -24
      vertex -68.9239 66.7872 -24
      vertex -70.1127 63.3473 -24
    endloop
  endfacet
  facet normal 0 4.44089e-16 -1
    outer loop
      vertex -67.9678 65.6314 -24
      vertex -65.9609 68.6676 -24
      vertex -65.3222 67.3103 -24
    endloop
  endfacet
  facet normal 0 4.44089e-16 -1
    outer loop
      vertex -65.3222 67.3103 -24
      vertex -62.6233 69.752 -24
      vertex -62.3423 68.2786 -24
    endloop
  endfacet
  facet normal 0 4.44089e-16 -1
    outer loop
      vertex -62.3423 68.2786 -24
      vertex -59.1209 69.9724 -24
      vertex -59.2151 68.4753 -24
    endloop
  endfacet
  facet normal 0 4.44089e-16 -1
    outer loop
      vertex -59.2151 68.4753 -24
      vertex -55.6738 69.3148 -24
      vertex -56.1373 67.8882 -24
    endloop
  endfacet
  facet normal 0 4.44089e-16 -1
    outer loop
      vertex -56.1373 67.8882 -24
      vertex -52.4984 67.8206 -24
      vertex -53.3022 66.5541 -24
    endloop
  endfacet
  facet normal 0 4.44089e-16 -1
    outer loop
      vertex -53.3022 66.5541 -24
      vertex -49.7944 65.5837 -24
      vertex -50.8879 64.5568 -24
    endloop
  endfacet
  facet normal 0 4.44089e-16 -1
    outer loop
      vertex -50.8879 64.5568 -24
      vertex -47.7317 62.7446 -24
      vertex -49.0462 62.0219 -24
    endloop
  endfacet
  facet normal -0.968583 -0.24869 -1.1044e-16
    outer loop
      vertex -73.8896 54.2453 -24
      vertex -73.0169 50.8463 -24
      vertex -73.8896 54.2453 -4
    endloop
  endfacet
  facet normal -0.968583 -0.24869 -1.1044e-16
    outer loop
      vertex -73.8896 54.2453 -4
      vertex -73.0169 50.8463 -24
      vertex -73.0169 50.8463 -4
    endloop
  endfacet
  facet normal -1 0 0
    outer loop
      vertex -73.8896 57.7547 -4
      vertex -73.8896 57.7547 -24
      vertex -73.8896 54.2453 -4
    endloop
  endfacet
  facet normal -1 0 0
    outer loop
      vertex -73.8896 54.2453 -4
      vertex -73.8896 57.7547 -24
      vertex -73.8896 54.2453 -24
    endloop
  endfacet
  facet normal -0.968583 0.24869 1.1044e-16
    outer loop
      vertex -73.0169 61.1537 -4
      vertex -73.0169 61.1537 -24
      vertex -73.8896 57.7547 -4
    endloop
  endfacet
  facet normal -0.968583 0.24869 1.1044e-16
    outer loop
      vertex -73.8896 57.7547 -4
      vertex -73.0169 61.1537 -24
      vertex -73.8896 57.7547 -24
    endloop
  endfacet
  facet normal -0.876307 0.481754 2.13942e-16
    outer loop
      vertex -71.3262 64.229 -4
      vertex -71.3262 64.229 -24
      vertex -73.0169 61.1537 -4
    endloop
  endfacet
  facet normal -0.876307 0.481754 2.13942e-16
    outer loop
      vertex -73.0169 61.1537 -4
      vertex -71.3262 64.229 -24
      vertex -73.0169 61.1537 -24
    endloop
  endfacet
  facet normal -0.728969 0.684547 3.04e-16
    outer loop
      vertex -68.9239 66.7872 -4
      vertex -68.9239 66.7872 -24
      vertex -71.3262 64.229 -4
    endloop
  endfacet
  facet normal -0.728969 0.684547 3.04e-16
    outer loop
      vertex -71.3262 64.229 -4
      vertex -68.9239 66.7872 -24
      vertex -71.3262 64.229 -24
    endloop
  endfacet
  facet normal -0.535827 0.844328 3.74957e-16
    outer loop
      vertex -65.9609 68.6676 -4
      vertex -65.9609 68.6676 -24
      vertex -68.9239 66.7872 -4
    endloop
  endfacet
  facet normal -0.535827 0.844328 3.74957e-16
    outer loop
      vertex -68.9239 66.7872 -4
      vertex -65.9609 68.6676 -24
      vertex -68.9239 66.7872 -24
    endloop
  endfacet
  facet normal -0.309017 0.951057 4.22354e-16
    outer loop
      vertex -62.6233 69.752 -4
      vertex -62.6233 69.752 -24
      vertex -65.9609 68.6676 -4
    endloop
  endfacet
  facet normal -0.309017 0.951057 4.22354e-16
    outer loop
      vertex -65.9609 68.6676 -4
      vertex -62.6233 69.752 -24
      vertex -65.9609 68.6676 -24
    endloop
  endfacet
  facet normal -0.0627903 0.998027 4.43213e-16
    outer loop
      vertex -59.1209 69.9724 -4
      vertex -59.1209 69.9724 -24
      vertex -62.6233 69.752 -4
    endloop
  endfacet
  facet normal -0.0627903 0.998027 4.43213e-16
    outer loop
      vertex -62.6233 69.752 -4
      vertex -59.1209 69.9724 -24
      vertex -62.6233 69.752 -24
    endloop
  endfacet
  facet normal 0.187381 0.982287 4.36223e-16
    outer loop
      vertex -55.6738 69.3148 -4
      vertex -55.6738 69.3148 -24
      vertex -59.1209 69.9724 -4
    endloop
  endfacet
  facet normal 0.187381 0.982287 4.36223e-16
    outer loop
      vertex -59.1209 69.9724 -4
      vertex -55.6738 69.3148 -24
      vertex -59.1209 69.9724 -24
    endloop
  endfacet
  facet normal 0.425779 0.904827 4.01824e-16
    outer loop
      vertex -52.4984 67.8206 -4
      vertex -52.4984 67.8206 -24
      vertex -55.6738 69.3148 -4
    endloop
  endfacet
  facet normal 0.425779 0.904827 4.01824e-16
    outer loop
      vertex -55.6738 69.3148 -4
      vertex -52.4984 67.8206 -24
      vertex -55.6738 69.3148 -24
    endloop
  endfacet
  facet normal 0.637424 0.770513 3.42177e-16
    outer loop
      vertex -49.7944 65.5837 -4
      vertex -49.7944 65.5837 -24
      vertex -52.4984 67.8206 -4
    endloop
  endfacet
  facet normal 0.637424 0.770513 3.42177e-16
    outer loop
      vertex -52.4984 67.8206 -4
      vertex -49.7944 65.5837 -24
      vertex -52.4984 67.8206 -24
    endloop
  endfacet
  facet normal 0.809017 0.587785 2.61029e-16
    outer loop
      vertex -49.7944 65.5837 -4
      vertex -47.7317 62.7446 -4
      vertex -47.7317 62.7446 -24
    endloop
  endfacet
  facet normal 0.809017 0.587785 2.61029e-16
    outer loop
      vertex -49.7944 65.5837 -24
      vertex -49.7944 65.5837 -4
      vertex -47.7317 62.7446 -24
    endloop
  endfacet
  facet normal 0.929777 0.368124 1.6348e-16
    outer loop
      vertex -47.7317 62.7446 -4
      vertex -46.4398 59.4817 -4
      vertex -46.4398 59.4817 -24
    endloop
  endfacet
  facet normal 0.929777 0.368124 1.6348e-16
    outer loop
      vertex -47.7317 62.7446 -24
      vertex -47.7317 62.7446 -4
      vertex -46.4398 59.4817 -24
    endloop
  endfacet
  facet normal 0.992115 0.125333 5.56592e-17
    outer loop
      vertex -46.4398 59.4817 -4
      vertex -46 56 -4
      vertex -46 56 -24
    endloop
  endfacet
  facet normal 0.992115 0.125333 5.56592e-17
    outer loop
      vertex -46.4398 59.4817 -24
      vertex -46.4398 59.4817 -4
      vertex -46 56 -24
    endloop
  endfacet
  facet normal 0.992115 -0.125333 -5.56592e-17
    outer loop
      vertex -46.4398 52.5183 -4
      vertex -46.4398 52.5183 -24
      vertex -46 56 -24
    endloop
  endfacet
  facet normal 0.992115 -0.125333 -5.56592e-17
    outer loop
      vertex -46 56 -4
      vertex -46.4398 52.5183 -4
      vertex -46 56 -24
    endloop
  endfacet
  facet normal 0.929777 -0.368124 -1.6348e-16
    outer loop
      vertex -47.7317 49.2554 -4
      vertex -47.7317 49.2554 -24
      vertex -46.4398 52.5183 -24
    endloop
  endfacet
  facet normal 0.929777 -0.368124 -1.6348e-16
    outer loop
      vertex -46.4398 52.5183 -4
      vertex -47.7317 49.2554 -4
      vertex -46.4398 52.5183 -24
    endloop
  endfacet
  facet normal 0.809017 -0.587785 -2.61029e-16
    outer loop
      vertex -49.7944 46.4163 -4
      vertex -49.7944 46.4163 -24
      vertex -47.7317 49.2554 -24
    endloop
  endfacet
  facet normal 0.809017 -0.587785 -2.61029e-16
    outer loop
      vertex -47.7317 49.2554 -4
      vertex -49.7944 46.4163 -4
      vertex -47.7317 49.2554 -24
    endloop
  endfacet
  facet normal -0.809017 0.587785 2.61029e-16
    outer loop
      vertex -49.0462 49.9781 -4
      vertex -49.0462 49.9781 -24
      vertex -50.8879 47.4432 -4
    endloop
  endfacet
  facet normal -0.809017 0.587785 2.61029e-16
    outer loop
      vertex -50.8879 47.4432 -4
      vertex -49.0462 49.9781 -24
      vertex -50.8879 47.4432 -24
    endloop
  endfacet
  facet normal -0.929776 0.368125 1.6348e-16
    outer loop
      vertex -47.8927 52.8914 -4
      vertex -47.8927 52.8914 -24
      vertex -49.0462 49.9781 -4
    endloop
  endfacet
  facet normal -0.929776 0.368125 1.6348e-16
    outer loop
      vertex -49.0462 49.9781 -4
      vertex -47.8927 52.8914 -24
      vertex -49.0462 49.9781 -24
    endloop
  endfacet
  facet normal -0.992115 0.125333 5.56591e-17
    outer loop
      vertex -47.5 56 -4
      vertex -47.5 56 -24
      vertex -47.8927 52.8914 -4
    endloop
  endfacet
  facet normal -0.992115 0.125333 5.56591e-17
    outer loop
      vertex -47.8927 52.8914 -4
      vertex -47.5 56 -24
      vertex -47.8927 52.8914 -24
    endloop
  endfacet
  facet normal -0.992115 -0.125333 -5.56591e-17
    outer loop
      vertex -47.8927 59.1086 -24
      vertex -47.5 56 -24
      vertex -47.8927 59.1086 -4
    endloop
  endfacet
  facet normal -0.992115 -0.125333 -5.56591e-17
    outer loop
      vertex -47.8927 59.1086 -4
      vertex -47.5 56 -24
      vertex -47.5 56 -4
    endloop
  endfacet
  facet normal -0.929776 -0.368125 -1.6348e-16
    outer loop
      vertex -49.0462 62.0219 -24
      vertex -47.8927 59.1086 -24
      vertex -49.0462 62.0219 -4
    endloop
  endfacet
  facet normal -0.929776 -0.368125 -1.6348e-16
    outer loop
      vertex -49.0462 62.0219 -4
      vertex -47.8927 59.1086 -24
      vertex -47.8927 59.1086 -4
    endloop
  endfacet
  facet normal -0.809017 -0.587785 -2.61029e-16
    outer loop
      vertex -50.8879 64.5568 -24
      vertex -49.0462 62.0219 -24
      vertex -50.8879 64.5568 -4
    endloop
  endfacet
  facet normal -0.809017 -0.587785 -2.61029e-16
    outer loop
      vertex -50.8879 64.5568 -4
      vertex -49.0462 62.0219 -24
      vertex -49.0462 62.0219 -4
    endloop
  endfacet
  facet normal -0.637424 -0.770513 -3.42177e-16
    outer loop
      vertex -53.3022 66.5541 -4
      vertex -53.3022 66.5541 -24
      vertex -50.8879 64.5568 -24
    endloop
  endfacet
  facet normal -0.637424 -0.770513 -3.42177e-16
    outer loop
      vertex -50.8879 64.5568 -4
      vertex -53.3022 66.5541 -4
      vertex -50.8879 64.5568 -24
    endloop
  endfacet
  facet normal -0.425779 -0.904827 -4.01824e-16
    outer loop
      vertex -56.1373 67.8882 -4
      vertex -56.1373 67.8882 -24
      vertex -53.3022 66.5541 -24
    endloop
  endfacet
  facet normal -0.425779 -0.904827 -4.01824e-16
    outer loop
      vertex -53.3022 66.5541 -4
      vertex -56.1373 67.8882 -4
      vertex -53.3022 66.5541 -24
    endloop
  endfacet
  facet normal -0.187381 -0.982287 -4.36223e-16
    outer loop
      vertex -59.2151 68.4753 -4
      vertex -59.2151 68.4753 -24
      vertex -56.1373 67.8882 -24
    endloop
  endfacet
  facet normal -0.187381 -0.982287 -4.36223e-16
    outer loop
      vertex -56.1373 67.8882 -4
      vertex -59.2151 68.4753 -4
      vertex -56.1373 67.8882 -24
    endloop
  endfacet
  facet normal 0.0627904 -0.998027 -4.43213e-16
    outer loop
      vertex -62.3423 68.2786 -4
      vertex -62.3423 68.2786 -24
      vertex -59.2151 68.4753 -24
    endloop
  endfacet
  facet normal 0.0627904 -0.998027 -4.43213e-16
    outer loop
      vertex -59.2151 68.4753 -4
      vertex -62.3423 68.2786 -4
      vertex -59.2151 68.4753 -24
    endloop
  endfacet
  facet normal 0.309017 -0.951056 -4.22354e-16
    outer loop
      vertex -65.3222 67.3103 -4
      vertex -65.3222 67.3103 -24
      vertex -62.3423 68.2786 -24
    endloop
  endfacet
  facet normal 0.309017 -0.951056 -4.22354e-16
    outer loop
      vertex -62.3423 68.2786 -4
      vertex -65.3222 67.3103 -4
      vertex -62.3423 68.2786 -24
    endloop
  endfacet
  facet normal 0.535827 -0.844328 -3.74957e-16
    outer loop
      vertex -67.9678 65.6314 -4
      vertex -67.9678 65.6314 -24
      vertex -65.3222 67.3103 -24
    endloop
  endfacet
  facet normal 0.535827 -0.844328 -3.74957e-16
    outer loop
      vertex -65.3222 67.3103 -4
      vertex -67.9678 65.6314 -4
      vertex -65.3222 67.3103 -24
    endloop
  endfacet
  facet normal 0.728969 -0.684547 -3.04e-16
    outer loop
      vertex -70.1127 63.3473 -4
      vertex -70.1127 63.3473 -24
      vertex -67.9678 65.6314 -24
    endloop
  endfacet
  facet normal 0.728969 -0.684547 -3.04e-16
    outer loop
      vertex -67.9678 65.6314 -4
      vertex -70.1127 63.3473 -4
      vertex -67.9678 65.6314 -24
    endloop
  endfacet
  facet normal 0.876307 -0.481754 -2.13942e-16
    outer loop
      vertex -71.6222 60.6016 -4
      vertex -71.6222 60.6016 -24
      vertex -70.1127 63.3473 -24
    endloop
  endfacet
  facet normal 0.876307 -0.481754 -2.13942e-16
    outer loop
      vertex -70.1127 63.3473 -4
      vertex -71.6222 60.6016 -4
      vertex -70.1127 63.3473 -24
    endloop
  endfacet
  facet normal 0.968583 -0.24869 -1.10441e-16
    outer loop
      vertex -72.4014 57.5667 -4
      vertex -72.4014 57.5667 -24
      vertex -71.6222 60.6016 -24
    endloop
  endfacet
  facet normal 0.968583 -0.24869 -1.10441e-16
    outer loop
      vertex -71.6222 60.6016 -4
      vertex -72.4014 57.5667 -4
      vertex -71.6222 60.6016 -24
    endloop
  endfacet
  facet normal 1 0 0
    outer loop
      vertex -72.4014 54.4333 -4
      vertex -72.4014 54.4333 -24
      vertex -72.4014 57.5667 -24
    endloop
  endfacet
  facet normal 1 0 0
    outer loop
      vertex -72.4014 57.5667 -4
      vertex -72.4014 54.4333 -4
      vertex -72.4014 57.5667 -24
    endloop
  endfacet
  facet normal 0.968583 0.24869 1.10441e-16
    outer loop
      vertex -72.4014 54.4333 -4
      vertex -71.6222 51.3984 -4
      vertex -71.6222 51.3984 -24
    endloop
  endfacet
  facet normal 0.968583 0.24869 1.10441e-16
    outer loop
      vertex -72.4014 54.4333 -24
      vertex -72.4014 54.4333 -4
      vertex -71.6222 51.3984 -24
    endloop
  endfacet
  facet normal 0.876307 0.481754 2.13942e-16
    outer loop
      vertex -71.6222 51.3984 -4
      vertex -70.1127 48.6527 -4
      vertex -70.1127 48.6527 -24
    endloop
  endfacet
  facet normal 0.876307 0.481754 2.13942e-16
    outer loop
      vertex -71.6222 51.3984 -24
      vertex -71.6222 51.3984 -4
      vertex -70.1127 48.6527 -24
    endloop
  endfacet
  facet normal 0.728969 0.684547 3.04e-16
    outer loop
      vertex -70.1127 48.6527 -4
      vertex -67.9678 46.3686 -4
      vertex -67.9678 46.3686 -24
    endloop
  endfacet
  facet normal 0.728969 0.684547 3.04e-16
    outer loop
      vertex -70.1127 48.6527 -24
      vertex -70.1127 48.6527 -4
      vertex -67.9678 46.3686 -24
    endloop
  endfacet
  facet normal 0.309017 0.951056 4.22354e-16
    outer loop
      vertex -62.3423 43.7214 -4
      vertex -62.3423 43.7214 -24
      vertex -65.3222 44.6897 -4
    endloop
  endfacet
  facet normal 0.309017 0.951056 4.22354e-16
    outer loop
      vertex -65.3222 44.6897 -4
      vertex -62.3423 43.7214 -24
      vertex -65.3222 44.6897 -24
    endloop
  endfacet
  facet normal 0.0627904 0.998027 4.43213e-16
    outer loop
      vertex -59.2151 43.5247 -4
      vertex -59.2151 43.5247 -24
      vertex -62.3423 43.7214 -4
    endloop
  endfacet
  facet normal 0.0627904 0.998027 4.43213e-16
    outer loop
      vertex -62.3423 43.7214 -4
      vertex -59.2151 43.5247 -24
      vertex -62.3423 43.7214 -24
    endloop
  endfacet
  facet normal -0.187381 0.982287 4.36223e-16
    outer loop
      vertex -56.1373 44.1118 -4
      vertex -56.1373 44.1118 -24
      vertex -59.2151 43.5247 -4
    endloop
  endfacet
  facet normal -0.187381 0.982287 4.36223e-16
    outer loop
      vertex -59.2151 43.5247 -4
      vertex -56.1373 44.1118 -24
      vertex -59.2151 43.5247 -24
    endloop
  endfacet
  facet normal -0.425779 0.904827 4.01824e-16
    outer loop
      vertex -53.3022 45.4459 -4
      vertex -53.3022 45.4459 -24
      vertex -56.1373 44.1118 -4
    endloop
  endfacet
  facet normal -0.425779 0.904827 4.01824e-16
    outer loop
      vertex -56.1373 44.1118 -4
      vertex -53.3022 45.4459 -24
      vertex -56.1373 44.1118 -24
    endloop
  endfacet
  facet normal 2.22045e-16 1 2.22045e-16
    outer loop
      vertex -35 36.611 -13.8245
      vertex -35 36.611 -14.1755
      vertex -39.05 36.611 -13.8245
    endloop
  endfacet
  facet normal 2.22045e-16 1 2.22045e-16
    outer loop
      vertex -39.05 36.611 -13.8245
      vertex -35 36.611 -14.1755
      vertex -39.05 36.611 -14.1755
    endloop
  endfacet
  facet normal 2.15069e-16 0.968583 -0.248692
    outer loop
      vertex -39.05 36.6983 -13.4846
      vertex -35 36.6983 -13.4846
      vertex -39.05 36.611 -13.8245
    endloop
  endfacet
  facet normal 2.15069e-16 0.968583 -0.248692
    outer loop
      vertex -39.05 36.611 -13.8245
      vertex -35 36.6983 -13.4846
      vertex -35 36.611 -13.8245
    endloop
  endfacet
  facet normal 2.15069e-16 0.968583 0.248692
    outer loop
      vertex -35 36.611 -14.1755
      vertex -35 36.6983 -14.5154
      vertex -39.05 36.611 -14.1755
    endloop
  endfacet
  facet normal 2.15069e-16 0.968583 0.248692
    outer loop
      vertex -39.05 36.611 -14.1755
      vertex -35 36.6983 -14.5154
      vertex -39.05 36.6983 -14.5154
    endloop
  endfacet
  facet normal 1.94579e-16 0.876307 0.481753
    outer loop
      vertex -35 36.6983 -14.5154
      vertex -35 36.8674 -14.8229
      vertex -39.05 36.6983 -14.5154
    endloop
  endfacet
  facet normal 1.94579e-16 0.876307 0.481753
    outer loop
      vertex -39.05 36.6983 -14.5154
      vertex -35 36.8674 -14.8229
      vertex -39.05 36.8674 -14.8229
    endloop
  endfacet
  facet normal 1.61864e-16 0.72897 0.684546
    outer loop
      vertex -35 36.8674 -14.8229
      vertex -35 37.1076 -15.0787
      vertex -39.05 36.8674 -14.8229
    endloop
  endfacet
  facet normal 1.61864e-16 0.72897 0.684546
    outer loop
      vertex -39.05 36.8674 -14.8229
      vertex -35 37.1076 -15.0787
      vertex -39.05 37.1076 -15.0787
    endloop
  endfacet
  facet normal 1.18977e-16 0.535826 0.844329
    outer loop
      vertex -39.05 37.1076 -15.0787
      vertex -35 37.1076 -15.0787
      vertex -35 37.4039 -15.2668
    endloop
  endfacet
  facet normal 1.18977e-16 0.535826 0.844329
    outer loop
      vertex -39.05 37.4039 -15.2668
      vertex -39.05 37.1076 -15.0787
      vertex -35 37.4039 -15.2668
    endloop
  endfacet
  facet normal 6.86154e-17 0.309016 0.951057
    outer loop
      vertex -39.05 37.4039 -15.2668
      vertex -35 37.4039 -15.2668
      vertex -35 37.7377 -15.3752
    endloop
  endfacet
  facet normal 6.86154e-17 0.309016 0.951057
    outer loop
      vertex -39.05 37.7377 -15.3752
      vertex -39.05 37.4039 -15.2668
      vertex -35 37.7377 -15.3752
    endloop
  endfacet
  facet normal 1.39421e-17 0.0627897 0.998027
    outer loop
      vertex -39.05 37.7377 -15.3752
      vertex -35 37.7377 -15.3752
      vertex -35 38.0879 -15.3972
    endloop
  endfacet
  facet normal 1.39421e-17 0.0627897 0.998027
    outer loop
      vertex -39.05 38.0879 -15.3972
      vertex -39.05 37.7377 -15.3752
      vertex -35 38.0879 -15.3972
    endloop
  endfacet
  facet normal -4.16068e-17 -0.187381 0.982287
    outer loop
      vertex -39.05 38.0879 -15.3972
      vertex -35 38.0879 -15.3972
      vertex -35 38.4326 -15.3315
    endloop
  endfacet
  facet normal -4.16068e-17 -0.187381 0.982287
    outer loop
      vertex -39.05 38.4326 -15.3315
      vertex -39.05 38.0879 -15.3972
      vertex -35 38.4326 -15.3315
    endloop
  endfacet
  facet normal -9.45419e-17 -0.425779 0.904827
    outer loop
      vertex -39.05 38.4326 -15.3315
      vertex -35 38.4326 -15.3315
      vertex -35 38.7502 -15.1821
    endloop
  endfacet
  facet normal -9.45419e-17 -0.425779 0.904827
    outer loop
      vertex -39.05 38.7502 -15.1821
      vertex -39.05 38.4326 -15.3315
      vertex -35 38.7502 -15.1821
    endloop
  endfacet
  facet normal -1.41537e-16 -0.637425 0.770513
    outer loop
      vertex -39.05 38.7502 -15.1821
      vertex -35 38.7502 -15.1821
      vertex -35 39.0206 -14.9584
    endloop
  endfacet
  facet normal -1.41537e-16 -0.637425 0.770513
    outer loop
      vertex -39.05 39.0206 -14.9584
      vertex -39.05 38.7502 -15.1821
      vertex -35 39.0206 -14.9584
    endloop
  endfacet
  facet normal -1.79638e-16 -0.809018 0.587784
    outer loop
      vertex -39.05 39.0206 -14.9584
      vertex -35 39.0206 -14.9584
      vertex -35 39.2268 -14.6745
    endloop
  endfacet
  facet normal -1.79638e-16 -0.809018 0.587784
    outer loop
      vertex -39.05 39.2268 -14.6745
      vertex -39.05 39.0206 -14.9584
      vertex -35 39.2268 -14.6745
    endloop
  endfacet
  facet normal -2.06452e-16 -0.929776 0.368125
    outer loop
      vertex -39.05 39.2268 -14.6745
      vertex -35 39.2268 -14.6745
      vertex -35 39.356 -14.3482
    endloop
  endfacet
  facet normal -2.06452e-16 -0.929776 0.368125
    outer loop
      vertex -39.05 39.356 -14.3482
      vertex -39.05 39.2268 -14.6745
      vertex -35 39.356 -14.3482
    endloop
  endfacet
  facet normal -2.20294e-16 -0.992115 0.125334
    outer loop
      vertex -39.05 39.356 -14.3482
      vertex -35 39.356 -14.3482
      vertex -35 39.4 -14
    endloop
  endfacet
  facet normal -2.20294e-16 -0.992115 0.125334
    outer loop
      vertex -39.05 39.4 -14
      vertex -39.05 39.356 -14.3482
      vertex -35 39.4 -14
    endloop
  endfacet
  facet normal -2.20294e-16 -0.992115 -0.125334
    outer loop
      vertex -39.05 39.356 -13.6518
      vertex -39.05 39.4 -14
      vertex -35 39.4 -14
    endloop
  endfacet
  facet normal -2.20294e-16 -0.992115 -0.125334
    outer loop
      vertex -35 39.356 -13.6518
      vertex -39.05 39.356 -13.6518
      vertex -35 39.4 -14
    endloop
  endfacet
  facet normal -2.06452e-16 -0.929776 -0.368125
    outer loop
      vertex -39.05 39.2268 -13.3255
      vertex -39.05 39.356 -13.6518
      vertex -35 39.356 -13.6518
    endloop
  endfacet
  facet normal -2.06452e-16 -0.929776 -0.368125
    outer loop
      vertex -35 39.2268 -13.3255
      vertex -39.05 39.2268 -13.3255
      vertex -35 39.356 -13.6518
    endloop
  endfacet
  facet normal -1.79638e-16 -0.809018 -0.587784
    outer loop
      vertex -39.05 39.0206 -13.0416
      vertex -39.05 39.2268 -13.3255
      vertex -35 39.2268 -13.3255
    endloop
  endfacet
  facet normal -1.79638e-16 -0.809018 -0.587784
    outer loop
      vertex -35 39.0206 -13.0416
      vertex -39.05 39.0206 -13.0416
      vertex -35 39.2268 -13.3255
    endloop
  endfacet
  facet normal -1.41537e-16 -0.637425 -0.770513
    outer loop
      vertex -39.05 39.0206 -13.0416
      vertex -35 39.0206 -13.0416
      vertex -39.05 38.7502 -12.8179
    endloop
  endfacet
  facet normal -1.41537e-16 -0.637425 -0.770513
    outer loop
      vertex -39.05 38.7502 -12.8179
      vertex -35 39.0206 -13.0416
      vertex -35 38.7502 -12.8179
    endloop
  endfacet
  facet normal -9.45419e-17 -0.425779 -0.904827
    outer loop
      vertex -39.05 38.7502 -12.8179
      vertex -35 38.7502 -12.8179
      vertex -39.05 38.4326 -12.6685
    endloop
  endfacet
  facet normal -9.45419e-17 -0.425779 -0.904827
    outer loop
      vertex -39.05 38.4326 -12.6685
      vertex -35 38.7502 -12.8179
      vertex -35 38.4326 -12.6685
    endloop
  endfacet
  facet normal -4.16068e-17 -0.187381 -0.982287
    outer loop
      vertex -39.05 38.4326 -12.6685
      vertex -35 38.4326 -12.6685
      vertex -39.05 38.0879 -12.6028
    endloop
  endfacet
  facet normal -4.16068e-17 -0.187381 -0.982287
    outer loop
      vertex -39.05 38.0879 -12.6028
      vertex -35 38.4326 -12.6685
      vertex -35 38.0879 -12.6028
    endloop
  endfacet
  facet normal 1.39421e-17 0.0627897 -0.998027
    outer loop
      vertex -39.05 38.0879 -12.6028
      vertex -35 38.0879 -12.6028
      vertex -39.05 37.7377 -12.6248
    endloop
  endfacet
  facet normal 1.39421e-17 0.0627897 -0.998027
    outer loop
      vertex -39.05 37.7377 -12.6248
      vertex -35 38.0879 -12.6028
      vertex -35 37.7377 -12.6248
    endloop
  endfacet
  facet normal 6.86154e-17 0.309016 -0.951057
    outer loop
      vertex -39.05 37.7377 -12.6248
      vertex -35 37.7377 -12.6248
      vertex -39.05 37.4039 -12.7332
    endloop
  endfacet
  facet normal 6.86154e-17 0.309016 -0.951057
    outer loop
      vertex -39.05 37.4039 -12.7332
      vertex -35 37.7377 -12.6248
      vertex -35 37.4039 -12.7332
    endloop
  endfacet
  facet normal 1.18977e-16 0.535826 -0.844329
    outer loop
      vertex -39.05 37.4039 -12.7332
      vertex -35 37.4039 -12.7332
      vertex -39.05 37.1076 -12.9213
    endloop
  endfacet
  facet normal 1.18977e-16 0.535826 -0.844329
    outer loop
      vertex -39.05 37.1076 -12.9213
      vertex -35 37.4039 -12.7332
      vertex -35 37.1076 -12.9213
    endloop
  endfacet
  facet normal 1.61864e-16 0.72897 -0.684546
    outer loop
      vertex -39.05 37.1076 -12.9213
      vertex -35 37.1076 -12.9213
      vertex -39.05 36.8674 -13.1771
    endloop
  endfacet
  facet normal 1.61864e-16 0.72897 -0.684546
    outer loop
      vertex -39.05 36.8674 -13.1771
      vertex -35 37.1076 -12.9213
      vertex -35 36.8674 -13.1771
    endloop
  endfacet
  facet normal 1.94579e-16 0.876307 -0.481753
    outer loop
      vertex -39.05 36.8674 -13.1771
      vertex -35 36.8674 -13.1771
      vertex -39.05 36.6983 -13.4846
    endloop
  endfacet
  facet normal 1.94579e-16 0.876307 -0.481753
    outer loop
      vertex -39.05 36.6983 -13.4846
      vertex -35 36.8674 -13.1771
      vertex -35 36.6983 -13.4846
    endloop
  endfacet
endsolid OpenSCAD_Model
