solid OpenSCAD_Model
  facet normal -1 0 0
    outer loop
      vertex 37 35.6 -21
      vertex 37 50.6 -21
      vertex 37 35.6 -24
    endloop
  endfacet
  facet normal -1 0 0
    outer loop
      vertex 37 35.6 -24
      vertex 37 50.6 -21
      vertex 37 50.6 -24
    endloop
  endfacet
  facet normal 0 0 1
    outer loop
      vertex 74.1574 47.5786 -21
      vertex 83 35.6 -21
      vertex 83 50.6 -21
    endloop
  endfacet
  facet normal 0 0 1
    outer loop
      vertex 49.0427 47.5786 -21
      vertex 45.8426 47.5786 -21
      vertex 37 35.6 -21
    endloop
  endfacet
  facet normal 0 0 1
    outer loop
      vertex 75.6131 50.6 -21
      vertex 75.7575 50.35 -21
      vertex 83 50.6 -21
    endloop
  endfacet
  facet normal 0 0 1
    outer loop
      vertex 54.8862 41.0753 -21
      vertex 54.5434 42.4107 -21
      vertex 45.85 39 -21
    endloop
  endfacet
  facet normal 0 0 1
    outer loop
      vertex 54.5434 43.7893 -21
      vertex 54.8862 45.1247 -21
      vertex 44.1162 40.8463 -21
    endloop
  endfacet
  facet normal 0 0 1
    outer loop
      vertex 76.9913 40.562 -21
      vertex 83 35.6 -21
      vertex 74.1574 47.5786 -21
    endloop
  endfacet
  facet normal 0 0 1
    outer loop
      vertex 43.2123 37.3261 -21
      vertex 42.8208 37.5746 -21
      vertex 37 35.6 -21
    endloop
  endfacet
  facet normal 0 0 1
    outer loop
      vertex 54.8862 41.0753 -21
      vertex 45.85 39 -21
      vertex 45.7919 38.5399 -21
    endloop
  endfacet
  facet normal 0 0 1
    outer loop
      vertex 50.4984 50.6 -21
      vertex 50.6427 50.35 -21
      vertex 69.5016 50.6 -21
    endloop
  endfacet
  facet normal 0 0 1
    outer loop
      vertex 42.8208 40.4254 -21
      vertex 43.2123 40.6739 -21
      vertex 49.0427 47.5786 -21
    endloop
  endfacet
  facet normal 0 0 1
    outer loop
      vertex 50.6427 50.35 -21
      vertex 49.0427 47.5786 -21
      vertex 69.5016 50.6 -21
    endloop
  endfacet
  facet normal 0 0 1
    outer loop
      vertex 44.2425 50.35 -21
      vertex 37 35.6 -21
      vertex 45.8426 47.5786 -21
    endloop
  endfacet
  facet normal 0 0 1
    outer loop
      vertex 37 50.6 -21
      vertex 37 35.6 -21
      vertex 44.2425 50.35 -21
    endloop
  endfacet
  facet normal 0 0 1
    outer loop
      vertex 37 50.6 -21
      vertex 44.2425 50.35 -21
      vertex 44.3869 50.6 -21
    endloop
  endfacet
  facet normal 0 0 1
    outer loop
      vertex 42.1646 39.2319 -21
      vertex 37 35.6 -21
      vertex 42.1646 38.7681 -21
    endloop
  endfacet
  facet normal 0 0 1
    outer loop
      vertex 42.2799 39.681 -21
      vertex 37 35.6 -21
      vertex 42.1646 39.2319 -21
    endloop
  endfacet
  facet normal 0 0 1
    outer loop
      vertex 42.5033 40.0874 -21
      vertex 37 35.6 -21
      vertex 42.2799 39.681 -21
    endloop
  endfacet
  facet normal 0 0 1
    outer loop
      vertex 49.0427 47.5786 -21
      vertex 37 35.6 -21
      vertex 42.5033 40.0874 -21
    endloop
  endfacet
  facet normal 0 0 1
    outer loop
      vertex 43.2123 40.6739 -21
      vertex 43.6533 40.8172 -21
      vertex 49.0427 47.5786 -21
    endloop
  endfacet
  facet normal 0 0 1
    outer loop
      vertex 49.0427 47.5786 -21
      vertex 42.5033 40.0874 -21
      vertex 42.8208 40.4254 -21
    endloop
  endfacet
  facet normal 0 0 1
    outer loop
      vertex 43.6533 40.8172 -21
      vertex 44.1162 40.8463 -21
      vertex 49.0427 47.5786 -21
    endloop
  endfacet
  facet normal 0 0 1
    outer loop
      vertex 58.9694 48.5026 -21
      vertex 60.3453 48.5891 -21
      vertex 69.5016 50.6 -21
    endloop
  endfacet
  facet normal 0 0 1
    outer loop
      vertex 61.6996 48.3308 -21
      vertex 62.947 47.7438 -21
      vertex 69.5016 50.6 -21
    endloop
  endfacet
  facet normal 0 0 1
    outer loop
      vertex 62.947 47.7438 -21
      vertex 64.0093 46.865 -21
      vertex 69.8053 49.574 -21
    endloop
  endfacet
  facet normal 0 0 1
    outer loop
      vertex 57.6582 38.1235 -21
      vertex 56.4942 38.8622 -21
      vertex 45.6212 38.1088 -21
    endloop
  endfacet
  facet normal 0 0 1
    outer loop
      vertex 45.7919 39.4601 -21
      vertex 45.85 39 -21
      vertex 54.5434 42.4107 -21
    endloop
  endfacet
  facet normal 0 0 1
    outer loop
      vertex 45.3486 37.7336 -21
      vertex 83 35.6 -21
      vertex 45.6212 38.1088 -21
    endloop
  endfacet
  facet normal 0 0 1
    outer loop
      vertex 44.9913 37.438 -21
      vertex 83 35.6 -21
      vertex 45.3486 37.7336 -21
    endloop
  endfacet
  facet normal 0 0 1
    outer loop
      vertex 44.5717 37.2405 -21
      vertex 83 35.6 -21
      vertex 44.9913 37.438 -21
    endloop
  endfacet
  facet normal 0 0 1
    outer loop
      vertex 37 35.6 -21
      vertex 83 35.6 -21
      vertex 44.5717 37.2405 -21
    endloop
  endfacet
  facet normal 0 0 1
    outer loop
      vertex 43.6533 37.1828 -21
      vertex 43.2123 37.3261 -21
      vertex 37 35.6 -21
    endloop
  endfacet
  facet normal 0 0 1
    outer loop
      vertex 37 35.6 -21
      vertex 44.5717 37.2405 -21
      vertex 44.1162 37.1537 -21
    endloop
  endfacet
  facet normal 0 0 1
    outer loop
      vertex 42.5033 37.9126 -21
      vertex 42.2799 38.319 -21
      vertex 37 35.6 -21
    endloop
  endfacet
  facet normal 0 0 1
    outer loop
      vertex 42.8208 37.5746 -21
      vertex 42.5033 37.9126 -21
      vertex 37 35.6 -21
    endloop
  endfacet
  facet normal 0 0 1
    outer loop
      vertex 54.5434 43.7893 -21
      vertex 44.9913 40.562 -21
      vertex 45.3486 40.2664 -21
    endloop
  endfacet
  facet normal 0 0 1
    outer loop
      vertex 54.8862 41.0753 -21
      vertex 45.7919 38.5399 -21
      vertex 45.6212 38.1088 -21
    endloop
  endfacet
  facet normal 0 0 1
    outer loop
      vertex 42.1646 38.7681 -21
      vertex 37 35.6 -21
      vertex 42.2799 38.319 -21
    endloop
  endfacet
  facet normal 0 0 1
    outer loop
      vertex 54.5434 43.7893 -21
      vertex 45.3486 40.2664 -21
      vertex 45.6212 39.8912 -21
    endloop
  endfacet
  facet normal 0 0 1
    outer loop
      vertex 45.6212 39.8912 -21
      vertex 45.7919 39.4601 -21
      vertex 54.5434 43.7893 -21
    endloop
  endfacet
  facet normal 0 0 1
    outer loop
      vertex 62.947 47.7438 -21
      vertex 69.3573 50.35 -21
      vertex 69.5016 50.6 -21
    endloop
  endfacet
  facet normal 0 0 1
    outer loop
      vertex 49.0427 47.5786 -21
      vertex 44.1162 40.8463 -21
      vertex 54.8862 45.1247 -21
    endloop
  endfacet
  facet normal 0 0 1
    outer loop
      vertex 62.947 47.7438 -21
      vertex 69.8053 49.574 -21
      vertex 69.3573 50.35 -21
    endloop
  endfacet
  facet normal 0 0 1
    outer loop
      vertex 49.0427 47.5786 -21
      vertex 54.8862 45.1247 -21
      vertex 55.5504 46.3328 -21
    endloop
  endfacet
  facet normal 0 0 1
    outer loop
      vertex 49.0427 47.5786 -21
      vertex 55.5504 46.3328 -21
      vertex 56.4942 47.3378 -21
    endloop
  endfacet
  facet normal 0 0 1
    outer loop
      vertex 60.3453 48.5891 -21
      vertex 61.6996 48.3308 -21
      vertex 69.5016 50.6 -21
    endloop
  endfacet
  facet normal 0 0 1
    outer loop
      vertex 49.0427 47.5786 -21
      vertex 56.4942 47.3378 -21
      vertex 57.6582 48.0765 -21
    endloop
  endfacet
  facet normal 0 0 1
    outer loop
      vertex 49.0427 47.5786 -21
      vertex 58.9694 48.5026 -21
      vertex 69.5016 50.6 -21
    endloop
  endfacet
  facet normal 0 0 1
    outer loop
      vertex 49.0427 47.5786 -21
      vertex 57.6582 48.0765 -21
      vertex 58.9694 48.5026 -21
    endloop
  endfacet
  facet normal 0 0 1
    outer loop
      vertex 64.8197 45.7496 -21
      vertex 65.3272 44.4678 -21
      vertex 74.1574 47.5786 -21
    endloop
  endfacet
  facet normal 0 0 1
    outer loop
      vertex 58.9694 37.6974 -21
      vertex 57.6582 38.1235 -21
      vertex 45.6212 38.1088 -21
    endloop
  endfacet
  facet normal 0 0 1
    outer loop
      vertex 54.5434 43.7893 -21
      vertex 44.5717 40.7595 -21
      vertex 44.9913 40.562 -21
    endloop
  endfacet
  facet normal 0 0 1
    outer loop
      vertex 77.3486 40.2664 -21
      vertex 77.6212 39.8912 -21
      vertex 83 35.6 -21
    endloop
  endfacet
  facet normal 0 0 1
    outer loop
      vertex 77.85 39 -21
      vertex 77.7919 38.5399 -21
      vertex 83 35.6 -21
    endloop
  endfacet
  facet normal 0 0 1
    outer loop
      vertex 62.947 38.4562 -21
      vertex 83 35.6 -21
      vertex 64.0093 39.335 -21
    endloop
  endfacet
  facet normal 0 0 1
    outer loop
      vertex 56.4942 38.8622 -21
      vertex 55.5504 39.8672 -21
      vertex 45.6212 38.1088 -21
    endloop
  endfacet
  facet normal 0 0 1
    outer loop
      vertex 61.6996 37.8692 -21
      vertex 83 35.6 -21
      vertex 62.947 38.4562 -21
    endloop
  endfacet
  facet normal 0 0 1
    outer loop
      vertex 60.3453 37.6109 -21
      vertex 83 35.6 -21
      vertex 61.6996 37.8692 -21
    endloop
  endfacet
  facet normal 0 0 1
    outer loop
      vertex 45.6212 38.1088 -21
      vertex 83 35.6 -21
      vertex 60.3453 37.6109 -21
    endloop
  endfacet
  facet normal 0 0 1
    outer loop
      vertex 45.6212 38.1088 -21
      vertex 60.3453 37.6109 -21
      vertex 58.9694 37.6974 -21
    endloop
  endfacet
  facet normal 0 0 1
    outer loop
      vertex 55.5504 39.8672 -21
      vertex 54.8862 41.0753 -21
      vertex 45.6212 38.1088 -21
    endloop
  endfacet
  facet normal 0 0 1
    outer loop
      vertex 74.2799 38.319 -21
      vertex 74.1646 38.7681 -21
      vertex 65.3272 41.7322 -21
    endloop
  endfacet
  facet normal 0 0 1
    outer loop
      vertex 54.5434 43.7893 -21
      vertex 44.1162 40.8463 -21
      vertex 44.5717 40.7595 -21
    endloop
  endfacet
  facet normal 0 0 1
    outer loop
      vertex 65.3272 41.7322 -21
      vertex 74.1646 38.7681 -21
      vertex 65.5 43.1 -21
    endloop
  endfacet
  facet normal 0 0 1
    outer loop
      vertex 77.3486 37.7336 -21
      vertex 76.9913 37.438 -21
      vertex 83 35.6 -21
    endloop
  endfacet
  facet normal 0 0 1
    outer loop
      vertex 74.1646 38.7681 -21
      vertex 74.1646 39.2319 -21
      vertex 65.5 43.1 -21
    endloop
  endfacet
  facet normal 0 0 1
    outer loop
      vertex 65.5 43.1 -21
      vertex 74.2799 39.681 -21
      vertex 65.3272 44.4678 -21
    endloop
  endfacet
  facet normal 0 0 1
    outer loop
      vertex 65.3272 44.4678 -21
      vertex 74.5033 40.0874 -21
      vertex 74.1574 47.5786 -21
    endloop
  endfacet
  facet normal 0 0 1
    outer loop
      vertex 74.5033 40.0874 -21
      vertex 74.8208 40.4254 -21
      vertex 74.1574 47.5786 -21
    endloop
  endfacet
  facet normal 0 0 1
    outer loop
      vertex 74.8208 40.4254 -21
      vertex 75.2123 40.6739 -21
      vertex 74.1574 47.5786 -21
    endloop
  endfacet
  facet normal 0 0 1
    outer loop
      vertex 75.2123 40.6739 -21
      vertex 75.6533 40.8172 -21
      vertex 74.1574 47.5786 -21
    endloop
  endfacet
  facet normal 0 0 1
    outer loop
      vertex 75.6533 40.8172 -21
      vertex 76.1162 40.8463 -21
      vertex 74.1574 47.5786 -21
    endloop
  endfacet
  facet normal 0 0 1
    outer loop
      vertex 76.1162 40.8463 -21
      vertex 76.5717 40.7595 -21
      vertex 74.1574 47.5786 -21
    endloop
  endfacet
  facet normal 0 0 1
    outer loop
      vertex 76.5717 40.7595 -21
      vertex 76.9913 40.562 -21
      vertex 74.1574 47.5786 -21
    endloop
  endfacet
  facet normal 0 0 1
    outer loop
      vertex 77.3486 40.2664 -21
      vertex 83 35.6 -21
      vertex 76.9913 40.562 -21
    endloop
  endfacet
  facet normal 0 0 1
    outer loop
      vertex 77.6212 39.8912 -21
      vertex 77.7919 39.4601 -21
      vertex 83 35.6 -21
    endloop
  endfacet
  facet normal 0 0 1
    outer loop
      vertex 77.7919 39.4601 -21
      vertex 77.85 39 -21
      vertex 83 35.6 -21
    endloop
  endfacet
  facet normal 0 0 1
    outer loop
      vertex 77.7919 38.5399 -21
      vertex 77.6212 38.1088 -21
      vertex 83 35.6 -21
    endloop
  endfacet
  facet normal 0 0 1
    outer loop
      vertex 76.9913 37.438 -21
      vertex 76.5717 37.2405 -21
      vertex 83 35.6 -21
    endloop
  endfacet
  facet normal 0 0 1
    outer loop
      vertex 77.6212 38.1088 -21
      vertex 77.3486 37.7336 -21
      vertex 83 35.6 -21
    endloop
  endfacet
  facet normal 0 0 1
    outer loop
      vertex 74.2799 39.681 -21
      vertex 74.5033 40.0874 -21
      vertex 65.3272 44.4678 -21
    endloop
  endfacet
  facet normal 0 0 1
    outer loop
      vertex 74.1646 39.2319 -21
      vertex 74.2799 39.681 -21
      vertex 65.5 43.1 -21
    endloop
  endfacet
  facet normal 0 0 1
    outer loop
      vertex 74.5033 37.9126 -21
      vertex 74.2799 38.319 -21
      vertex 64.8197 40.4504 -21
    endloop
  endfacet
  facet normal 0 0 1
    outer loop
      vertex 76.1162 37.1537 -21
      vertex 83 35.6 -21
      vertex 76.5717 37.2405 -21
    endloop
  endfacet
  facet normal 0 0 1
    outer loop
      vertex 75.6533 37.1828 -21
      vertex 83 35.6 -21
      vertex 76.1162 37.1537 -21
    endloop
  endfacet
  facet normal 0 0 1
    outer loop
      vertex 75.2123 37.3261 -21
      vertex 74.8208 37.5746 -21
      vertex 64.0093 39.335 -21
    endloop
  endfacet
  facet normal 0 0 1
    outer loop
      vertex 64.0093 39.335 -21
      vertex 83 35.6 -21
      vertex 75.6533 37.1828 -21
    endloop
  endfacet
  facet normal 0 0 1
    outer loop
      vertex 74.8208 37.5746 -21
      vertex 74.5033 37.9126 -21
      vertex 64.8197 40.4504 -21
    endloop
  endfacet
  facet normal 0 0 1
    outer loop
      vertex 64.0093 39.335 -21
      vertex 74.8208 37.5746 -21
      vertex 64.8197 40.4504 -21
    endloop
  endfacet
  facet normal 0 0 1
    outer loop
      vertex 75.6533 37.1828 -21
      vertex 75.2123 37.3261 -21
      vertex 64.0093 39.335 -21
    endloop
  endfacet
  facet normal 0 0 1
    outer loop
      vertex 64.8197 40.4504 -21
      vertex 74.2799 38.319 -21
      vertex 65.3272 41.7322 -21
    endloop
  endfacet
  facet normal 0 0 1
    outer loop
      vertex 44.1162 37.1537 -21
      vertex 43.6533 37.1828 -21
      vertex 37 35.6 -21
    endloop
  endfacet
  facet normal 0 0 1
    outer loop
      vertex 54.5434 42.4107 -21
      vertex 54.5434 43.7893 -21
      vertex 45.7919 39.4601 -21
    endloop
  endfacet
  facet normal 0 0 1
    outer loop
      vertex 75.7575 50.35 -21
      vertex 74.1574 47.5786 -21
      vertex 83 50.6 -21
    endloop
  endfacet
  facet normal 0 0 1
    outer loop
      vertex 64.8197 45.7496 -21
      vertex 74.1574 47.5786 -21
      vertex 70.9573 47.5786 -21
    endloop
  endfacet
  facet normal 0 0 1
    outer loop
      vertex 70.9573 47.5786 -21
      vertex 64.0093 46.865 -21
      vertex 64.8197 45.7496 -21
    endloop
  endfacet
  facet normal 0 0 1
    outer loop
      vertex 70.9573 47.5786 -21
      vertex 69.8053 49.574 -21
      vertex 64.0093 46.865 -21
    endloop
  endfacet
  facet normal 0 -1 0
    outer loop
      vertex 52.0721 35.6 -24
      vertex 68.0405 35.6 -24
      vertex 83 35.6 -21
    endloop
  endfacet
  facet normal 0 -1 0
    outer loop
      vertex 37 35.6 -24
      vertex 52.0721 35.6 -24
      vertex 83 35.6 -21
    endloop
  endfacet
  facet normal 0 -1 0
    outer loop
      vertex 68.0405 35.6 -24
      vertex 83 35.6 -24
      vertex 83 35.6 -21
    endloop
  endfacet
  facet normal 0 -1 0
    outer loop
      vertex 37 35.6 -21
      vertex 37 35.6 -24
      vertex 83 35.6 -21
    endloop
  endfacet
  facet normal 0 0 -1
    outer loop
      vertex 37 50.6 -24
      vertex 44.2425 50.35 -24
      vertex 37 35.6 -24
    endloop
  endfacet
  facet normal 0 0 -1
    outer loop
      vertex 37 50.6 -24
      vertex 44.3869 50.6 -24
      vertex 44.2425 50.35 -24
    endloop
  endfacet
  facet normal 0 0 -1
    outer loop
      vertex 42.1646 38.7681 -24
      vertex 37 35.6 -24
      vertex 42.1646 39.2319 -24
    endloop
  endfacet
  facet normal 0 0 -1
    outer loop
      vertex 37 35.6 -24
      vertex 45.8426 47.5786 -24
      vertex 49.0427 47.5786 -24
    endloop
  endfacet
  facet normal 0 0 -1
    outer loop
      vertex 50.6427 50.35 -24
      vertex 50.4984 50.6 -24
      vertex 52.0721 50.6 -24
    endloop
  endfacet
  facet normal 0 0 -1
    outer loop
      vertex 50.6427 50.35 -24
      vertex 52.0721 50.6 -24
      vertex 49.0427 47.5786 -24
    endloop
  endfacet
  facet normal 0 0 -1
    outer loop
      vertex 49.0427 47.5786 -24
      vertex 52.0721 50.6 -24
      vertex 51.1008 49.5656 -24
    endloop
  endfacet
  facet normal 0 0 -1
    outer loop
      vertex 49.0427 47.5786 -24
      vertex 51.1008 49.5656 -24
      vertex 37 35.6 -24
    endloop
  endfacet
  facet normal 0 0 -1
    outer loop
      vertex 37 35.6 -24
      vertex 51.1008 49.5656 -24
      vertex 49.7725 47.1494 -24
    endloop
  endfacet
  facet normal 0 0 -1
    outer loop
      vertex 42.5033 40.0874 -24
      vertex 37 35.6 -24
      vertex 42.8208 40.4254 -24
    endloop
  endfacet
  facet normal 0 0 -1
    outer loop
      vertex 43.6533 37.1828 -24
      vertex 51.1008 36.6344 -24
      vertex 37 35.6 -24
    endloop
  endfacet
  facet normal 0 0 -1
    outer loop
      vertex 51.1008 36.6344 -24
      vertex 52.0721 35.6 -24
      vertex 37 35.6 -24
    endloop
  endfacet
  facet normal 0 0 -1
    outer loop
      vertex 44.5717 40.7595 -24
      vertex 49.0867 44.4787 -24
      vertex 44.9913 40.562 -24
    endloop
  endfacet
  facet normal 0 0 -1
    outer loop
      vertex 42.5033 37.9126 -24
      vertex 37 35.6 -24
      vertex 42.2799 38.319 -24
    endloop
  endfacet
  facet normal 0 0 -1
    outer loop
      vertex 42.1646 38.7681 -24
      vertex 42.2799 38.319 -24
      vertex 37 35.6 -24
    endloop
  endfacet
  facet normal 0 0 -1
    outer loop
      vertex 45.6212 39.8912 -24
      vertex 49.0867 41.7213 -24
      vertex 45.7919 39.4601 -24
    endloop
  endfacet
  facet normal 0 0 -1
    outer loop
      vertex 43.6533 37.1828 -24
      vertex 37 35.6 -24
      vertex 43.2123 37.3261 -24
    endloop
  endfacet
  facet normal 0 0 -1
    outer loop
      vertex 42.5033 37.9126 -24
      vertex 42.8208 37.5746 -24
      vertex 37 35.6 -24
    endloop
  endfacet
  facet normal 0 0 -1
    outer loop
      vertex 45.7919 38.5399 -24
      vertex 49.7725 39.0506 -24
      vertex 45.6212 38.1088 -24
    endloop
  endfacet
  facet normal 0 0 -1
    outer loop
      vertex 42.8208 37.5746 -24
      vertex 43.2123 37.3261 -24
      vertex 37 35.6 -24
    endloop
  endfacet
  facet normal 0 0 -1
    outer loop
      vertex 44.1162 37.1537 -24
      vertex 51.1008 36.6344 -24
      vertex 43.6533 37.1828 -24
    endloop
  endfacet
  facet normal 0 0 -1
    outer loop
      vertex 45.3486 37.7336 -24
      vertex 49.7725 39.0506 -24
      vertex 44.9913 37.438 -24
    endloop
  endfacet
  facet normal 0 0 -1
    outer loop
      vertex 44.5717 37.2405 -24
      vertex 51.1008 36.6344 -24
      vertex 44.1162 37.1537 -24
    endloop
  endfacet
  facet normal 0 0 -1
    outer loop
      vertex 49.7725 39.0506 -24
      vertex 51.1008 36.6344 -24
      vertex 44.5717 37.2405 -24
    endloop
  endfacet
  facet normal 0 0 -1
    outer loop
      vertex 49.7725 39.0506 -24
      vertex 44.5717 37.2405 -24
      vertex 44.9913 37.438 -24
    endloop
  endfacet
  facet normal 0 0 -1
    outer loop
      vertex 45.6212 38.1088 -24
      vertex 49.7725 39.0506 -24
      vertex 45.3486 37.7336 -24
    endloop
  endfacet
  facet normal 0 0 -1
    outer loop
      vertex 49.0867 41.7213 -24
      vertex 49.7725 39.0506 -24
      vertex 45.7919 38.5399 -24
    endloop
  endfacet
  facet normal 0 0 -1
    outer loop
      vertex 49.0867 41.7213 -24
      vertex 45.7919 38.5399 -24
      vertex 45.85 39 -24
    endloop
  endfacet
  facet normal 0 0 -1
    outer loop
      vertex 49.0867 41.7213 -24
      vertex 45.85 39 -24
      vertex 45.7919 39.4601 -24
    endloop
  endfacet
  facet normal 0 0 -1
    outer loop
      vertex 45.3486 40.2664 -24
      vertex 49.0867 41.7213 -24
      vertex 45.6212 39.8912 -24
    endloop
  endfacet
  facet normal 0 0 -1
    outer loop
      vertex 49.0867 44.4787 -24
      vertex 49.0867 41.7213 -24
      vertex 45.3486 40.2664 -24
    endloop
  endfacet
  facet normal 0 0 -1
    outer loop
      vertex 49.0867 44.4787 -24
      vertex 45.3486 40.2664 -24
      vertex 44.9913 40.562 -24
    endloop
  endfacet
  facet normal 0 0 -1
    outer loop
      vertex 44.1162 40.8463 -24
      vertex 49.0867 44.4787 -24
      vertex 44.5717 40.7595 -24
    endloop
  endfacet
  facet normal 0 0 -1
    outer loop
      vertex 49.7725 47.1494 -24
      vertex 49.0867 44.4787 -24
      vertex 44.1162 40.8463 -24
    endloop
  endfacet
  facet normal 0 0 -1
    outer loop
      vertex 49.7725 47.1494 -24
      vertex 44.1162 40.8463 -24
      vertex 43.6533 40.8172 -24
    endloop
  endfacet
  facet normal 0 0 -1
    outer loop
      vertex 49.7725 47.1494 -24
      vertex 43.6533 40.8172 -24
      vertex 43.2123 40.6739 -24
    endloop
  endfacet
  facet normal 0 0 -1
    outer loop
      vertex 49.7725 47.1494 -24
      vertex 43.2123 40.6739 -24
      vertex 42.8208 40.4254 -24
    endloop
  endfacet
  facet normal 0 0 -1
    outer loop
      vertex 49.7725 47.1494 -24
      vertex 42.8208 40.4254 -24
      vertex 37 35.6 -24
    endloop
  endfacet
  facet normal 0 0 -1
    outer loop
      vertex 42.2799 39.681 -24
      vertex 37 35.6 -24
      vertex 42.5033 40.0874 -24
    endloop
  endfacet
  facet normal 0 0 -1
    outer loop
      vertex 42.1646 39.2319 -24
      vertex 37 35.6 -24
      vertex 42.2799 39.681 -24
    endloop
  endfacet
  facet normal 0 0 -1
    outer loop
      vertex 45.8426 47.5786 -24
      vertex 37 35.6 -24
      vertex 44.2425 50.35 -24
    endloop
  endfacet
  facet normal 0 1 0
    outer loop
      vertex 37 50.6 -21
      vertex 44.3869 50.6 -21
      vertex 37 50.6 -24
    endloop
  endfacet
  facet normal 0 1 0
    outer loop
      vertex 37 50.6 -24
      vertex 44.3869 50.6 -21
      vertex 44.3869 50.6 -24
    endloop
  endfacet
  facet normal 0.866025 -0.5 0
    outer loop
      vertex 44.2425 50.35 -24
      vertex 44.3869 50.6 -24
      vertex 44.3869 50.6 -21
    endloop
  endfacet
  facet normal 0.866025 -0.5 0
    outer loop
      vertex 44.2425 50.35 -21
      vertex 44.2425 50.35 -24
      vertex 44.3869 50.6 -21
    endloop
  endfacet
  facet normal 0.866025 0.5 0
    outer loop
      vertex 44.2425 50.35 -24
      vertex 44.2425 50.35 -21
      vertex 45.8426 47.5786 -21
    endloop
  endfacet
  facet normal 0.866025 0.5 0
    outer loop
      vertex 45.8426 47.5786 -24
      vertex 44.2425 50.35 -24
      vertex 45.8426 47.5786 -21
    endloop
  endfacet
  facet normal -5.55112e-17 1 0
    outer loop
      vertex 45.8426 47.5786 -21
      vertex 49.0427 47.5786 -21
      vertex 45.8426 47.5786 -24
    endloop
  endfacet
  facet normal -5.55112e-17 1 0
    outer loop
      vertex 45.8426 47.5786 -24
      vertex 49.0427 47.5786 -21
      vertex 49.0427 47.5786 -24
    endloop
  endfacet
  facet normal -0.866025 0.5 0
    outer loop
      vertex 49.0427 47.5786 -21
      vertex 50.6427 50.35 -21
      vertex 49.0427 47.5786 -24
    endloop
  endfacet
  facet normal -0.866025 0.5 0
    outer loop
      vertex 49.0427 47.5786 -24
      vertex 50.6427 50.35 -21
      vertex 50.6427 50.35 -24
    endloop
  endfacet
  facet normal -0.866025 -0.5 0
    outer loop
      vertex 50.6427 50.35 -24
      vertex 50.6427 50.35 -21
      vertex 50.4984 50.6 -24
    endloop
  endfacet
  facet normal -0.866025 -0.5 0
    outer loop
      vertex 50.4984 50.6 -24
      vertex 50.6427 50.35 -21
      vertex 50.4984 50.6 -21
    endloop
  endfacet
  facet normal 0 1 0
    outer loop
      vertex 50.4984 50.6 -21
      vertex 69.5016 50.6 -21
      vertex 50.4984 50.6 -24
    endloop
  endfacet
  facet normal 0 1 0
    outer loop
      vertex 68.0405 50.6 -24
      vertex 69.5016 50.6 -21
      vertex 69.5016 50.6 -24
    endloop
  endfacet
  facet normal 0 1 0
    outer loop
      vertex 52.0721 50.6 -24
      vertex 69.5016 50.6 -21
      vertex 68.0405 50.6 -24
    endloop
  endfacet
  facet normal 0 1 0
    outer loop
      vertex 50.4984 50.6 -24
      vertex 69.5016 50.6 -21
      vertex 52.0721 50.6 -24
    endloop
  endfacet
  facet normal 0.866025 -0.5 0
    outer loop
      vertex 69.3573 50.35 -24
      vertex 69.5016 50.6 -24
      vertex 69.5016 50.6 -21
    endloop
  endfacet
  facet normal 0.866025 -0.5 0
    outer loop
      vertex 69.3573 50.35 -21
      vertex 69.3573 50.35 -24
      vertex 69.5016 50.6 -21
    endloop
  endfacet
  facet normal 0.866025 0.5 0
    outer loop
      vertex 69.3573 50.35 -24
      vertex 69.3573 50.35 -21
      vertex 69.8053 49.574 -21
    endloop
  endfacet
  facet normal 0.866025 0.5 0
    outer loop
      vertex 69.8053 49.574 -24
      vertex 69.3573 50.35 -24
      vertex 69.8053 49.574 -21
    endloop
  endfacet
  facet normal 0.866025 0.5 0
    outer loop
      vertex 69.8053 49.574 -24
      vertex 69.8053 49.574 -21
      vertex 70.9573 47.5786 -21
    endloop
  endfacet
  facet normal 0.866025 0.5 0
    outer loop
      vertex 70.9573 47.5786 -24
      vertex 69.8053 49.574 -24
      vertex 70.9573 47.5786 -21
    endloop
  endfacet
  facet normal 1.64603e-08 1 0
    outer loop
      vertex 70.9573 47.5786 -21
      vertex 74.1574 47.5786 -21
      vertex 70.9573 47.5786 -24
    endloop
  endfacet
  facet normal 1.64603e-08 1 0
    outer loop
      vertex 70.9573 47.5786 -24
      vertex 74.1574 47.5786 -21
      vertex 74.1574 47.5786 -24
    endloop
  endfacet
  facet normal -0.866025 0.5 0
    outer loop
      vertex 74.1574 47.5786 -21
      vertex 75.7575 50.35 -21
      vertex 74.1574 47.5786 -24
    endloop
  endfacet
  facet normal -0.866025 0.5 0
    outer loop
      vertex 74.1574 47.5786 -24
      vertex 75.7575 50.35 -21
      vertex 75.7575 50.35 -24
    endloop
  endfacet
  facet normal -0.866025 -0.5 0
    outer loop
      vertex 75.7575 50.35 -24
      vertex 75.7575 50.35 -21
      vertex 75.6131 50.6 -24
    endloop
  endfacet
  facet normal -0.866025 -0.5 0
    outer loop
      vertex 75.6131 50.6 -24
      vertex 75.7575 50.35 -21
      vertex 75.6131 50.6 -21
    endloop
  endfacet
  facet normal 0 1 0
    outer loop
      vertex 75.6131 50.6 -21
      vertex 83 50.6 -21
      vertex 75.6131 50.6 -24
    endloop
  endfacet
  facet normal 0 1 0
    outer loop
      vertex 75.6131 50.6 -24
      vertex 83 50.6 -21
      vertex 83 50.6 -24
    endloop
  endfacet
  facet normal 1 0 0
    outer loop
      vertex 83 35.6 -24
      vertex 83 50.6 -24
      vertex 83 50.6 -21
    endloop
  endfacet
  facet normal 1 0 0
    outer loop
      vertex 83 35.6 -21
      vertex 83 35.6 -24
      vertex 83 50.6 -21
    endloop
  endfacet
  facet normal 0.968583 0.24869 0
    outer loop
      vertex 42.1646 38.7681 -24
      vertex 42.1646 38.7681 -21
      vertex 42.2799 38.319 -21
    endloop
  endfacet
  facet normal 0.968583 0.24869 0
    outer loop
      vertex 42.2799 38.319 -24
      vertex 42.1646 38.7681 -24
      vertex 42.2799 38.319 -21
    endloop
  endfacet
  facet normal 1 0 0
    outer loop
      vertex 42.1646 38.7681 -24
      vertex 42.1646 39.2319 -24
      vertex 42.1646 39.2319 -21
    endloop
  endfacet
  facet normal 1 0 0
    outer loop
      vertex 42.1646 38.7681 -21
      vertex 42.1646 38.7681 -24
      vertex 42.1646 39.2319 -21
    endloop
  endfacet
  facet normal 0.876307 0.481753 0
    outer loop
      vertex 42.2799 38.319 -24
      vertex 42.2799 38.319 -21
      vertex 42.5033 37.9126 -21
    endloop
  endfacet
  facet normal 0.876307 0.481753 0
    outer loop
      vertex 42.5033 37.9126 -24
      vertex 42.2799 38.319 -24
      vertex 42.5033 37.9126 -21
    endloop
  endfacet
  facet normal 0.728968 0.684548 0
    outer loop
      vertex 42.5033 37.9126 -24
      vertex 42.5033 37.9126 -21
      vertex 42.8208 37.5746 -21
    endloop
  endfacet
  facet normal 0.728968 0.684548 0
    outer loop
      vertex 42.8208 37.5746 -24
      vertex 42.5033 37.9126 -24
      vertex 42.8208 37.5746 -21
    endloop
  endfacet
  facet normal 0.535828 0.844327 0
    outer loop
      vertex 42.8208 37.5746 -21
      vertex 43.2123 37.3261 -21
      vertex 42.8208 37.5746 -24
    endloop
  endfacet
  facet normal 0.535828 0.844327 0
    outer loop
      vertex 42.8208 37.5746 -24
      vertex 43.2123 37.3261 -21
      vertex 43.2123 37.3261 -24
    endloop
  endfacet
  facet normal 0.309016 0.951057 0
    outer loop
      vertex 43.2123 37.3261 -21
      vertex 43.6533 37.1828 -21
      vertex 43.2123 37.3261 -24
    endloop
  endfacet
  facet normal 0.309016 0.951057 0
    outer loop
      vertex 43.2123 37.3261 -24
      vertex 43.6533 37.1828 -21
      vertex 43.6533 37.1828 -24
    endloop
  endfacet
  facet normal 0.0627906 0.998027 0
    outer loop
      vertex 43.6533 37.1828 -21
      vertex 44.1162 37.1537 -21
      vertex 43.6533 37.1828 -24
    endloop
  endfacet
  facet normal 0.0627906 0.998027 0
    outer loop
      vertex 43.6533 37.1828 -24
      vertex 44.1162 37.1537 -21
      vertex 44.1162 37.1537 -24
    endloop
  endfacet
  facet normal -0.187379 0.982288 0
    outer loop
      vertex 44.1162 37.1537 -21
      vertex 44.5717 37.2405 -21
      vertex 44.1162 37.1537 -24
    endloop
  endfacet
  facet normal -0.187379 0.982288 0
    outer loop
      vertex 44.1162 37.1537 -24
      vertex 44.5717 37.2405 -21
      vertex 44.5717 37.2405 -24
    endloop
  endfacet
  facet normal -0.425779 0.904827 0
    outer loop
      vertex 44.5717 37.2405 -21
      vertex 44.9913 37.438 -21
      vertex 44.5717 37.2405 -24
    endloop
  endfacet
  facet normal -0.425779 0.904827 0
    outer loop
      vertex 44.5717 37.2405 -24
      vertex 44.9913 37.438 -21
      vertex 44.9913 37.438 -24
    endloop
  endfacet
  facet normal -0.637425 0.770512 0
    outer loop
      vertex 44.9913 37.438 -21
      vertex 45.3486 37.7336 -21
      vertex 44.9913 37.438 -24
    endloop
  endfacet
  facet normal -0.637425 0.770512 0
    outer loop
      vertex 44.9913 37.438 -24
      vertex 45.3486 37.7336 -21
      vertex 45.3486 37.7336 -24
    endloop
  endfacet
  facet normal -0.809018 0.587785 0
    outer loop
      vertex 45.3486 37.7336 -21
      vertex 45.6212 38.1088 -21
      vertex 45.3486 37.7336 -24
    endloop
  endfacet
  facet normal -0.809018 0.587785 0
    outer loop
      vertex 45.3486 37.7336 -24
      vertex 45.6212 38.1088 -21
      vertex 45.6212 38.1088 -24
    endloop
  endfacet
  facet normal -0.929776 0.368126 0
    outer loop
      vertex 45.6212 38.1088 -21
      vertex 45.7919 38.5399 -21
      vertex 45.6212 38.1088 -24
    endloop
  endfacet
  facet normal -0.929776 0.368126 0
    outer loop
      vertex 45.6212 38.1088 -24
      vertex 45.7919 38.5399 -21
      vertex 45.7919 38.5399 -24
    endloop
  endfacet
  facet normal -0.992115 0.125333 0
    outer loop
      vertex 45.7919 38.5399 -21
      vertex 45.85 39 -21
      vertex 45.7919 38.5399 -24
    endloop
  endfacet
  facet normal -0.992115 0.125333 0
    outer loop
      vertex 45.7919 38.5399 -24
      vertex 45.85 39 -21
      vertex 45.85 39 -24
    endloop
  endfacet
  facet normal -0.992115 -0.125333 0
    outer loop
      vertex 45.85 39 -24
      vertex 45.85 39 -21
      vertex 45.7919 39.4601 -24
    endloop
  endfacet
  facet normal -0.992115 -0.125333 0
    outer loop
      vertex 45.7919 39.4601 -24
      vertex 45.85 39 -21
      vertex 45.7919 39.4601 -21
    endloop
  endfacet
  facet normal -0.929776 -0.368126 0
    outer loop
      vertex 45.7919 39.4601 -24
      vertex 45.7919 39.4601 -21
      vertex 45.6212 39.8912 -24
    endloop
  endfacet
  facet normal -0.929776 -0.368126 0
    outer loop
      vertex 45.6212 39.8912 -24
      vertex 45.7919 39.4601 -21
      vertex 45.6212 39.8912 -21
    endloop
  endfacet
  facet normal -0.809018 -0.587785 0
    outer loop
      vertex 45.6212 39.8912 -24
      vertex 45.6212 39.8912 -21
      vertex 45.3486 40.2664 -24
    endloop
  endfacet
  facet normal -0.809018 -0.587785 0
    outer loop
      vertex 45.3486 40.2664 -24
      vertex 45.6212 39.8912 -21
      vertex 45.3486 40.2664 -21
    endloop
  endfacet
  facet normal -0.637425 -0.770512 0
    outer loop
      vertex 44.9913 40.562 -24
      vertex 45.3486 40.2664 -24
      vertex 45.3486 40.2664 -21
    endloop
  endfacet
  facet normal -0.637425 -0.770512 0
    outer loop
      vertex 44.9913 40.562 -21
      vertex 44.9913 40.562 -24
      vertex 45.3486 40.2664 -21
    endloop
  endfacet
  facet normal -0.425779 -0.904827 0
    outer loop
      vertex 44.5717 40.7595 -24
      vertex 44.9913 40.562 -24
      vertex 44.9913 40.562 -21
    endloop
  endfacet
  facet normal -0.425779 -0.904827 0
    outer loop
      vertex 44.5717 40.7595 -21
      vertex 44.5717 40.7595 -24
      vertex 44.9913 40.562 -21
    endloop
  endfacet
  facet normal -0.187379 -0.982288 0
    outer loop
      vertex 44.1162 40.8463 -24
      vertex 44.5717 40.7595 -24
      vertex 44.5717 40.7595 -21
    endloop
  endfacet
  facet normal -0.187379 -0.982288 0
    outer loop
      vertex 44.1162 40.8463 -21
      vertex 44.1162 40.8463 -24
      vertex 44.5717 40.7595 -21
    endloop
  endfacet
  facet normal 0.0627906 -0.998027 0
    outer loop
      vertex 43.6533 40.8172 -24
      vertex 44.1162 40.8463 -24
      vertex 44.1162 40.8463 -21
    endloop
  endfacet
  facet normal 0.0627906 -0.998027 0
    outer loop
      vertex 43.6533 40.8172 -21
      vertex 43.6533 40.8172 -24
      vertex 44.1162 40.8463 -21
    endloop
  endfacet
  facet normal 0.309016 -0.951057 0
    outer loop
      vertex 43.2123 40.6739 -24
      vertex 43.6533 40.8172 -24
      vertex 43.6533 40.8172 -21
    endloop
  endfacet
  facet normal 0.309016 -0.951057 0
    outer loop
      vertex 43.2123 40.6739 -21
      vertex 43.2123 40.6739 -24
      vertex 43.6533 40.8172 -21
    endloop
  endfacet
  facet normal 0.535828 -0.844327 0
    outer loop
      vertex 42.8208 40.4254 -24
      vertex 43.2123 40.6739 -24
      vertex 43.2123 40.6739 -21
    endloop
  endfacet
  facet normal 0.535828 -0.844327 0
    outer loop
      vertex 42.8208 40.4254 -21
      vertex 42.8208 40.4254 -24
      vertex 43.2123 40.6739 -21
    endloop
  endfacet
  facet normal 0.728968 -0.684548 0
    outer loop
      vertex 42.5033 40.0874 -24
      vertex 42.8208 40.4254 -24
      vertex 42.8208 40.4254 -21
    endloop
  endfacet
  facet normal 0.728968 -0.684548 0
    outer loop
      vertex 42.5033 40.0874 -21
      vertex 42.5033 40.0874 -24
      vertex 42.8208 40.4254 -21
    endloop
  endfacet
  facet normal 0.876307 -0.481753 0
    outer loop
      vertex 42.2799 39.681 -24
      vertex 42.5033 40.0874 -24
      vertex 42.5033 40.0874 -21
    endloop
  endfacet
  facet normal 0.876307 -0.481753 0
    outer loop
      vertex 42.2799 39.681 -21
      vertex 42.2799 39.681 -24
      vertex 42.5033 40.0874 -21
    endloop
  endfacet
  facet normal 0.968583 -0.24869 0
    outer loop
      vertex 42.1646 39.2319 -24
      vertex 42.2799 39.681 -24
      vertex 42.2799 39.681 -21
    endloop
  endfacet
  facet normal 0.968583 -0.24869 0
    outer loop
      vertex 42.1646 39.2319 -21
      vertex 42.1646 39.2319 -24
      vertex 42.2799 39.681 -21
    endloop
  endfacet
  facet normal -0.968583 -0.24869 0
    outer loop
      vertex 54.8862 41.0753 -21
      vertex 54.8862 41.0753 -11
      vertex 54.5434 42.4107 -21
    endloop
  endfacet
  facet normal -0.968583 -0.24869 0
    outer loop
      vertex 54.5434 42.4107 -21
      vertex 54.8862 41.0753 -11
      vertex 54.5434 42.4107 -11
    endloop
  endfacet
  facet normal -1 0 0
    outer loop
      vertex 54.5434 42.4107 -11
      vertex 54.5434 43.7893 -11
      vertex 54.5434 42.4107 -21
    endloop
  endfacet
  facet normal -1 0 0
    outer loop
      vertex 54.5434 42.4107 -21
      vertex 54.5434 43.7893 -11
      vertex 54.5434 43.7893 -21
    endloop
  endfacet
  facet normal -0.876306 -0.481754 0
    outer loop
      vertex 55.5504 39.8672 -21
      vertex 55.5504 39.8672 -11
      vertex 54.8862 41.0753 -21
    endloop
  endfacet
  facet normal -0.876306 -0.481754 0
    outer loop
      vertex 54.8862 41.0753 -21
      vertex 55.5504 39.8672 -11
      vertex 54.8862 41.0753 -11
    endloop
  endfacet
  facet normal -0.728969 -0.684547 0
    outer loop
      vertex 56.4942 38.8622 -21
      vertex 56.4942 38.8622 -11
      vertex 55.5504 39.8672 -21
    endloop
  endfacet
  facet normal -0.728969 -0.684547 0
    outer loop
      vertex 55.5504 39.8672 -21
      vertex 56.4942 38.8622 -11
      vertex 55.5504 39.8672 -11
    endloop
  endfacet
  facet normal -0.535827 -0.844328 0
    outer loop
      vertex 56.4942 38.8622 -21
      vertex 57.6582 38.1235 -21
      vertex 57.6582 38.1235 -11
    endloop
  endfacet
  facet normal -0.535827 -0.844328 0
    outer loop
      vertex 56.4942 38.8622 -11
      vertex 56.4942 38.8622 -21
      vertex 57.6582 38.1235 -11
    endloop
  endfacet
  facet normal -0.309017 -0.951057 0
    outer loop
      vertex 57.6582 38.1235 -21
      vertex 58.9694 37.6974 -21
      vertex 58.9694 37.6974 -11
    endloop
  endfacet
  facet normal -0.309017 -0.951057 0
    outer loop
      vertex 57.6582 38.1235 -11
      vertex 57.6582 38.1235 -21
      vertex 58.9694 37.6974 -11
    endloop
  endfacet
  facet normal -0.0627904 -0.998027 0
    outer loop
      vertex 58.9694 37.6974 -21
      vertex 60.3453 37.6109 -21
      vertex 60.3453 37.6109 -11
    endloop
  endfacet
  facet normal -0.0627904 -0.998027 0
    outer loop
      vertex 58.9694 37.6974 -11
      vertex 58.9694 37.6974 -21
      vertex 60.3453 37.6109 -11
    endloop
  endfacet
  facet normal 0.187381 -0.982287 0
    outer loop
      vertex 60.3453 37.6109 -21
      vertex 61.6996 37.8692 -21
      vertex 61.6996 37.8692 -11
    endloop
  endfacet
  facet normal 0.187381 -0.982287 0
    outer loop
      vertex 60.3453 37.6109 -11
      vertex 60.3453 37.6109 -21
      vertex 61.6996 37.8692 -11
    endloop
  endfacet
  facet normal 0.425779 -0.904827 0
    outer loop
      vertex 61.6996 37.8692 -21
      vertex 62.947 38.4562 -21
      vertex 62.947 38.4562 -11
    endloop
  endfacet
  facet normal 0.425779 -0.904827 0
    outer loop
      vertex 61.6996 37.8692 -11
      vertex 61.6996 37.8692 -21
      vertex 62.947 38.4562 -11
    endloop
  endfacet
  facet normal 0.637424 -0.770513 0
    outer loop
      vertex 62.947 38.4562 -21
      vertex 64.0093 39.335 -21
      vertex 64.0093 39.335 -11
    endloop
  endfacet
  facet normal 0.637424 -0.770513 0
    outer loop
      vertex 62.947 38.4562 -11
      vertex 62.947 38.4562 -21
      vertex 64.0093 39.335 -11
    endloop
  endfacet
  facet normal 0.809017 -0.587786 0
    outer loop
      vertex 64.0093 39.335 -21
      vertex 64.8197 40.4504 -21
      vertex 64.8197 40.4504 -11
    endloop
  endfacet
  facet normal 0.809017 -0.587786 0
    outer loop
      vertex 64.0093 39.335 -11
      vertex 64.0093 39.335 -21
      vertex 64.8197 40.4504 -11
    endloop
  endfacet
  facet normal 0.929777 -0.368124 0
    outer loop
      vertex 64.8197 40.4504 -21
      vertex 65.3272 41.7322 -21
      vertex 65.3272 41.7322 -11
    endloop
  endfacet
  facet normal 0.929777 -0.368124 0
    outer loop
      vertex 64.8197 40.4504 -11
      vertex 64.8197 40.4504 -21
      vertex 65.3272 41.7322 -11
    endloop
  endfacet
  facet normal 0.992115 -0.125334 0
    outer loop
      vertex 65.3272 41.7322 -21
      vertex 65.5 43.1 -21
      vertex 65.5 43.1 -11
    endloop
  endfacet
  facet normal 0.992115 -0.125334 0
    outer loop
      vertex 65.3272 41.7322 -11
      vertex 65.3272 41.7322 -21
      vertex 65.5 43.1 -11
    endloop
  endfacet
  facet normal 0.992115 0.125334 0
    outer loop
      vertex 65.3272 44.4678 -21
      vertex 65.3272 44.4678 -11
      vertex 65.5 43.1 -11
    endloop
  endfacet
  facet normal 0.992115 0.125334 0
    outer loop
      vertex 65.5 43.1 -21
      vertex 65.3272 44.4678 -21
      vertex 65.5 43.1 -11
    endloop
  endfacet
  facet normal 0.929777 0.368124 0
    outer loop
      vertex 64.8197 45.7496 -21
      vertex 64.8197 45.7496 -11
      vertex 65.3272 44.4678 -11
    endloop
  endfacet
  facet normal 0.929777 0.368124 0
    outer loop
      vertex 65.3272 44.4678 -21
      vertex 64.8197 45.7496 -21
      vertex 65.3272 44.4678 -11
    endloop
  endfacet
  facet normal 0.809017 0.587786 0
    outer loop
      vertex 64.0093 46.865 -21
      vertex 64.0093 46.865 -11
      vertex 64.8197 45.7496 -11
    endloop
  endfacet
  facet normal 0.809017 0.587786 0
    outer loop
      vertex 64.8197 45.7496 -21
      vertex 64.0093 46.865 -21
      vertex 64.8197 45.7496 -11
    endloop
  endfacet
  facet normal 0.637424 0.770513 0
    outer loop
      vertex 62.947 47.7438 -11
      vertex 64.0093 46.865 -11
      vertex 62.947 47.7438 -21
    endloop
  endfacet
  facet normal 0.637424 0.770513 0
    outer loop
      vertex 62.947 47.7438 -21
      vertex 64.0093 46.865 -11
      vertex 64.0093 46.865 -21
    endloop
  endfacet
  facet normal 0.425779 0.904827 0
    outer loop
      vertex 61.6996 48.3308 -11
      vertex 62.947 47.7438 -11
      vertex 61.6996 48.3308 -21
    endloop
  endfacet
  facet normal 0.425779 0.904827 0
    outer loop
      vertex 61.6996 48.3308 -21
      vertex 62.947 47.7438 -11
      vertex 62.947 47.7438 -21
    endloop
  endfacet
  facet normal 0.187381 0.982287 0
    outer loop
      vertex 60.3453 48.5891 -11
      vertex 61.6996 48.3308 -11
      vertex 60.3453 48.5891 -21
    endloop
  endfacet
  facet normal 0.187381 0.982287 0
    outer loop
      vertex 60.3453 48.5891 -21
      vertex 61.6996 48.3308 -11
      vertex 61.6996 48.3308 -21
    endloop
  endfacet
  facet normal -0.0627904 0.998027 0
    outer loop
      vertex 58.9694 48.5026 -11
      vertex 60.3453 48.5891 -11
      vertex 58.9694 48.5026 -21
    endloop
  endfacet
  facet normal -0.0627904 0.998027 0
    outer loop
      vertex 58.9694 48.5026 -21
      vertex 60.3453 48.5891 -11
      vertex 60.3453 48.5891 -21
    endloop
  endfacet
  facet normal -0.309017 0.951057 0
    outer loop
      vertex 57.6582 48.0765 -11
      vertex 58.9694 48.5026 -11
      vertex 57.6582 48.0765 -21
    endloop
  endfacet
  facet normal -0.309017 0.951057 0
    outer loop
      vertex 57.6582 48.0765 -21
      vertex 58.9694 48.5026 -11
      vertex 58.9694 48.5026 -21
    endloop
  endfacet
  facet normal -0.535827 0.844328 0
    outer loop
      vertex 56.4942 47.3378 -11
      vertex 57.6582 48.0765 -11
      vertex 56.4942 47.3378 -21
    endloop
  endfacet
  facet normal -0.535827 0.844328 0
    outer loop
      vertex 56.4942 47.3378 -21
      vertex 57.6582 48.0765 -11
      vertex 57.6582 48.0765 -21
    endloop
  endfacet
  facet normal -0.728969 0.684547 0
    outer loop
      vertex 55.5504 46.3328 -11
      vertex 56.4942 47.3378 -11
      vertex 55.5504 46.3328 -21
    endloop
  endfacet
  facet normal -0.728969 0.684547 0
    outer loop
      vertex 55.5504 46.3328 -21
      vertex 56.4942 47.3378 -11
      vertex 56.4942 47.3378 -21
    endloop
  endfacet
  facet normal -0.876306 0.481754 0
    outer loop
      vertex 54.8862 45.1247 -11
      vertex 55.5504 46.3328 -11
      vertex 54.8862 45.1247 -21
    endloop
  endfacet
  facet normal -0.876306 0.481754 0
    outer loop
      vertex 54.8862 45.1247 -21
      vertex 55.5504 46.3328 -11
      vertex 55.5504 46.3328 -21
    endloop
  endfacet
  facet normal -0.968583 0.24869 0
    outer loop
      vertex 54.5434 43.7893 -11
      vertex 54.8862 45.1247 -11
      vertex 54.5434 43.7893 -21
    endloop
  endfacet
  facet normal -0.968583 0.24869 0
    outer loop
      vertex 54.5434 43.7893 -21
      vertex 54.8862 45.1247 -11
      vertex 54.8862 45.1247 -21
    endloop
  endfacet
  facet normal 1 0 0
    outer loop
      vertex 74.1646 38.7681 -24
      vertex 74.1646 39.2319 -24
      vertex 74.1646 39.2319 -21
    endloop
  endfacet
  facet normal 1 0 0
    outer loop
      vertex 74.1646 38.7681 -21
      vertex 74.1646 38.7681 -24
      vertex 74.1646 39.2319 -21
    endloop
  endfacet
  facet normal 0.968583 0.24869 0
    outer loop
      vertex 74.1646 38.7681 -24
      vertex 74.1646 38.7681 -21
      vertex 74.2799 38.319 -21
    endloop
  endfacet
  facet normal 0.968583 0.24869 0
    outer loop
      vertex 74.2799 38.319 -24
      vertex 74.1646 38.7681 -24
      vertex 74.2799 38.319 -21
    endloop
  endfacet
  facet normal 0.876307 0.481753 0
    outer loop
      vertex 74.2799 38.319 -24
      vertex 74.2799 38.319 -21
      vertex 74.5033 37.9126 -21
    endloop
  endfacet
  facet normal 0.876307 0.481753 0
    outer loop
      vertex 74.5033 37.9126 -24
      vertex 74.2799 38.319 -24
      vertex 74.5033 37.9126 -21
    endloop
  endfacet
  facet normal 0.728968 0.684548 0
    outer loop
      vertex 74.5033 37.9126 -24
      vertex 74.5033 37.9126 -21
      vertex 74.8208 37.5746 -21
    endloop
  endfacet
  facet normal 0.728968 0.684548 0
    outer loop
      vertex 74.8208 37.5746 -24
      vertex 74.5033 37.9126 -24
      vertex 74.8208 37.5746 -21
    endloop
  endfacet
  facet normal 0.535828 0.844327 0
    outer loop
      vertex 74.8208 37.5746 -21
      vertex 75.2123 37.3261 -21
      vertex 74.8208 37.5746 -24
    endloop
  endfacet
  facet normal 0.535828 0.844327 0
    outer loop
      vertex 74.8208 37.5746 -24
      vertex 75.2123 37.3261 -21
      vertex 75.2123 37.3261 -24
    endloop
  endfacet
  facet normal 0.309016 0.951057 0
    outer loop
      vertex 75.2123 37.3261 -21
      vertex 75.6533 37.1828 -21
      vertex 75.2123 37.3261 -24
    endloop
  endfacet
  facet normal 0.309016 0.951057 0
    outer loop
      vertex 75.2123 37.3261 -24
      vertex 75.6533 37.1828 -21
      vertex 75.6533 37.1828 -24
    endloop
  endfacet
  facet normal 0.0627906 0.998027 0
    outer loop
      vertex 75.6533 37.1828 -21
      vertex 76.1162 37.1537 -21
      vertex 75.6533 37.1828 -24
    endloop
  endfacet
  facet normal 0.0627906 0.998027 0
    outer loop
      vertex 75.6533 37.1828 -24
      vertex 76.1162 37.1537 -21
      vertex 76.1162 37.1537 -24
    endloop
  endfacet
  facet normal -0.187379 0.982288 0
    outer loop
      vertex 76.1162 37.1537 -21
      vertex 76.5717 37.2405 -21
      vertex 76.1162 37.1537 -24
    endloop
  endfacet
  facet normal -0.187379 0.982288 0
    outer loop
      vertex 76.1162 37.1537 -24
      vertex 76.5717 37.2405 -21
      vertex 76.5717 37.2405 -24
    endloop
  endfacet
  facet normal -0.425779 0.904827 0
    outer loop
      vertex 76.5717 37.2405 -21
      vertex 76.9913 37.438 -21
      vertex 76.5717 37.2405 -24
    endloop
  endfacet
  facet normal -0.425779 0.904827 0
    outer loop
      vertex 76.5717 37.2405 -24
      vertex 76.9913 37.438 -21
      vertex 76.9913 37.438 -24
    endloop
  endfacet
  facet normal -0.637425 0.770512 0
    outer loop
      vertex 76.9913 37.438 -21
      vertex 77.3486 37.7336 -21
      vertex 76.9913 37.438 -24
    endloop
  endfacet
  facet normal -0.637425 0.770512 0
    outer loop
      vertex 76.9913 37.438 -24
      vertex 77.3486 37.7336 -21
      vertex 77.3486 37.7336 -24
    endloop
  endfacet
  facet normal -0.809018 0.587785 0
    outer loop
      vertex 77.3486 37.7336 -21
      vertex 77.6212 38.1088 -21
      vertex 77.3486 37.7336 -24
    endloop
  endfacet
  facet normal -0.809018 0.587785 0
    outer loop
      vertex 77.3486 37.7336 -24
      vertex 77.6212 38.1088 -21
      vertex 77.6212 38.1088 -24
    endloop
  endfacet
  facet normal -0.929776 0.368126 0
    outer loop
      vertex 77.6212 38.1088 -21
      vertex 77.7919 38.5399 -21
      vertex 77.6212 38.1088 -24
    endloop
  endfacet
  facet normal -0.929776 0.368126 0
    outer loop
      vertex 77.6212 38.1088 -24
      vertex 77.7919 38.5399 -21
      vertex 77.7919 38.5399 -24
    endloop
  endfacet
  facet normal -0.992115 0.125333 0
    outer loop
      vertex 77.7919 38.5399 -21
      vertex 77.85 39 -21
      vertex 77.7919 38.5399 -24
    endloop
  endfacet
  facet normal -0.992115 0.125333 0
    outer loop
      vertex 77.7919 38.5399 -24
      vertex 77.85 39 -21
      vertex 77.85 39 -24
    endloop
  endfacet
  facet normal -0.992115 -0.125333 0
    outer loop
      vertex 77.85 39 -24
      vertex 77.85 39 -21
      vertex 77.7919 39.4601 -24
    endloop
  endfacet
  facet normal -0.992115 -0.125333 0
    outer loop
      vertex 77.7919 39.4601 -24
      vertex 77.85 39 -21
      vertex 77.7919 39.4601 -21
    endloop
  endfacet
  facet normal -0.929776 -0.368126 0
    outer loop
      vertex 77.7919 39.4601 -24
      vertex 77.7919 39.4601 -21
      vertex 77.6212 39.8912 -24
    endloop
  endfacet
  facet normal -0.929776 -0.368126 0
    outer loop
      vertex 77.6212 39.8912 -24
      vertex 77.7919 39.4601 -21
      vertex 77.6212 39.8912 -21
    endloop
  endfacet
  facet normal -0.809018 -0.587785 0
    outer loop
      vertex 77.6212 39.8912 -24
      vertex 77.6212 39.8912 -21
      vertex 77.3486 40.2664 -24
    endloop
  endfacet
  facet normal -0.809018 -0.587785 0
    outer loop
      vertex 77.3486 40.2664 -24
      vertex 77.6212 39.8912 -21
      vertex 77.3486 40.2664 -21
    endloop
  endfacet
  facet normal -0.637425 -0.770512 0
    outer loop
      vertex 76.9913 40.562 -24
      vertex 77.3486 40.2664 -24
      vertex 77.3486 40.2664 -21
    endloop
  endfacet
  facet normal -0.637425 -0.770512 0
    outer loop
      vertex 76.9913 40.562 -21
      vertex 76.9913 40.562 -24
      vertex 77.3486 40.2664 -21
    endloop
  endfacet
  facet normal -0.425779 -0.904827 0
    outer loop
      vertex 76.5717 40.7595 -24
      vertex 76.9913 40.562 -24
      vertex 76.9913 40.562 -21
    endloop
  endfacet
  facet normal -0.425779 -0.904827 0
    outer loop
      vertex 76.5717 40.7595 -21
      vertex 76.5717 40.7595 -24
      vertex 76.9913 40.562 -21
    endloop
  endfacet
  facet normal -0.187379 -0.982288 0
    outer loop
      vertex 76.1162 40.8463 -24
      vertex 76.5717 40.7595 -24
      vertex 76.5717 40.7595 -21
    endloop
  endfacet
  facet normal -0.187379 -0.982288 0
    outer loop
      vertex 76.1162 40.8463 -21
      vertex 76.1162 40.8463 -24
      vertex 76.5717 40.7595 -21
    endloop
  endfacet
  facet normal 0.0627906 -0.998027 0
    outer loop
      vertex 75.6533 40.8172 -24
      vertex 76.1162 40.8463 -24
      vertex 76.1162 40.8463 -21
    endloop
  endfacet
  facet normal 0.0627906 -0.998027 0
    outer loop
      vertex 75.6533 40.8172 -21
      vertex 75.6533 40.8172 -24
      vertex 76.1162 40.8463 -21
    endloop
  endfacet
  facet normal 0.309016 -0.951057 0
    outer loop
      vertex 75.2123 40.6739 -24
      vertex 75.6533 40.8172 -24
      vertex 75.6533 40.8172 -21
    endloop
  endfacet
  facet normal 0.309016 -0.951057 0
    outer loop
      vertex 75.2123 40.6739 -21
      vertex 75.2123 40.6739 -24
      vertex 75.6533 40.8172 -21
    endloop
  endfacet
  facet normal 0.535828 -0.844327 0
    outer loop
      vertex 74.8208 40.4254 -24
      vertex 75.2123 40.6739 -24
      vertex 75.2123 40.6739 -21
    endloop
  endfacet
  facet normal 0.535828 -0.844327 0
    outer loop
      vertex 74.8208 40.4254 -21
      vertex 74.8208 40.4254 -24
      vertex 75.2123 40.6739 -21
    endloop
  endfacet
  facet normal 0.728968 -0.684548 0
    outer loop
      vertex 74.5033 40.0874 -24
      vertex 74.8208 40.4254 -24
      vertex 74.8208 40.4254 -21
    endloop
  endfacet
  facet normal 0.728968 -0.684548 0
    outer loop
      vertex 74.5033 40.0874 -21
      vertex 74.5033 40.0874 -24
      vertex 74.8208 40.4254 -21
    endloop
  endfacet
  facet normal 0.876307 -0.481753 0
    outer loop
      vertex 74.2799 39.681 -24
      vertex 74.5033 40.0874 -24
      vertex 74.5033 40.0874 -21
    endloop
  endfacet
  facet normal 0.876307 -0.481753 0
    outer loop
      vertex 74.2799 39.681 -21
      vertex 74.2799 39.681 -24
      vertex 74.5033 40.0874 -21
    endloop
  endfacet
  facet normal 0.968583 -0.24869 0
    outer loop
      vertex 74.1646 39.2319 -24
      vertex 74.2799 39.681 -24
      vertex 74.2799 39.681 -21
    endloop
  endfacet
  facet normal 0.968583 -0.24869 0
    outer loop
      vertex 74.1646 39.2319 -21
      vertex 74.1646 39.2319 -24
      vertex 74.2799 39.681 -21
    endloop
  endfacet
  facet normal 0 0 -1
    outer loop
      vertex 69.6394 37.8007 -24
      vertex 70.6544 40.3644 -24
      vertex 74.1574 47.5786 -24
    endloop
  endfacet
  facet normal 0 0 -1
    outer loop
      vertex 74.1574 47.5786 -24
      vertex 71 43.1 -24
      vertex 70.9573 47.5786 -24
    endloop
  endfacet
  facet normal 0 0 -1
    outer loop
      vertex 76.1162 37.1537 -24
      vertex 83 35.6 -24
      vertex 75.6533 37.1828 -24
    endloop
  endfacet
  facet normal 0 0 -1
    outer loop
      vertex 69.3573 50.35 -24
      vertex 69.6394 48.3993 -24
      vertex 68.0405 50.6 -24
    endloop
  endfacet
  facet normal 0 0 -1
    outer loop
      vertex 69.5016 50.6 -24
      vertex 69.3573 50.35 -24
      vertex 68.0405 50.6 -24
    endloop
  endfacet
  facet normal 0 0 -1
    outer loop
      vertex 71 43.1 -24
      vertex 70.6544 45.8356 -24
      vertex 70.9573 47.5786 -24
    endloop
  endfacet
  facet normal 0 0 -1
    outer loop
      vertex 70.6544 45.8356 -24
      vertex 69.8053 49.574 -24
      vertex 70.9573 47.5786 -24
    endloop
  endfacet
  facet normal 0 0 -1
    outer loop
      vertex 70.6544 40.3644 -24
      vertex 71 43.1 -24
      vertex 74.1574 47.5786 -24
    endloop
  endfacet
  facet normal 0 0 -1
    outer loop
      vertex 69.6394 37.8007 -24
      vertex 74.1574 47.5786 -24
      vertex 75.7575 50.35 -24
    endloop
  endfacet
  facet normal 0 0 -1
    outer loop
      vertex 69.6394 37.8007 -24
      vertex 83 50.6 -24
      vertex 68.0405 35.6 -24
    endloop
  endfacet
  facet normal 0 0 -1
    outer loop
      vertex 75.7575 50.35 -24
      vertex 83 50.6 -24
      vertex 69.6394 37.8007 -24
    endloop
  endfacet
  facet normal 0 0 -1
    outer loop
      vertex 75.7575 50.35 -24
      vertex 75.6131 50.6 -24
      vertex 83 50.6 -24
    endloop
  endfacet
  facet normal 0 0 -1
    outer loop
      vertex 75.6533 37.1828 -24
      vertex 83 35.6 -24
      vertex 68.0405 35.6 -24
    endloop
  endfacet
  facet normal 0 0 -1
    outer loop
      vertex 77.85 39 -24
      vertex 83 50.6 -24
      vertex 77.7919 38.5399 -24
    endloop
  endfacet
  facet normal 0 0 -1
    outer loop
      vertex 74.1646 39.2319 -24
      vertex 74.1646 38.7681 -24
      vertex 68.0405 35.6 -24
    endloop
  endfacet
  facet normal 0 0 -1
    outer loop
      vertex 74.1646 38.7681 -24
      vertex 74.2799 38.319 -24
      vertex 68.0405 35.6 -24
    endloop
  endfacet
  facet normal 0 0 -1
    outer loop
      vertex 77.3486 37.7336 -24
      vertex 83 35.6 -24
      vertex 76.9913 37.438 -24
    endloop
  endfacet
  facet normal 0 0 -1
    outer loop
      vertex 74.2799 38.319 -24
      vertex 74.5033 37.9126 -24
      vertex 68.0405 35.6 -24
    endloop
  endfacet
  facet normal 0 0 -1
    outer loop
      vertex 76.9913 37.438 -24
      vertex 83 35.6 -24
      vertex 76.5717 37.2405 -24
    endloop
  endfacet
  facet normal 0 0 -1
    outer loop
      vertex 74.5033 37.9126 -24
      vertex 74.8208 37.5746 -24
      vertex 68.0405 35.6 -24
    endloop
  endfacet
  facet normal 0 0 -1
    outer loop
      vertex 76.5717 37.2405 -24
      vertex 83 35.6 -24
      vertex 76.1162 37.1537 -24
    endloop
  endfacet
  facet normal 0 0 -1
    outer loop
      vertex 74.8208 37.5746 -24
      vertex 75.2123 37.3261 -24
      vertex 68.0405 35.6 -24
    endloop
  endfacet
  facet normal 0 0 -1
    outer loop
      vertex 75.2123 37.3261 -24
      vertex 75.6533 37.1828 -24
      vertex 68.0405 35.6 -24
    endloop
  endfacet
  facet normal 0 0 -1
    outer loop
      vertex 77.6212 38.1088 -24
      vertex 83 35.6 -24
      vertex 77.3486 37.7336 -24
    endloop
  endfacet
  facet normal 0 0 -1
    outer loop
      vertex 83 50.6 -24
      vertex 83 35.6 -24
      vertex 77.6212 38.1088 -24
    endloop
  endfacet
  facet normal 0 0 -1
    outer loop
      vertex 83 50.6 -24
      vertex 77.6212 38.1088 -24
      vertex 77.7919 38.5399 -24
    endloop
  endfacet
  facet normal 0 0 -1
    outer loop
      vertex 75.6533 40.8172 -24
      vertex 83 50.6 -24
      vertex 76.1162 40.8463 -24
    endloop
  endfacet
  facet normal 0 0 -1
    outer loop
      vertex 83 50.6 -24
      vertex 77.85 39 -24
      vertex 77.7919 39.4601 -24
    endloop
  endfacet
  facet normal 0 0 -1
    outer loop
      vertex 83 50.6 -24
      vertex 77.7919 39.4601 -24
      vertex 77.6212 39.8912 -24
    endloop
  endfacet
  facet normal 0 0 -1
    outer loop
      vertex 83 50.6 -24
      vertex 77.6212 39.8912 -24
      vertex 77.3486 40.2664 -24
    endloop
  endfacet
  facet normal 0 0 -1
    outer loop
      vertex 83 50.6 -24
      vertex 77.3486 40.2664 -24
      vertex 76.9913 40.562 -24
    endloop
  endfacet
  facet normal 0 0 -1
    outer loop
      vertex 83 50.6 -24
      vertex 76.9913 40.562 -24
      vertex 76.5717 40.7595 -24
    endloop
  endfacet
  facet normal 0 0 -1
    outer loop
      vertex 83 50.6 -24
      vertex 76.5717 40.7595 -24
      vertex 76.1162 40.8463 -24
    endloop
  endfacet
  facet normal 0 0 -1
    outer loop
      vertex 74.5033 40.0874 -24
      vertex 68.0405 35.6 -24
      vertex 74.8208 40.4254 -24
    endloop
  endfacet
  facet normal 0 0 -1
    outer loop
      vertex 83 50.6 -24
      vertex 75.6533 40.8172 -24
      vertex 75.2123 40.6739 -24
    endloop
  endfacet
  facet normal 0 0 -1
    outer loop
      vertex 83 50.6 -24
      vertex 75.2123 40.6739 -24
      vertex 74.8208 40.4254 -24
    endloop
  endfacet
  facet normal 0 0 -1
    outer loop
      vertex 83 50.6 -24
      vertex 74.8208 40.4254 -24
      vertex 68.0405 35.6 -24
    endloop
  endfacet
  facet normal 0 0 -1
    outer loop
      vertex 74.2799 39.681 -24
      vertex 68.0405 35.6 -24
      vertex 74.5033 40.0874 -24
    endloop
  endfacet
  facet normal 0 0 -1
    outer loop
      vertex 74.2799 39.681 -24
      vertex 74.1646 39.2319 -24
      vertex 68.0405 35.6 -24
    endloop
  endfacet
  facet normal 0 0 -1
    outer loop
      vertex 69.8053 49.574 -24
      vertex 70.6544 45.8356 -24
      vertex 69.6394 48.3993 -24
    endloop
  endfacet
  facet normal 0 0 -1
    outer loop
      vertex 69.8053 49.574 -24
      vertex 69.6394 48.3993 -24
      vertex 69.3573 50.35 -24
    endloop
  endfacet
  facet normal 0 0 -1
    outer loop
      vertex 49.0867 44.4787 -24
      vertex 49.7725 47.1494 -24
      vertex 49.0867 41.7213 -24
    endloop
  endfacet
  facet normal 0 0 -1
    outer loop
      vertex 49.0867 41.7213 -24
      vertex 49.7725 47.1494 -24
      vertex 51.1008 49.5656 -24
    endloop
  endfacet
  facet normal 0 0 -1
    outer loop
      vertex 49.0867 41.7213 -24
      vertex 51.1008 49.5656 -24
      vertex 52.0721 50.6 -24
    endloop
  endfacet
  facet normal 0 0 -1
    outer loop
      vertex 59.3442 46.538 -24
      vertex 52.0721 50.6 -24
      vertex 68.0405 50.6 -24
    endloop
  endfacet
  facet normal 0 0 -1
    outer loop
      vertex 61.8754 46.0551 -24
      vertex 68.0405 50.6 -24
      vertex 69.6394 48.3993 -24
    endloop
  endfacet
  facet normal 0 0 -1
    outer loop
      vertex 63.0671 44.7861 -24
      vertex 69.6394 48.3993 -24
      vertex 70.6544 45.8356 -24
    endloop
  endfacet
  facet normal 0 0 -1
    outer loop
      vertex 63.5 43.1 -24
      vertex 70.6544 45.8356 -24
      vertex 71 43.1 -24
    endloop
  endfacet
  facet normal 0 0 -1
    outer loop
      vertex 63.0671 41.4139 -24
      vertex 71 43.1 -24
      vertex 70.6544 40.3644 -24
    endloop
  endfacet
  facet normal 0 0 -1
    outer loop
      vertex 61.8754 40.1449 -24
      vertex 70.6544 40.3644 -24
      vertex 69.6394 37.8007 -24
    endloop
  endfacet
  facet normal 0 0 -1
    outer loop
      vertex 59.3442 39.662 -24
      vertex 69.6394 37.8007 -24
      vertex 68.0405 35.6 -24
    endloop
  endfacet
  facet normal 0 0 -1
    outer loop
      vertex 49.0867 41.7213 -24
      vertex 68.0405 35.6 -24
      vertex 52.0721 35.6 -24
    endloop
  endfacet
  facet normal 0 0 -1
    outer loop
      vertex 49.0867 41.7213 -24
      vertex 52.0721 35.6 -24
      vertex 51.1008 36.6344 -24
    endloop
  endfacet
  facet normal 0 0 -1
    outer loop
      vertex 49.0867 41.7213 -24
      vertex 51.1008 36.6344 -24
      vertex 49.7725 39.0506 -24
    endloop
  endfacet
  facet normal 0 0 -1
    outer loop
      vertex 56.7458 41.8116 -24
      vertex 49.0867 41.7213 -24
      vertex 56.5276 42.6613 -24
    endloop
  endfacet
  facet normal 0 0 -1
    outer loop
      vertex 57.1684 41.0428 -24
      vertex 49.0867 41.7213 -24
      vertex 56.7458 41.8116 -24
    endloop
  endfacet
  facet normal 0 0 -1
    outer loop
      vertex 59.3442 39.662 -24
      vertex 49.0867 41.7213 -24
      vertex 58.5098 39.9331 -24
    endloop
  endfacet
  facet normal 0 0 -1
    outer loop
      vertex 49.0867 41.7213 -24
      vertex 57.1684 41.0428 -24
      vertex 57.769 40.4032 -24
    endloop
  endfacet
  facet normal 0 0 -1
    outer loop
      vertex 49.0867 41.7213 -24
      vertex 57.769 40.4032 -24
      vertex 58.5098 39.9331 -24
    endloop
  endfacet
  facet normal 0 0 -1
    outer loop
      vertex 60.2198 39.6069 -24
      vertex 69.6394 37.8007 -24
      vertex 59.3442 39.662 -24
    endloop
  endfacet
  facet normal 0 0 -1
    outer loop
      vertex 49.0867 41.7213 -24
      vertex 59.3442 39.662 -24
      vertex 68.0405 35.6 -24
    endloop
  endfacet
  facet normal 0 0 -1
    outer loop
      vertex 61.0816 39.7713 -24
      vertex 69.6394 37.8007 -24
      vertex 60.2198 39.6069 -24
    endloop
  endfacet
  facet normal 0 0 -1
    outer loop
      vertex 61.8754 40.1449 -24
      vertex 69.6394 37.8007 -24
      vertex 61.0816 39.7713 -24
    endloop
  endfacet
  facet normal 0 0 -1
    outer loop
      vertex 62.5514 40.7041 -24
      vertex 70.6544 40.3644 -24
      vertex 61.8754 40.1449 -24
    endloop
  endfacet
  facet normal 0 0 -1
    outer loop
      vertex 63.0671 41.4139 -24
      vertex 70.6544 40.3644 -24
      vertex 62.5514 40.7041 -24
    endloop
  endfacet
  facet normal 0 0 -1
    outer loop
      vertex 63.39 42.2296 -24
      vertex 71 43.1 -24
      vertex 63.0671 41.4139 -24
    endloop
  endfacet
  facet normal 0 0 -1
    outer loop
      vertex 63.5 43.1 -24
      vertex 71 43.1 -24
      vertex 63.39 42.2296 -24
    endloop
  endfacet
  facet normal 0 0 -1
    outer loop
      vertex 63.39 43.9704 -24
      vertex 70.6544 45.8356 -24
      vertex 63.5 43.1 -24
    endloop
  endfacet
  facet normal 0 0 -1
    outer loop
      vertex 63.0671 44.7861 -24
      vertex 70.6544 45.8356 -24
      vertex 63.39 43.9704 -24
    endloop
  endfacet
  facet normal 0 0 -1
    outer loop
      vertex 62.5514 45.4959 -24
      vertex 69.6394 48.3993 -24
      vertex 63.0671 44.7861 -24
    endloop
  endfacet
  facet normal 0 0 -1
    outer loop
      vertex 61.0816 46.4287 -24
      vertex 68.0405 50.6 -24
      vertex 61.8754 46.0551 -24
    endloop
  endfacet
  facet normal 0 0 -1
    outer loop
      vertex 59.3442 46.538 -24
      vertex 68.0405 50.6 -24
      vertex 60.2198 46.5931 -24
    endloop
  endfacet
  facet normal 0 0 -1
    outer loop
      vertex 60.2198 46.5931 -24
      vertex 68.0405 50.6 -24
      vertex 61.0816 46.4287 -24
    endloop
  endfacet
  facet normal 0 0 -1
    outer loop
      vertex 58.5098 46.2669 -24
      vertex 52.0721 50.6 -24
      vertex 59.3442 46.538 -24
    endloop
  endfacet
  facet normal 0 0 -1
    outer loop
      vertex 57.769 45.7968 -24
      vertex 49.0867 41.7213 -24
      vertex 58.5098 46.2669 -24
    endloop
  endfacet
  facet normal 0 0 -1
    outer loop
      vertex 49.0867 41.7213 -24
      vertex 52.0721 50.6 -24
      vertex 58.5098 46.2669 -24
    endloop
  endfacet
  facet normal 0 0 -1
    outer loop
      vertex 57.1684 45.1572 -24
      vertex 49.0867 41.7213 -24
      vertex 57.769 45.7968 -24
    endloop
  endfacet
  facet normal 0 0 -1
    outer loop
      vertex 56.7458 44.3884 -24
      vertex 49.0867 41.7213 -24
      vertex 57.1684 45.1572 -24
    endloop
  endfacet
  facet normal 0 0 -1
    outer loop
      vertex 56.5276 43.5387 -24
      vertex 49.0867 41.7213 -24
      vertex 56.7458 44.3884 -24
    endloop
  endfacet
  facet normal 0 0 -1
    outer loop
      vertex 56.5276 42.6613 -24
      vertex 49.0867 41.7213 -24
      vertex 56.5276 43.5387 -24
    endloop
  endfacet
  facet normal 0 0 -1
    outer loop
      vertex 61.8754 46.0551 -24
      vertex 69.6394 48.3993 -24
      vertex 62.5514 45.4959 -24
    endloop
  endfacet
  facet normal 0 0 1
    outer loop
      vertex 54.5434 42.4107 -11
      vertex 54.8862 41.0753 -11
      vertex 55.5504 39.8672 -11
    endloop
  endfacet
  facet normal 0 0 1
    outer loop
      vertex 57.6582 38.1235 -11
      vertex 54.5434 42.4107 -11
      vertex 56.4942 38.8622 -11
    endloop
  endfacet
  facet normal 0 0 1
    outer loop
      vertex 56.4942 38.8622 -11
      vertex 54.5434 42.4107 -11
      vertex 55.5504 39.8672 -11
    endloop
  endfacet
  facet normal 0 0 1
    outer loop
      vertex 58.9694 37.6974 -11
      vertex 54.5434 42.4107 -11
      vertex 57.6582 38.1235 -11
    endloop
  endfacet
  facet normal 0 0 1
    outer loop
      vertex 60.3453 37.6109 -11
      vertex 54.5434 42.4107 -11
      vertex 58.9694 37.6974 -11
    endloop
  endfacet
  facet normal 0 0 1
    outer loop
      vertex 61.6996 37.8692 -11
      vertex 54.5434 42.4107 -11
      vertex 60.3453 37.6109 -11
    endloop
  endfacet
  facet normal 0 0 1
    outer loop
      vertex 62.947 38.4562 -11
      vertex 54.5434 42.4107 -11
      vertex 61.6996 37.8692 -11
    endloop
  endfacet
  facet normal 0 0 1
    outer loop
      vertex 58.8717 40.7022 -11
      vertex 54.5434 42.4107 -11
      vertex 62.947 38.4562 -11
    endloop
  endfacet
  facet normal 0 0 1
    outer loop
      vertex 58.8717 40.7022 -11
      vertex 58.3108 41.0581 -11
      vertex 54.5434 42.4107 -11
    endloop
  endfacet
  facet normal 0 0 1
    outer loop
      vertex 60.8189 40.5797 -11
      vertex 60.1664 40.4552 -11
      vertex 64.0093 39.335 -11
    endloop
  endfacet
  facet normal 0 0 1
    outer loop
      vertex 62.65 43.1 -11
      vertex 62.5667 42.441 -11
      vertex 65.5 43.1 -11
    endloop
  endfacet
  facet normal 0 0 1
    outer loop
      vertex 59.5034 45.7031 -11
      vertex 60.1664 45.7448 -11
      vertex 62.947 47.7438 -11
    endloop
  endfacet
  facet normal 0 0 1
    outer loop
      vertex 61.9318 44.914 -11
      vertex 62.3222 44.3766 -11
      vertex 64.8197 45.7496 -11
    endloop
  endfacet
  facet normal 0 0 1
    outer loop
      vertex 60.3453 48.5891 -11
      vertex 54.5434 42.4107 -11
      vertex 61.6996 48.3308 -11
    endloop
  endfacet
  facet normal 0 0 1
    outer loop
      vertex 58.9694 48.5026 -11
      vertex 54.5434 42.4107 -11
      vertex 60.3453 48.5891 -11
    endloop
  endfacet
  facet normal 0 0 1
    outer loop
      vertex 57.6582 48.0765 -11
      vertex 54.5434 42.4107 -11
      vertex 58.9694 48.5026 -11
    endloop
  endfacet
  facet normal 0 0 1
    outer loop
      vertex 56.4942 47.3378 -11
      vertex 54.5434 42.4107 -11
      vertex 57.6582 48.0765 -11
    endloop
  endfacet
  facet normal 0 0 1
    outer loop
      vertex 55.5504 46.3328 -11
      vertex 54.5434 42.4107 -11
      vertex 56.4942 47.3378 -11
    endloop
  endfacet
  facet normal 0 0 1
    outer loop
      vertex 54.8862 45.1247 -11
      vertex 54.5434 42.4107 -11
      vertex 55.5504 46.3328 -11
    endloop
  endfacet
  facet normal 0 0 1
    outer loop
      vertex 54.5434 43.7893 -11
      vertex 54.5434 42.4107 -11
      vertex 54.8862 45.1247 -11
    endloop
  endfacet
  facet normal 0 0 1
    outer loop
      vertex 62.5667 42.441 -11
      vertex 62.3222 41.8234 -11
      vertex 65.3272 41.7322 -11
    endloop
  endfacet
  facet normal 0 0 1
    outer loop
      vertex 57.5361 44.0755 -11
      vertex 57.8561 44.6576 -11
      vertex 54.5434 42.4107 -11
    endloop
  endfacet
  facet normal 0 0 1
    outer loop
      vertex 62.3222 44.3766 -11
      vertex 62.5667 43.759 -11
      vertex 65.3272 44.4678 -11
    endloop
  endfacet
  facet normal 0 0 1
    outer loop
      vertex 58.3108 45.1419 -11
      vertex 58.8717 45.4978 -11
      vertex 61.6996 48.3308 -11
    endloop
  endfacet
  facet normal 0 0 1
    outer loop
      vertex 60.8189 45.6203 -11
      vertex 61.4199 45.3375 -11
      vertex 64.0093 46.865 -11
    endloop
  endfacet
  facet normal 0 0 1
    outer loop
      vertex 58.3108 45.1419 -11
      vertex 54.5434 42.4107 -11
      vertex 57.8561 44.6576 -11
    endloop
  endfacet
  facet normal 0 0 1
    outer loop
      vertex 61.6996 48.3308 -11
      vertex 54.5434 42.4107 -11
      vertex 58.3108 45.1419 -11
    endloop
  endfacet
  facet normal 0 0 1
    outer loop
      vertex 61.6996 48.3308 -11
      vertex 58.8717 45.4978 -11
      vertex 62.947 47.7438 -11
    endloop
  endfacet
  facet normal 0 0 1
    outer loop
      vertex 58.8717 45.4978 -11
      vertex 59.5034 45.7031 -11
      vertex 62.947 47.7438 -11
    endloop
  endfacet
  facet normal 0 0 1
    outer loop
      vertex 62.947 47.7438 -11
      vertex 60.1664 45.7448 -11
      vertex 64.0093 46.865 -11
    endloop
  endfacet
  facet normal 0 0 1
    outer loop
      vertex 60.1664 45.7448 -11
      vertex 60.8189 45.6203 -11
      vertex 64.0093 46.865 -11
    endloop
  endfacet
  facet normal 0 0 1
    outer loop
      vertex 64.0093 46.865 -11
      vertex 61.4199 45.3375 -11
      vertex 64.8197 45.7496 -11
    endloop
  endfacet
  facet normal 0 0 1
    outer loop
      vertex 61.4199 45.3375 -11
      vertex 61.9318 44.914 -11
      vertex 64.8197 45.7496 -11
    endloop
  endfacet
  facet normal 0 0 1
    outer loop
      vertex 64.8197 45.7496 -11
      vertex 62.3222 44.3766 -11
      vertex 65.3272 44.4678 -11
    endloop
  endfacet
  facet normal 0 0 1
    outer loop
      vertex 57.3709 43.4321 -11
      vertex 57.5361 44.0755 -11
      vertex 54.5434 42.4107 -11
    endloop
  endfacet
  facet normal 0 0 1
    outer loop
      vertex 65.3272 44.4678 -11
      vertex 62.5667 43.759 -11
      vertex 65.5 43.1 -11
    endloop
  endfacet
  facet normal 0 0 1
    outer loop
      vertex 62.5667 43.759 -11
      vertex 62.65 43.1 -11
      vertex 65.5 43.1 -11
    endloop
  endfacet
  facet normal 0 0 1
    outer loop
      vertex 65.5 43.1 -11
      vertex 62.5667 42.441 -11
      vertex 65.3272 41.7322 -11
    endloop
  endfacet
  facet normal 0 0 1
    outer loop
      vertex 58.3108 41.0581 -11
      vertex 57.8561 41.5424 -11
      vertex 54.5434 42.4107 -11
    endloop
  endfacet
  facet normal 0 0 1
    outer loop
      vertex 65.3272 41.7322 -11
      vertex 62.3222 41.8234 -11
      vertex 64.8197 40.4504 -11
    endloop
  endfacet
  facet normal 0 0 1
    outer loop
      vertex 57.3709 42.7679 -11
      vertex 57.3709 43.4321 -11
      vertex 54.5434 42.4107 -11
    endloop
  endfacet
  facet normal 0 0 1
    outer loop
      vertex 62.3222 41.8234 -11
      vertex 61.9318 41.2859 -11
      vertex 64.8197 40.4504 -11
    endloop
  endfacet
  facet normal 0 0 1
    outer loop
      vertex 64.8197 40.4504 -11
      vertex 61.4199 40.8625 -11
      vertex 64.0093 39.335 -11
    endloop
  endfacet
  facet normal 0 0 1
    outer loop
      vertex 61.4199 40.8625 -11
      vertex 60.8189 40.5797 -11
      vertex 64.0093 39.335 -11
    endloop
  endfacet
  facet normal 0 0 1
    outer loop
      vertex 64.0093 39.335 -11
      vertex 60.1664 40.4552 -11
      vertex 62.947 38.4562 -11
    endloop
  endfacet
  facet normal 0 0 1
    outer loop
      vertex 60.1664 40.4552 -11
      vertex 59.5034 40.4969 -11
      vertex 62.947 38.4562 -11
    endloop
  endfacet
  facet normal 0 0 1
    outer loop
      vertex 59.5034 40.4969 -11
      vertex 58.8717 40.7022 -11
      vertex 62.947 38.4562 -11
    endloop
  endfacet
  facet normal 0 0 1
    outer loop
      vertex 57.8561 41.5424 -11
      vertex 57.5361 42.1245 -11
      vertex 54.5434 42.4107 -11
    endloop
  endfacet
  facet normal 0 0 1
    outer loop
      vertex 61.9318 41.2859 -11
      vertex 61.4199 40.8625 -11
      vertex 64.8197 40.4504 -11
    endloop
  endfacet
  facet normal 0 0 1
    outer loop
      vertex 57.5361 42.1245 -11
      vertex 57.3709 42.7679 -11
      vertex 54.5434 42.4107 -11
    endloop
  endfacet
  facet normal 1 0 0
    outer loop
      vertex 56.5276 42.6613 -24
      vertex 56.5276 43.5387 -24
      vertex 56.5276 43.5387 -19.2
    endloop
  endfacet
  facet normal 1 0 0
    outer loop
      vertex 56.5276 42.6613 -19.2
      vertex 56.5276 42.6613 -24
      vertex 56.5276 43.5387 -19.2
    endloop
  endfacet
  facet normal 0.968583 0.248689 0
    outer loop
      vertex 56.5276 42.6613 -24
      vertex 56.5276 42.6613 -19.2
      vertex 56.7458 41.8116 -19.2
    endloop
  endfacet
  facet normal 0.968583 0.248689 0
    outer loop
      vertex 56.7458 41.8116 -24
      vertex 56.5276 42.6613 -24
      vertex 56.7458 41.8116 -19.2
    endloop
  endfacet
  facet normal 0.968583 -0.248689 0
    outer loop
      vertex 56.5276 43.5387 -24
      vertex 56.7458 44.3884 -24
      vertex 56.7458 44.3884 -19.2
    endloop
  endfacet
  facet normal 0.968583 -0.248689 0
    outer loop
      vertex 56.5276 43.5387 -19.2
      vertex 56.5276 43.5387 -24
      vertex 56.7458 44.3884 -19.2
    endloop
  endfacet
  facet normal 0.876306 -0.481755 0
    outer loop
      vertex 56.7458 44.3884 -24
      vertex 57.1684 45.1572 -24
      vertex 57.1684 45.1572 -19.2
    endloop
  endfacet
  facet normal 0.876306 -0.481755 0
    outer loop
      vertex 56.7458 44.3884 -19.2
      vertex 56.7458 44.3884 -24
      vertex 57.1684 45.1572 -19.2
    endloop
  endfacet
  facet normal 0.728969 -0.684547 0
    outer loop
      vertex 57.1684 45.1572 -24
      vertex 57.769 45.7968 -24
      vertex 57.769 45.7968 -19.2
    endloop
  endfacet
  facet normal 0.728969 -0.684547 0
    outer loop
      vertex 57.1684 45.1572 -19.2
      vertex 57.1684 45.1572 -24
      vertex 57.769 45.7968 -19.2
    endloop
  endfacet
  facet normal 0.535828 -0.844327 0
    outer loop
      vertex 57.769 45.7968 -24
      vertex 58.5098 46.2669 -24
      vertex 58.5098 46.2669 -19.2
    endloop
  endfacet
  facet normal 0.535828 -0.844327 0
    outer loop
      vertex 57.769 45.7968 -19.2
      vertex 57.769 45.7968 -24
      vertex 58.5098 46.2669 -19.2
    endloop
  endfacet
  facet normal 0.309016 -0.951057 0
    outer loop
      vertex 58.5098 46.2669 -24
      vertex 59.3442 46.538 -24
      vertex 59.3442 46.538 -19.2
    endloop
  endfacet
  facet normal 0.309016 -0.951057 0
    outer loop
      vertex 58.5098 46.2669 -19.2
      vertex 58.5098 46.2669 -24
      vertex 59.3442 46.538 -19.2
    endloop
  endfacet
  facet normal 0.0627914 -0.998027 0
    outer loop
      vertex 59.3442 46.538 -24
      vertex 60.2198 46.5931 -24
      vertex 60.2198 46.5931 -19.2
    endloop
  endfacet
  facet normal 0.0627914 -0.998027 0
    outer loop
      vertex 59.3442 46.538 -19.2
      vertex 59.3442 46.538 -24
      vertex 60.2198 46.5931 -19.2
    endloop
  endfacet
  facet normal -0.187382 -0.982287 0
    outer loop
      vertex 60.2198 46.5931 -24
      vertex 61.0816 46.4287 -24
      vertex 61.0816 46.4287 -19.2
    endloop
  endfacet
  facet normal -0.187382 -0.982287 0
    outer loop
      vertex 60.2198 46.5931 -19.2
      vertex 60.2198 46.5931 -24
      vertex 61.0816 46.4287 -19.2
    endloop
  endfacet
  facet normal -0.425779 -0.904827 0
    outer loop
      vertex 61.0816 46.4287 -24
      vertex 61.8754 46.0551 -24
      vertex 61.8754 46.0551 -19.2
    endloop
  endfacet
  facet normal -0.425779 -0.904827 0
    outer loop
      vertex 61.0816 46.4287 -19.2
      vertex 61.0816 46.4287 -24
      vertex 61.8754 46.0551 -19.2
    endloop
  endfacet
  facet normal -0.637424 -0.770513 0
    outer loop
      vertex 61.8754 46.0551 -24
      vertex 62.5514 45.4959 -24
      vertex 62.5514 45.4959 -19.2
    endloop
  endfacet
  facet normal -0.637424 -0.770513 0
    outer loop
      vertex 61.8754 46.0551 -19.2
      vertex 61.8754 46.0551 -24
      vertex 62.5514 45.4959 -19.2
    endloop
  endfacet
  facet normal -0.809017 -0.587785 0
    outer loop
      vertex 63.0671 44.7861 -24
      vertex 63.0671 44.7861 -19.2
      vertex 62.5514 45.4959 -24
    endloop
  endfacet
  facet normal -0.809017 -0.587785 0
    outer loop
      vertex 62.5514 45.4959 -24
      vertex 63.0671 44.7861 -19.2
      vertex 62.5514 45.4959 -19.2
    endloop
  endfacet
  facet normal -0.929776 -0.368125 0
    outer loop
      vertex 63.39 43.9704 -24
      vertex 63.39 43.9704 -19.2
      vertex 63.0671 44.7861 -24
    endloop
  endfacet
  facet normal -0.929776 -0.368125 0
    outer loop
      vertex 63.0671 44.7861 -24
      vertex 63.39 43.9704 -19.2
      vertex 63.0671 44.7861 -19.2
    endloop
  endfacet
  facet normal -0.992115 -0.125333 0
    outer loop
      vertex 63.5 43.1 -24
      vertex 63.5 43.1 -19.2
      vertex 63.39 43.9704 -24
    endloop
  endfacet
  facet normal -0.992115 -0.125333 0
    outer loop
      vertex 63.39 43.9704 -24
      vertex 63.5 43.1 -19.2
      vertex 63.39 43.9704 -19.2
    endloop
  endfacet
  facet normal -0.992115 0.125333 0
    outer loop
      vertex 63.39 42.2296 -19.2
      vertex 63.5 43.1 -19.2
      vertex 63.39 42.2296 -24
    endloop
  endfacet
  facet normal -0.992115 0.125333 0
    outer loop
      vertex 63.39 42.2296 -24
      vertex 63.5 43.1 -19.2
      vertex 63.5 43.1 -24
    endloop
  endfacet
  facet normal -0.929776 0.368125 0
    outer loop
      vertex 63.0671 41.4139 -19.2
      vertex 63.39 42.2296 -19.2
      vertex 63.0671 41.4139 -24
    endloop
  endfacet
  facet normal -0.929776 0.368125 0
    outer loop
      vertex 63.0671 41.4139 -24
      vertex 63.39 42.2296 -19.2
      vertex 63.39 42.2296 -24
    endloop
  endfacet
  facet normal -0.809017 0.587785 0
    outer loop
      vertex 62.5514 40.7041 -19.2
      vertex 63.0671 41.4139 -19.2
      vertex 62.5514 40.7041 -24
    endloop
  endfacet
  facet normal -0.809017 0.587785 0
    outer loop
      vertex 62.5514 40.7041 -24
      vertex 63.0671 41.4139 -19.2
      vertex 63.0671 41.4139 -24
    endloop
  endfacet
  facet normal -0.637424 0.770513 0
    outer loop
      vertex 61.8754 40.1449 -19.2
      vertex 62.5514 40.7041 -19.2
      vertex 61.8754 40.1449 -24
    endloop
  endfacet
  facet normal -0.637424 0.770513 0
    outer loop
      vertex 61.8754 40.1449 -24
      vertex 62.5514 40.7041 -19.2
      vertex 62.5514 40.7041 -24
    endloop
  endfacet
  facet normal -0.425779 0.904827 0
    outer loop
      vertex 61.0816 39.7713 -19.2
      vertex 61.8754 40.1449 -19.2
      vertex 61.0816 39.7713 -24
    endloop
  endfacet
  facet normal -0.425779 0.904827 0
    outer loop
      vertex 61.0816 39.7713 -24
      vertex 61.8754 40.1449 -19.2
      vertex 61.8754 40.1449 -24
    endloop
  endfacet
  facet normal -0.187382 0.982287 0
    outer loop
      vertex 60.2198 39.6069 -19.2
      vertex 61.0816 39.7713 -19.2
      vertex 60.2198 39.6069 -24
    endloop
  endfacet
  facet normal -0.187382 0.982287 0
    outer loop
      vertex 60.2198 39.6069 -24
      vertex 61.0816 39.7713 -19.2
      vertex 61.0816 39.7713 -24
    endloop
  endfacet
  facet normal 0.0627914 0.998027 0
    outer loop
      vertex 59.3442 39.662 -19.2
      vertex 60.2198 39.6069 -19.2
      vertex 59.3442 39.662 -24
    endloop
  endfacet
  facet normal 0.0627914 0.998027 0
    outer loop
      vertex 59.3442 39.662 -24
      vertex 60.2198 39.6069 -19.2
      vertex 60.2198 39.6069 -24
    endloop
  endfacet
  facet normal 0.309016 0.951057 0
    outer loop
      vertex 58.5098 39.9331 -19.2
      vertex 59.3442 39.662 -19.2
      vertex 58.5098 39.9331 -24
    endloop
  endfacet
  facet normal 0.309016 0.951057 0
    outer loop
      vertex 58.5098 39.9331 -24
      vertex 59.3442 39.662 -19.2
      vertex 59.3442 39.662 -24
    endloop
  endfacet
  facet normal 0.535828 0.844327 0
    outer loop
      vertex 57.769 40.4032 -19.2
      vertex 58.5098 39.9331 -19.2
      vertex 57.769 40.4032 -24
    endloop
  endfacet
  facet normal 0.535828 0.844327 0
    outer loop
      vertex 57.769 40.4032 -24
      vertex 58.5098 39.9331 -19.2
      vertex 58.5098 39.9331 -24
    endloop
  endfacet
  facet normal 0.728969 0.684547 0
    outer loop
      vertex 57.1684 41.0428 -24
      vertex 57.1684 41.0428 -19.2
      vertex 57.769 40.4032 -19.2
    endloop
  endfacet
  facet normal 0.728969 0.684547 0
    outer loop
      vertex 57.769 40.4032 -24
      vertex 57.1684 41.0428 -24
      vertex 57.769 40.4032 -19.2
    endloop
  endfacet
  facet normal 0.876306 0.481755 0
    outer loop
      vertex 56.7458 41.8116 -24
      vertex 56.7458 41.8116 -19.2
      vertex 57.1684 41.0428 -19.2
    endloop
  endfacet
  facet normal 0.876306 0.481755 0
    outer loop
      vertex 57.1684 41.0428 -24
      vertex 56.7458 41.8116 -24
      vertex 57.1684 41.0428 -19.2
    endloop
  endfacet
  facet normal 1 0 0
    outer loop
      vertex 57.3709 42.7679 -19.2
      vertex 57.3709 43.4321 -19.2
      vertex 57.3709 43.4321 -11
    endloop
  endfacet
  facet normal 1 0 0
    outer loop
      vertex 57.3709 42.7679 -11
      vertex 57.3709 42.7679 -19.2
      vertex 57.3709 43.4321 -11
    endloop
  endfacet
  facet normal 0.968583 0.24869 0
    outer loop
      vertex 57.3709 42.7679 -19.2
      vertex 57.3709 42.7679 -11
      vertex 57.5361 42.1245 -11
    endloop
  endfacet
  facet normal 0.968583 0.24869 0
    outer loop
      vertex 57.5361 42.1245 -19.2
      vertex 57.3709 42.7679 -19.2
      vertex 57.5361 42.1245 -11
    endloop
  endfacet
  facet normal 0.876307 0.481754 0
    outer loop
      vertex 57.5361 42.1245 -19.2
      vertex 57.5361 42.1245 -11
      vertex 57.8561 41.5424 -11
    endloop
  endfacet
  facet normal 0.876307 0.481754 0
    outer loop
      vertex 57.8561 41.5424 -19.2
      vertex 57.5361 42.1245 -19.2
      vertex 57.8561 41.5424 -11
    endloop
  endfacet
  facet normal 0.728969 0.684547 0
    outer loop
      vertex 57.8561 41.5424 -19.2
      vertex 57.8561 41.5424 -11
      vertex 58.3108 41.0581 -11
    endloop
  endfacet
  facet normal 0.728969 0.684547 0
    outer loop
      vertex 58.3108 41.0581 -19.2
      vertex 57.8561 41.5424 -19.2
      vertex 58.3108 41.0581 -11
    endloop
  endfacet
  facet normal 0.535827 0.844328 0
    outer loop
      vertex 58.3108 41.0581 -11
      vertex 58.8717 40.7022 -11
      vertex 58.3108 41.0581 -19.2
    endloop
  endfacet
  facet normal 0.535827 0.844328 0
    outer loop
      vertex 58.3108 41.0581 -19.2
      vertex 58.8717 40.7022 -11
      vertex 58.8717 40.7022 -19.2
    endloop
  endfacet
  facet normal 0.309016 0.951057 0
    outer loop
      vertex 58.8717 40.7022 -11
      vertex 59.5034 40.4969 -11
      vertex 58.8717 40.7022 -19.2
    endloop
  endfacet
  facet normal 0.309016 0.951057 0
    outer loop
      vertex 58.8717 40.7022 -19.2
      vertex 59.5034 40.4969 -11
      vertex 59.5034 40.4969 -19.2
    endloop
  endfacet
  facet normal 0.0627911 0.998027 0
    outer loop
      vertex 59.5034 40.4969 -11
      vertex 60.1664 40.4552 -11
      vertex 59.5034 40.4969 -19.2
    endloop
  endfacet
  facet normal 0.0627911 0.998027 0
    outer loop
      vertex 59.5034 40.4969 -19.2
      vertex 60.1664 40.4552 -11
      vertex 60.1664 40.4552 -19.2
    endloop
  endfacet
  facet normal -0.187381 0.982287 0
    outer loop
      vertex 60.1664 40.4552 -11
      vertex 60.8189 40.5797 -11
      vertex 60.1664 40.4552 -19.2
    endloop
  endfacet
  facet normal -0.187381 0.982287 0
    outer loop
      vertex 60.1664 40.4552 -19.2
      vertex 60.8189 40.5797 -11
      vertex 60.8189 40.5797 -19.2
    endloop
  endfacet
  facet normal -0.42578 0.904827 0
    outer loop
      vertex 60.8189 40.5797 -11
      vertex 61.4199 40.8625 -11
      vertex 60.8189 40.5797 -19.2
    endloop
  endfacet
  facet normal -0.42578 0.904827 0
    outer loop
      vertex 60.8189 40.5797 -19.2
      vertex 61.4199 40.8625 -11
      vertex 61.4199 40.8625 -19.2
    endloop
  endfacet
  facet normal -0.637424 0.770513 0
    outer loop
      vertex 61.4199 40.8625 -11
      vertex 61.9318 41.2859 -11
      vertex 61.4199 40.8625 -19.2
    endloop
  endfacet
  facet normal -0.637424 0.770513 0
    outer loop
      vertex 61.4199 40.8625 -19.2
      vertex 61.9318 41.2859 -11
      vertex 61.9318 41.2859 -19.2
    endloop
  endfacet
  facet normal -0.809017 0.587785 0
    outer loop
      vertex 61.9318 41.2859 -11
      vertex 62.3222 41.8234 -11
      vertex 61.9318 41.2859 -19.2
    endloop
  endfacet
  facet normal -0.809017 0.587785 0
    outer loop
      vertex 61.9318 41.2859 -19.2
      vertex 62.3222 41.8234 -11
      vertex 62.3222 41.8234 -19.2
    endloop
  endfacet
  facet normal -0.929777 0.368124 0
    outer loop
      vertex 62.3222 41.8234 -11
      vertex 62.5667 42.441 -11
      vertex 62.3222 41.8234 -19.2
    endloop
  endfacet
  facet normal -0.929777 0.368124 0
    outer loop
      vertex 62.3222 41.8234 -19.2
      vertex 62.5667 42.441 -11
      vertex 62.5667 42.441 -19.2
    endloop
  endfacet
  facet normal -0.992115 0.125334 0
    outer loop
      vertex 62.5667 42.441 -11
      vertex 62.65 43.1 -11
      vertex 62.5667 42.441 -19.2
    endloop
  endfacet
  facet normal -0.992115 0.125334 0
    outer loop
      vertex 62.5667 42.441 -19.2
      vertex 62.65 43.1 -11
      vertex 62.65 43.1 -19.2
    endloop
  endfacet
  facet normal -0.992115 -0.125334 0
    outer loop
      vertex 62.65 43.1 -19.2
      vertex 62.65 43.1 -11
      vertex 62.5667 43.759 -19.2
    endloop
  endfacet
  facet normal -0.992115 -0.125334 0
    outer loop
      vertex 62.5667 43.759 -19.2
      vertex 62.65 43.1 -11
      vertex 62.5667 43.759 -11
    endloop
  endfacet
  facet normal -0.929777 -0.368124 0
    outer loop
      vertex 62.5667 43.759 -19.2
      vertex 62.5667 43.759 -11
      vertex 62.3222 44.3766 -19.2
    endloop
  endfacet
  facet normal -0.929777 -0.368124 0
    outer loop
      vertex 62.3222 44.3766 -19.2
      vertex 62.5667 43.759 -11
      vertex 62.3222 44.3766 -11
    endloop
  endfacet
  facet normal -0.809017 -0.587785 0
    outer loop
      vertex 62.3222 44.3766 -19.2
      vertex 62.3222 44.3766 -11
      vertex 61.9318 44.914 -19.2
    endloop
  endfacet
  facet normal -0.809017 -0.587785 0
    outer loop
      vertex 61.9318 44.914 -19.2
      vertex 62.3222 44.3766 -11
      vertex 61.9318 44.914 -11
    endloop
  endfacet
  facet normal -0.637424 -0.770513 0
    outer loop
      vertex 61.4199 45.3375 -19.2
      vertex 61.9318 44.914 -19.2
      vertex 61.9318 44.914 -11
    endloop
  endfacet
  facet normal -0.637424 -0.770513 0
    outer loop
      vertex 61.4199 45.3375 -11
      vertex 61.4199 45.3375 -19.2
      vertex 61.9318 44.914 -11
    endloop
  endfacet
  facet normal -0.42578 -0.904827 0
    outer loop
      vertex 60.8189 45.6203 -19.2
      vertex 61.4199 45.3375 -19.2
      vertex 61.4199 45.3375 -11
    endloop
  endfacet
  facet normal -0.42578 -0.904827 0
    outer loop
      vertex 60.8189 45.6203 -11
      vertex 60.8189 45.6203 -19.2
      vertex 61.4199 45.3375 -11
    endloop
  endfacet
  facet normal -0.187381 -0.982287 0
    outer loop
      vertex 60.1664 45.7448 -19.2
      vertex 60.8189 45.6203 -19.2
      vertex 60.8189 45.6203 -11
    endloop
  endfacet
  facet normal -0.187381 -0.982287 0
    outer loop
      vertex 60.1664 45.7448 -11
      vertex 60.1664 45.7448 -19.2
      vertex 60.8189 45.6203 -11
    endloop
  endfacet
  facet normal 0.0627911 -0.998027 0
    outer loop
      vertex 59.5034 45.7031 -19.2
      vertex 60.1664 45.7448 -19.2
      vertex 60.1664 45.7448 -11
    endloop
  endfacet
  facet normal 0.0627911 -0.998027 0
    outer loop
      vertex 59.5034 45.7031 -11
      vertex 59.5034 45.7031 -19.2
      vertex 60.1664 45.7448 -11
    endloop
  endfacet
  facet normal 0.309016 -0.951057 0
    outer loop
      vertex 58.8717 45.4978 -19.2
      vertex 59.5034 45.7031 -19.2
      vertex 59.5034 45.7031 -11
    endloop
  endfacet
  facet normal 0.309016 -0.951057 0
    outer loop
      vertex 58.8717 45.4978 -11
      vertex 58.8717 45.4978 -19.2
      vertex 59.5034 45.7031 -11
    endloop
  endfacet
  facet normal 0.535827 -0.844328 0
    outer loop
      vertex 58.3108 45.1419 -19.2
      vertex 58.8717 45.4978 -19.2
      vertex 58.8717 45.4978 -11
    endloop
  endfacet
  facet normal 0.535827 -0.844328 0
    outer loop
      vertex 58.3108 45.1419 -11
      vertex 58.3108 45.1419 -19.2
      vertex 58.8717 45.4978 -11
    endloop
  endfacet
  facet normal 0.728969 -0.684547 0
    outer loop
      vertex 57.8561 44.6576 -19.2
      vertex 58.3108 45.1419 -19.2
      vertex 58.3108 45.1419 -11
    endloop
  endfacet
  facet normal 0.728969 -0.684547 0
    outer loop
      vertex 57.8561 44.6576 -11
      vertex 57.8561 44.6576 -19.2
      vertex 58.3108 45.1419 -11
    endloop
  endfacet
  facet normal 0.876307 -0.481754 0
    outer loop
      vertex 57.5361 44.0755 -19.2
      vertex 57.8561 44.6576 -19.2
      vertex 57.8561 44.6576 -11
    endloop
  endfacet
  facet normal 0.876307 -0.481754 0
    outer loop
      vertex 57.5361 44.0755 -11
      vertex 57.5361 44.0755 -19.2
      vertex 57.8561 44.6576 -11
    endloop
  endfacet
  facet normal 0.968583 -0.24869 0
    outer loop
      vertex 57.3709 43.4321 -19.2
      vertex 57.5361 44.0755 -19.2
      vertex 57.5361 44.0755 -11
    endloop
  endfacet
  facet normal 0.968583 -0.24869 0
    outer loop
      vertex 57.3709 43.4321 -11
      vertex 57.3709 43.4321 -19.2
      vertex 57.5361 44.0755 -11
    endloop
  endfacet
  facet normal 0 0 -1
    outer loop
      vertex 56.5276 43.5387 -19.2
      vertex 56.7458 44.3884 -19.2
      vertex 56.5276 42.6613 -19.2
    endloop
  endfacet
  facet normal 0 0 -1
    outer loop
      vertex 56.5276 42.6613 -19.2
      vertex 56.7458 44.3884 -19.2
      vertex 57.1684 45.1572 -19.2
    endloop
  endfacet
  facet normal 0 0 -1
    outer loop
      vertex 56.5276 42.6613 -19.2
      vertex 57.1684 45.1572 -19.2
      vertex 57.769 45.7968 -19.2
    endloop
  endfacet
  facet normal 0 0 -1
    outer loop
      vertex 56.5276 42.6613 -19.2
      vertex 57.769 45.7968 -19.2
      vertex 58.5098 46.2669 -19.2
    endloop
  endfacet
  facet normal 0 0 -1
    outer loop
      vertex 58.3108 45.1419 -19.2
      vertex 58.5098 46.2669 -19.2
      vertex 59.3442 46.538 -19.2
    endloop
  endfacet
  facet normal 0 0 -1
    outer loop
      vertex 58.8717 45.4978 -19.2
      vertex 59.3442 46.538 -19.2
      vertex 60.2198 46.5931 -19.2
    endloop
  endfacet
  facet normal 0 0 -1
    outer loop
      vertex 60.1664 45.7448 -19.2
      vertex 60.2198 46.5931 -19.2
      vertex 61.0816 46.4287 -19.2
    endloop
  endfacet
  facet normal 0 0 -1
    outer loop
      vertex 60.8189 45.6203 -19.2
      vertex 61.0816 46.4287 -19.2
      vertex 61.8754 46.0551 -19.2
    endloop
  endfacet
  facet normal 0 0 -1
    outer loop
      vertex 61.4199 45.3375 -19.2
      vertex 61.8754 46.0551 -19.2
      vertex 62.5514 45.4959 -19.2
    endloop
  endfacet
  facet normal 0 0 -1
    outer loop
      vertex 61.9318 44.914 -19.2
      vertex 62.5514 45.4959 -19.2
      vertex 63.0671 44.7861 -19.2
    endloop
  endfacet
  facet normal 0 0 -1
    outer loop
      vertex 62.3222 44.3766 -19.2
      vertex 63.0671 44.7861 -19.2
      vertex 63.39 43.9704 -19.2
    endloop
  endfacet
  facet normal 0 0 -1
    outer loop
      vertex 62.65 43.1 -19.2
      vertex 63.39 43.9704 -19.2
      vertex 63.5 43.1 -19.2
    endloop
  endfacet
  facet normal 0 0 -1
    outer loop
      vertex 62.5667 42.441 -19.2
      vertex 63.5 43.1 -19.2
      vertex 63.39 42.2296 -19.2
    endloop
  endfacet
  facet normal 0 0 -1
    outer loop
      vertex 62.3222 41.8234 -19.2
      vertex 63.39 42.2296 -19.2
      vertex 63.0671 41.4139 -19.2
    endloop
  endfacet
  facet normal 0 0 -1
    outer loop
      vertex 61.9318 41.2859 -19.2
      vertex 63.0671 41.4139 -19.2
      vertex 62.5514 40.7041 -19.2
    endloop
  endfacet
  facet normal 0 0 -1
    outer loop
      vertex 61.4199 40.8625 -19.2
      vertex 62.5514 40.7041 -19.2
      vertex 61.8754 40.1449 -19.2
    endloop
  endfacet
  facet normal 0 0 -1
    outer loop
      vertex 60.1664 40.4552 -19.2
      vertex 61.8754 40.1449 -19.2
      vertex 61.0816 39.7713 -19.2
    endloop
  endfacet
  facet normal 0 0 -1
    outer loop
      vertex 59.5034 40.4969 -19.2
      vertex 61.0816 39.7713 -19.2
      vertex 60.2198 39.6069 -19.2
    endloop
  endfacet
  facet normal 0 0 -1
    outer loop
      vertex 58.3108 41.0581 -19.2
      vertex 60.2198 39.6069 -19.2
      vertex 59.3442 39.662 -19.2
    endloop
  endfacet
  facet normal 0 0 -1
    outer loop
      vertex 56.5276 42.6613 -19.2
      vertex 59.3442 39.662 -19.2
      vertex 58.5098 39.9331 -19.2
    endloop
  endfacet
  facet normal 0 0 -1
    outer loop
      vertex 56.5276 42.6613 -19.2
      vertex 58.5098 39.9331 -19.2
      vertex 57.769 40.4032 -19.2
    endloop
  endfacet
  facet normal 0 0 -1
    outer loop
      vertex 56.5276 42.6613 -19.2
      vertex 57.769 40.4032 -19.2
      vertex 57.1684 41.0428 -19.2
    endloop
  endfacet
  facet normal 0 0 -1
    outer loop
      vertex 56.5276 42.6613 -19.2
      vertex 57.1684 41.0428 -19.2
      vertex 56.7458 41.8116 -19.2
    endloop
  endfacet
  facet normal 0 0 -1
    outer loop
      vertex 57.5361 42.1245 -19.2
      vertex 56.5276 42.6613 -19.2
      vertex 57.3709 42.7679 -19.2
    endloop
  endfacet
  facet normal 0 0 -1
    outer loop
      vertex 57.8561 41.5424 -19.2
      vertex 56.5276 42.6613 -19.2
      vertex 57.5361 42.1245 -19.2
    endloop
  endfacet
  facet normal 0 0 -1
    outer loop
      vertex 59.5034 40.4969 -19.2
      vertex 60.2198 39.6069 -19.2
      vertex 58.8717 40.7022 -19.2
    endloop
  endfacet
  facet normal 0 0 -1
    outer loop
      vertex 56.5276 42.6613 -19.2
      vertex 57.8561 41.5424 -19.2
      vertex 59.3442 39.662 -19.2
    endloop
  endfacet
  facet normal 0 0 -1
    outer loop
      vertex 58.8717 40.7022 -19.2
      vertex 60.2198 39.6069 -19.2
      vertex 58.3108 41.0581 -19.2
    endloop
  endfacet
  facet normal 0 0 -1
    outer loop
      vertex 57.8561 41.5424 -19.2
      vertex 58.3108 41.0581 -19.2
      vertex 59.3442 39.662 -19.2
    endloop
  endfacet
  facet normal 0 0 -1
    outer loop
      vertex 60.8189 40.5797 -19.2
      vertex 61.8754 40.1449 -19.2
      vertex 60.1664 40.4552 -19.2
    endloop
  endfacet
  facet normal 0 0 -1
    outer loop
      vertex 61.4199 40.8625 -19.2
      vertex 61.8754 40.1449 -19.2
      vertex 60.8189 40.5797 -19.2
    endloop
  endfacet
  facet normal 0 0 -1
    outer loop
      vertex 60.1664 40.4552 -19.2
      vertex 61.0816 39.7713 -19.2
      vertex 59.5034 40.4969 -19.2
    endloop
  endfacet
  facet normal 0 0 -1
    outer loop
      vertex 62.5667 43.759 -19.2
      vertex 63.39 43.9704 -19.2
      vertex 62.65 43.1 -19.2
    endloop
  endfacet
  facet normal 0 0 -1
    outer loop
      vertex 62.3222 44.3766 -19.2
      vertex 63.39 43.9704 -19.2
      vertex 62.5667 43.759 -19.2
    endloop
  endfacet
  facet normal 0 0 -1
    outer loop
      vertex 62.65 43.1 -19.2
      vertex 63.5 43.1 -19.2
      vertex 62.5667 42.441 -19.2
    endloop
  endfacet
  facet normal 0 0 -1
    outer loop
      vertex 62.5667 42.441 -19.2
      vertex 63.39 42.2296 -19.2
      vertex 62.3222 41.8234 -19.2
    endloop
  endfacet
  facet normal 0 0 -1
    outer loop
      vertex 62.3222 41.8234 -19.2
      vertex 63.0671 41.4139 -19.2
      vertex 61.9318 41.2859 -19.2
    endloop
  endfacet
  facet normal 0 0 -1
    outer loop
      vertex 61.9318 41.2859 -19.2
      vertex 62.5514 40.7041 -19.2
      vertex 61.4199 40.8625 -19.2
    endloop
  endfacet
  facet normal 0 0 -1
    outer loop
      vertex 59.5034 45.7031 -19.2
      vertex 60.2198 46.5931 -19.2
      vertex 60.1664 45.7448 -19.2
    endloop
  endfacet
  facet normal 0 0 -1
    outer loop
      vertex 58.3108 45.1419 -19.2
      vertex 59.3442 46.538 -19.2
      vertex 58.8717 45.4978 -19.2
    endloop
  endfacet
  facet normal 0 0 -1
    outer loop
      vertex 57.8561 44.6576 -19.2
      vertex 58.5098 46.2669 -19.2
      vertex 58.3108 45.1419 -19.2
    endloop
  endfacet
  facet normal 0 0 -1
    outer loop
      vertex 57.3709 43.4321 -19.2
      vertex 56.5276 42.6613 -19.2
      vertex 57.5361 44.0755 -19.2
    endloop
  endfacet
  facet normal 0 0 -1
    outer loop
      vertex 56.5276 42.6613 -19.2
      vertex 58.5098 46.2669 -19.2
      vertex 57.8561 44.6576 -19.2
    endloop
  endfacet
  facet normal 0 0 -1
    outer loop
      vertex 56.5276 42.6613 -19.2
      vertex 57.8561 44.6576 -19.2
      vertex 57.5361 44.0755 -19.2
    endloop
  endfacet
  facet normal 0 0 -1
    outer loop
      vertex 57.3709 42.7679 -19.2
      vertex 56.5276 42.6613 -19.2
      vertex 57.3709 43.4321 -19.2
    endloop
  endfacet
  facet normal 0 0 -1
    outer loop
      vertex 58.8717 45.4978 -19.2
      vertex 60.2198 46.5931 -19.2
      vertex 59.5034 45.7031 -19.2
    endloop
  endfacet
  facet normal 0 0 -1
    outer loop
      vertex 60.1664 45.7448 -19.2
      vertex 61.0816 46.4287 -19.2
      vertex 60.8189 45.6203 -19.2
    endloop
  endfacet
  facet normal 0 0 -1
    outer loop
      vertex 60.8189 45.6203 -19.2
      vertex 61.8754 46.0551 -19.2
      vertex 61.4199 45.3375 -19.2
    endloop
  endfacet
  facet normal 0 0 -1
    outer loop
      vertex 61.4199 45.3375 -19.2
      vertex 62.5514 45.4959 -19.2
      vertex 61.9318 44.914 -19.2
    endloop
  endfacet
  facet normal 0 0 -1
    outer loop
      vertex 61.9318 44.914 -19.2
      vertex 63.0671 44.7861 -19.2
      vertex 62.3222 44.3766 -19.2
    endloop
  endfacet
endsolid OpenSCAD_Model
